<svg width="53" height="52" viewBox="0 0 53 52" fill="none" xmlns="http://www.w3.org/2000/svg">
<path d="M45.8602 29.8274H45.5371V1.10368C45.5368 0.954481 45.4773 0.811493 45.3717 0.706096C45.2662 0.600698 45.1231 0.541504 44.9738 0.541504H14.3062C14.1571 0.541504 14.0141 0.600733 13.9087 0.706161C13.8033 0.81159 13.7441 0.954581 13.7441 1.10368V4.50796H9.18958C9.04048 4.50796 8.89749 4.56719 8.79206 4.67261C8.68663 4.77804 8.6274 4.92103 8.6274 5.07013V21.3323H7.5429C7.11074 21.3337 6.69679 21.5065 6.39191 21.8129C6.08702 22.1191 5.91612 22.5338 5.91669 22.9661V47.0566C5.9184 48.2237 6.38283 49.3423 7.20814 50.1675C8.03346 50.9926 9.15229 51.4568 10.3193 51.4582H39.2487C40.3293 51.459 41.3722 51.0605 42.1769 50.3392H43.088C44.3691 50.3366 45.5968 49.8264 46.5023 48.9201C47.4076 48.0139 47.9169 46.7858 47.9183 45.5047V31.8908C47.918 31.3446 47.7012 30.8207 47.3155 30.4339C46.9297 30.0472 46.4064 29.8291 45.8602 29.8274ZM14.8695 1.66694H44.4106V29.8274H43.549C43.4337 29.5147 43.2255 29.2449 42.9523 29.054C42.6791 28.8632 42.3541 28.7606 42.0208 28.7601H39.91V5.0669C39.9096 4.91771 39.8502 4.77472 39.7446 4.66932C39.639 4.56392 39.4959 4.50473 39.3467 4.50473H14.8695V1.66694ZM9.75175 5.63339H38.7845V28.7601H36.0308C35.8969 28.7598 35.7686 28.7066 35.6739 28.6119C35.5792 28.5172 35.5259 28.3889 35.5256 28.255V22.9661C35.5251 22.5336 35.3529 22.119 35.0471 21.8133C34.7412 21.5077 34.3265 21.3358 33.894 21.3355H9.75175V5.63339ZM10.315 50.3327C9.44629 50.3319 8.61337 49.9865 7.99901 49.3723C7.38463 48.7582 7.03894 47.9253 7.03781 47.0566V22.9661C7.03809 22.8322 7.0914 22.7039 7.18606 22.6092C7.28072 22.5145 7.40903 22.4612 7.5429 22.4609H33.894C34.0281 22.4609 34.1567 22.5141 34.2516 22.6088C34.3465 22.7035 34.3999 22.832 34.4002 22.9661V28.255C34.4004 28.6874 34.5724 29.102 34.8781 29.4077C35.1838 29.7134 35.5984 29.8852 36.0308 29.8855H42.0208C42.1546 29.8858 42.283 29.9392 42.3777 30.0337C42.4723 30.1284 42.5257 30.2568 42.5259 30.3906V47.0566C42.5248 47.9253 42.1791 48.7582 41.5648 49.3723C40.9503 49.9865 40.1174 50.3319 39.2487 50.3327H10.315ZM46.7971 45.5047C46.796 46.4881 46.4049 47.4308 45.7095 48.1262C45.0142 48.8215 44.0715 49.2126 43.088 49.2137C43.4597 48.5567 43.6553 47.8147 43.6556 47.0598V30.9539H45.8645C46.1131 30.9541 46.3514 31.0532 46.5271 31.229C46.7028 31.4049 46.8015 31.6434 46.8015 31.8919L46.7971 45.5047Z" fill="#767F86"/>
<path d="M23.0015 11.477H33.4718C33.5478 11.4804 33.6236 11.4682 33.6948 11.4415C33.766 11.4147 33.831 11.3738 33.8859 11.3212C33.9408 11.2686 33.9846 11.2055 34.0144 11.1356C34.0443 11.0656 34.0596 10.9904 34.0596 10.9143C34.0596 10.8383 34.0443 10.763 34.0144 10.6931C33.9846 10.6232 33.9408 10.56 33.8859 10.5074C33.831 10.4549 33.766 10.4139 33.6948 10.3872C33.6236 10.3604 33.5478 10.3483 33.4718 10.3516H23.0015C22.8566 10.358 22.7196 10.42 22.6193 10.5248C22.5189 10.6297 22.4629 10.7692 22.4629 10.9143C22.4629 11.0595 22.5189 11.199 22.6193 11.3038C22.7196 11.4087 22.8566 11.4707 23.0015 11.477Z" fill="#767F86"/>
<path d="M15.0644 11.477H18.5021C18.647 11.4707 18.784 11.4087 18.8843 11.3038C18.9846 11.199 19.0406 11.0595 19.0406 10.9143C19.0406 10.7692 18.9846 10.6297 18.8843 10.5248C18.784 10.42 18.647 10.358 18.5021 10.3516H15.0644C14.9884 10.3483 14.9126 10.3604 14.8414 10.3872C14.7702 10.4139 14.7052 10.4549 14.6503 10.5074C14.5953 10.56 14.5516 10.6232 14.5218 10.6931C14.4919 10.763 14.4765 10.8383 14.4765 10.9143C14.4765 10.9904 14.4919 11.0656 14.5218 11.1356C14.5516 11.2055 14.5953 11.2686 14.6503 11.3212C14.7052 11.3738 14.7702 11.4147 14.8414 11.4415C14.9126 11.4682 14.9884 11.4804 15.0644 11.477Z" fill="#767F86"/>
<path d="M33.4719 14.1148H29.6402C29.4951 14.1211 29.3582 14.1832 29.2579 14.288C29.1576 14.3928 29.1016 14.5323 29.1016 14.6775C29.1016 14.8225 29.1576 14.9621 29.2579 15.0669C29.3582 15.1718 29.4951 15.2339 29.6402 15.2402H33.4719C33.548 15.2435 33.6238 15.2314 33.695 15.2046C33.7662 15.1779 33.8312 15.1369 33.8861 15.0844C33.941 15.0317 33.9847 14.9686 34.0146 14.8987C34.0445 14.8287 34.0599 14.7535 34.0599 14.6775C34.0599 14.6014 34.0445 14.5261 34.0146 14.4563C33.9847 14.3863 33.941 14.3231 33.8861 14.2706C33.8312 14.218 33.7662 14.1771 33.695 14.1503C33.6238 14.1236 33.548 14.1114 33.4719 14.1148Z" fill="#767F86"/>
<path d="M15.0644 15.2402H25.7479C25.8238 15.2435 25.8996 15.2314 25.9708 15.2046C26.042 15.1779 26.107 15.1369 26.1619 15.0844C26.2168 15.0317 26.2606 14.9686 26.2905 14.8987C26.3203 14.8287 26.3357 14.7535 26.3357 14.6775C26.3357 14.6014 26.3203 14.5261 26.2905 14.4563C26.2606 14.3863 26.2168 14.3231 26.1619 14.2706C26.107 14.218 26.042 14.1771 25.9708 14.1503C25.8996 14.1236 25.8238 14.1114 25.7479 14.1148H15.0644C14.9884 14.1114 14.9126 14.1236 14.8414 14.1503C14.7702 14.1771 14.7052 14.218 14.6503 14.2706C14.5953 14.3231 14.5516 14.3863 14.5218 14.4563C14.4919 14.5261 14.4765 14.6014 14.4765 14.6775C14.4765 14.7535 14.4919 14.8287 14.5218 14.8987C14.5516 14.9686 14.5953 15.0317 14.6503 15.0844C14.7052 15.1369 14.7702 15.1779 14.8414 15.2046C14.9126 15.2314 14.9884 15.2435 15.0644 15.2402Z" fill="#767F86"/>
<path d="M33.4718 17.8775H15.0644C14.9884 17.8741 14.9126 17.8862 14.8414 17.913C14.7702 17.9398 14.7052 17.9806 14.6503 18.0333C14.5953 18.0858 14.5516 18.149 14.5218 18.219C14.4919 18.2888 14.4765 18.3641 14.4765 18.4402C14.4765 18.5162 14.4919 18.5914 14.5218 18.6614C14.5516 18.7313 14.5953 18.7944 14.6503 18.8471C14.7052 18.8996 14.7702 18.9406 14.8414 18.9673C14.9126 18.9941 14.9884 19.0062 15.0644 19.0029H33.4718C33.5477 19.0062 33.6237 18.9941 33.6949 18.9673C33.7659 18.9406 33.831 18.8996 33.886 18.8471C33.9409 18.7944 33.9846 18.7313 34.0145 18.6614C34.0443 18.5914 34.0597 18.5162 34.0597 18.4402C34.0597 18.3641 34.0443 18.2888 34.0145 18.219C33.9846 18.149 33.9409 18.0858 33.886 18.0333C33.831 17.9806 33.7659 17.9398 33.6949 17.913C33.6237 17.8862 33.5477 17.8741 33.4718 17.8775Z" fill="#767F86"/>
</svg>
