<svg width="53" height="50" viewBox="0 0 53 50" fill="none" xmlns="http://www.w3.org/2000/svg">
<path d="M52.5 8.44166C52.5009 6.80887 52.0225 5.2116 51.124 3.84731C50.2253 2.48303 48.9458 1.41158 47.4437 0.765422C45.9417 0.119265 44.2828 -0.0732597 42.6722 0.211652C41.0617 0.496564 39.5701 1.24642 38.3819 2.3685H6.67577C6.52834 2.3685 6.38695 2.42696 6.28271 2.53103C6.17846 2.6351 6.1199 2.77624 6.1199 2.9234V39.3213H1.05546C0.980093 39.3214 0.905525 39.3368 0.836289 39.3665C0.767052 39.3962 0.704593 39.4397 0.652706 39.4942C0.600821 39.5488 0.560592 39.6133 0.534467 39.6839C0.508341 39.7545 0.496864 39.8296 0.500733 39.9047C0.500733 39.9913 1.02122 48.5804 8.65726 49.4395C8.67816 49.4406 8.69912 49.4406 8.72003 49.4395H38.5987C38.6216 49.4395 38.6432 49.4395 38.6535 49.4395C40.2518 49.4377 41.7842 48.803 42.9142 47.6746C44.0443 46.5463 44.6798 45.0165 44.6814 43.4211V24.0131L47.0338 26.6133C47.1087 26.697 47.2074 26.7561 47.3168 26.7825C47.4262 26.8091 47.541 26.8018 47.6461 26.7619C47.7513 26.7219 47.8417 26.651 47.9056 26.5585C47.9695 26.4661 48.0039 26.3565 48.004 26.2441V15.8468C49.3588 15.1394 50.4939 14.0753 51.2864 12.7701C52.0789 11.4648 52.4985 9.96798 52.5 8.44166ZM8.75085 48.3331C3.09859 47.678 1.91038 42.2531 1.67411 40.4323H30.4376C30.6363 41.9306 31.5083 46.2354 35.0935 48.3331H8.75085ZM38.6307 48.3331C31.9695 47.5594 31.5072 40.1634 31.4912 39.8489C31.4836 39.7067 31.4218 39.5728 31.3184 39.4747C31.215 39.3766 31.078 39.3217 30.9353 39.3213H7.23164V3.47831H37.3945C36.6755 4.4478 36.1754 5.56134 35.9288 6.74227C35.6824 7.92318 35.6951 9.14342 35.9663 10.319C36.2375 11.4945 36.7607 12.5974 37.4999 13.5517C38.2391 14.506 39.1767 15.289 40.2481 15.8468V26.2441C40.2481 26.3564 40.2821 26.466 40.3457 26.5585C40.4095 26.6511 40.4997 26.7221 40.6047 26.7624C40.7097 26.8027 40.8244 26.8102 40.9337 26.7839C41.0432 26.7577 41.142 26.699 41.2171 26.6156L43.5696 24.0154V43.4244C43.565 44.7287 43.0426 45.9778 42.1167 46.8981C41.1908 47.8182 39.9372 48.3343 38.6307 48.3331ZM46.8922 24.7981L44.5398 22.198C44.4877 22.1413 44.4244 22.096 44.3539 22.065C44.2833 22.034 44.2071 22.0181 44.1301 22.0181C44.0529 22.0181 43.9768 22.034 43.9062 22.065C43.8357 22.096 43.7723 22.1413 43.7202 22.198L41.3678 24.7981V16.331C43.1576 16.9585 45.1082 16.9585 46.8979 16.331L46.8922 24.7981ZM47.3956 14.9102C47.2658 14.9226 47.1446 14.9803 47.0532 15.0732C45.3012 15.8516 43.3126 15.9099 41.518 15.2353C39.7233 14.5608 38.2671 13.2077 37.4645 11.4691C36.6619 9.73049 36.5777 7.74627 37.23 5.94611C37.8824 4.14594 39.2187 2.67472 40.9498 1.85101C42.6808 1.02731 44.6672 0.917419 46.4789 1.54514C48.2905 2.17286 49.7815 3.48767 50.6291 5.20487C51.4767 6.92206 51.6126 8.90343 51.0074 10.7199C50.4022 12.5364 49.1046 14.0418 47.3956 14.9102Z" fill="#767F86"/>
<path d="M44.1262 4.57129C43.3587 4.57129 42.6084 4.7985 41.9702 5.22419C41.3321 5.64987 40.8346 6.25492 40.5408 6.96281C40.2471 7.6707 40.1703 8.44965 40.32 9.20114C40.4698 9.95264 40.8394 10.643 41.3821 11.1847C41.9249 11.7265 42.6164 12.0955 43.3691 12.245C44.122 12.3945 44.9023 12.3178 45.6113 12.0245C46.3205 11.7313 46.9266 11.2347 47.353 10.5977C47.7794 9.96058 48.0071 9.21156 48.0071 8.44535C48.0071 7.41788 47.5982 6.4325 46.8704 5.70597C46.1426 4.97945 45.1555 4.57129 44.1262 4.57129ZM44.1262 11.2016C43.5795 11.2014 43.0451 11.0393 42.5907 10.736C42.1362 10.4326 41.7821 10.0015 41.573 9.49723C41.364 8.99294 41.3094 8.4381 41.4162 7.90284C41.523 7.36759 41.7863 6.87597 42.173 6.49013C42.5597 6.10429 43.0522 5.84157 43.5885 5.73518C44.1248 5.62878 44.6805 5.68351 45.1856 5.89241C45.6907 6.10132 46.1224 6.45504 46.4261 6.90885C46.7298 7.36265 46.8919 7.89616 46.8919 8.44193C46.8919 9.17426 46.6006 9.8766 46.0819 10.3945C45.5633 10.9125 44.8598 11.2036 44.1262 11.2039V11.2016Z" fill="#767F86"/>
<path d="M12.2958 10.7822H20.8792C20.9522 10.7822 21.0245 10.7678 21.0919 10.74C21.1594 10.712 21.2206 10.6711 21.2722 10.6196C21.3239 10.5681 21.3648 10.507 21.3928 10.4396C21.4206 10.3723 21.4351 10.3001 21.4351 10.2273C21.4351 10.1544 21.4206 10.0822 21.3928 10.0149C21.3648 9.9476 21.3239 9.88642 21.2722 9.83489C21.2206 9.78337 21.1594 9.74249 21.0919 9.71461C21.0245 9.68672 20.9522 9.67236 20.8792 9.67236H12.2958C12.1483 9.67236 12.007 9.73083 11.9028 9.83489C11.7985 9.93896 11.7399 10.0801 11.7399 10.2273C11.7399 10.3744 11.7985 10.5156 11.9028 10.6196C12.007 10.7237 12.1483 10.7822 12.2958 10.7822Z" fill="#767F86"/>
<path d="M35.5946 15.6899H12.2961C12.1529 15.6964 12.0177 15.7577 11.9186 15.8612C11.8196 15.9646 11.7643 16.1023 11.7643 16.2454C11.7643 16.3885 11.8196 16.5261 11.9186 16.6296C12.0177 16.733 12.1529 16.7944 12.2961 16.8009H35.5946C35.7378 16.7944 35.873 16.733 35.972 16.6296C36.0711 16.5261 36.1263 16.3885 36.1263 16.2454C36.1263 16.1023 36.0711 15.9646 35.972 15.8612C35.873 15.7577 35.7378 15.6964 35.5946 15.6899Z" fill="#767F86"/>
<path d="M35.5943 21.5723H32.6265C32.4792 21.5723 32.3377 21.6308 32.2335 21.7348C32.1293 21.8389 32.0706 21.9801 32.0706 22.1272C32.0706 22.2744 32.1293 22.4155 32.2335 22.5196C32.3377 22.6236 32.4792 22.6821 32.6265 22.6821H35.5943C35.7416 22.6821 35.8831 22.6236 35.9873 22.5196C36.0915 22.4155 36.15 22.2744 36.15 22.1272C36.15 21.9801 36.0915 21.8389 35.9873 21.7348C35.8831 21.6308 35.7416 21.5723 35.5943 21.5723Z" fill="#767F86"/>
<path d="M12.2958 22.6821H27.3167C27.4642 22.6821 27.6055 22.6236 27.7098 22.5196C27.814 22.4155 27.8726 22.2744 27.8726 22.1272C27.8726 21.9801 27.814 21.8389 27.7098 21.7348C27.6055 21.6308 27.4642 21.5723 27.3167 21.5723H12.2958C12.1483 21.5723 12.007 21.6308 11.9028 21.7348C11.7985 21.8389 11.7399 21.9801 11.7399 22.1272C11.7399 22.2744 11.7985 22.4155 11.9028 22.5196C12.007 22.6236 12.1483 22.6821 12.2958 22.6821Z" fill="#767F86"/>
<path d="M35.5949 27.4551H25.377C25.2296 27.4551 25.0882 27.5136 24.984 27.6177C24.8798 27.7217 24.8211 27.8629 24.8211 28.01C24.8211 28.1572 24.8798 28.2983 24.984 28.4024C25.0882 28.5065 25.2296 28.5649 25.377 28.5649H35.5949C35.7424 28.5649 35.8837 28.5065 35.988 28.4024C36.0922 28.2983 36.1508 28.1572 36.1508 28.01C36.1508 27.8629 36.0922 27.7217 35.988 27.6177C35.8837 27.5136 35.7424 27.4551 35.5949 27.4551Z" fill="#767F86"/>
<path d="M12.2958 28.5649H17.4048C17.5521 28.5649 17.6936 28.5065 17.7978 28.4024C17.902 28.2983 17.9607 28.1572 17.9607 28.01C17.9607 27.8629 17.902 27.7217 17.7978 27.6177C17.6936 27.5136 17.5521 27.4551 17.4048 27.4551H12.2958C12.1483 27.4551 12.007 27.5136 11.9028 27.6177C11.7985 27.7217 11.7399 27.8629 11.7399 28.01C11.7399 28.1572 11.7985 28.2983 11.9028 28.4024C12.007 28.5065 12.1483 28.5649 12.2958 28.5649Z" fill="#767F86"/>
<path d="M35.5946 33.3374H12.2961C12.1529 33.3438 12.0177 33.4052 11.9186 33.5087C11.8196 33.6121 11.7643 33.7498 11.7643 33.8928C11.7643 34.036 11.8196 34.1736 11.9186 34.2771C12.0177 34.3805 12.1529 34.4418 12.2961 34.4483H35.5946C35.7378 34.4418 35.873 34.3805 35.972 34.2771C36.0711 34.1736 36.1263 34.036 36.1263 33.8928C36.1263 33.7498 36.0711 33.6121 35.972 33.5087C35.873 33.4052 35.7378 33.3438 35.5946 33.3374Z" fill="#767F86"/>
</svg>
