<svg width="20.007812" height="20.008179" viewBox="0 0 20.0078 20.0082" fill="none" xmlns="http://www.w3.org/2000/svg" xmlns:xlink="http://www.w3.org/1999/xlink">
	<desc>
			Created with Pixso.
	</desc>
	<defs/>
	<path id="Vector" d="M18.2969 0.325272L18.2969 0.296982C18.6934 -0.098999 19.3145 -0.098999 19.7109 0.296982C20.1074 0.692963 20.1074 1.31522 19.7109 1.7112L19.6836 1.7112L18.2969 0.325272ZM1.71094 19.6829L1.71094 19.7112C1.31445 20.1072 0.693359 20.1072 0.296875 19.7112C-0.0996094 19.3152 -0.0996094 18.693 0.296875 18.297L0.324219 18.297L1.71094 19.6829Z" fill="#FFFFFF" fill-opacity="1.000000" fill-rule="nonzero"/>
	<path id="Vector" d="M19.0039 1.00409L1.00391 19.0041" stroke="#FFFFFF" stroke-opacity="1.000000" stroke-width="2.000000" stroke-linejoin="round" stroke-linecap="round"/>
	<path id="Vector" d="M0.324219 1.7112L0.296875 1.7112C-0.0996094 1.31522 -0.0996094 0.692963 0.296875 0.296982C0.693359 -0.098999 1.31445 -0.098999 1.71094 0.296982L1.71094 0.325264L0.324219 1.7112ZM19.6836 18.297L19.7109 18.297C20.1074 18.693 20.1074 19.3152 19.7109 19.7112C19.3145 20.1072 18.6934 20.1072 18.2969 19.7112L18.2969 19.6829L19.6836 18.297Z" fill="#FFFFFF" fill-opacity="1.000000" fill-rule="nonzero"/>
	<path id="Vector" d="M1.00391 1.00409L19.0039 19.0041" stroke="#FFFFFF" stroke-opacity="1.000000" stroke-width="2.000000" stroke-linejoin="round" stroke-linecap="round"/>
</svg>
