<svg width="20" height="20" viewBox="0 0 20 20" fill="none" xmlns="http://www.w3.org/2000/svg">
<path d="M17.722 7.95205L18.7012 4.29763C19.0053 3.16267 18.6131 2.56582 17.3332 2.22288L14.0813 1.35152C12.8014 1.00859 12.1633 1.32937 11.8592 2.46433L10.8822 6.1107C10.5759 7.25371 10.9703 7.84251 12.2501 8.18545L15.5021 9.05681C16.7798 9.40779 17.4179 9.08701 17.722 7.95205Z" stroke="#D0033F" stroke-width="1.5" stroke-linecap="round" stroke-linejoin="round"/>
<path d="M18.6483 15.501L17.777 12.249C17.4341 10.9692 16.7809 10.5921 15.501 10.935L12.2491 11.8064C10.9692 12.1493 10.5921 12.8025 10.935 14.0823L11.8064 17.3343C12.1493 18.6141 12.8025 18.9913 14.0824 18.6483L17.3343 17.777C18.6142 17.434 18.9913 16.7808 18.6483 15.501Z" stroke="#D0033F" stroke-width="1.5" stroke-linecap="round" stroke-linejoin="round"/>
<path d="M8.75002 7.1V3.31666C8.75002 2.14166 8.21669 1.66666 6.89169 1.66666H3.52502C2.20002 1.66666 1.66669 2.14166 1.66669 3.31666V7.09166C1.66669 8.275 2.20002 8.74166 3.52502 8.74166H6.89169C8.21669 8.75 8.75002 8.275 8.75002 7.1Z" stroke="#D0033F" stroke-width="1.5" stroke-linecap="round" stroke-linejoin="round"/>
<path d="M8.75002 16.475V13.1083C8.75002 11.7833 8.21669 11.25 6.89169 11.25H3.52502C2.20002 11.25 1.66669 11.7833 1.66669 13.1083V16.475C1.66669 17.8 2.20002 18.3333 3.52502 18.3333H6.89169C8.21669 18.3333 8.75002 17.8 8.75002 16.475Z" stroke="#D0033F" stroke-width="1.5" stroke-linecap="round" stroke-linejoin="round"/>
</svg>
