<?xml version="1.0" encoding="utf-8"?><svg viewBox="0 0 26 30" xmlns="http://www.w3.org/2000/svg" xmlns:xlink="http://www.w3.org/1999/xlink"><style>:root>svg{display:none}:root>svg:target{display:block}</style><svg fill="none" viewBox="0 0 17.346 8.601" id="arrow-filter" xmlns="http://www.w3.org/2000/svg"><path d="M16.593.753l-6.52 6.52c-.77.77-2.03.77-2.8 0L.753.753"  stroke-width="1.5" stroke-linejoin="round" stroke-linecap="round"/></svg><svg fill="none" viewBox="0 0 24 14" id="burger" xmlns="http://www.w3.org/2000/svg"><path d="M1.5 1.167h21M1.5 7h21M1.5 12.833h21" stroke-width="1.5" stroke-linecap="round"/></svg><svg fill="none" viewBox="0 0 14 14" id="close-cart" xmlns="http://www.w3.org/2000/svg"><path d="M12.625 1.375l-11.25 11.25M12.625 12.625L1.375 1.375"  stroke-width="1.5" stroke-linecap="round" stroke-linejoin="round"/></svg><svg fill="none" viewBox="0 0 21.916 18.854" id="email" xmlns="http://www.w3.org/2000/svg"><path d="M5.854 18.104C2.79 18.104.75 16.573.75 13V5.854C.75 2.281 2.791.75 5.854.75h10.209c3.062 0 5.103 1.531 5.103 5.104V13c0 3.573-2.041 5.104-5.104 5.104H5.854z"  stroke-width="1.5" stroke-linejoin="round"/><path d="M16.064 6.364L12.87 8.916c-1.053.838-2.777.838-3.828 0L5.855 6.364"  stroke-width="1.5" stroke-linejoin="round" stroke-linecap="round"/></svg><svg fill="none" viewBox="0 0 22 22" id="icon-about-more" xmlns="http://www.w3.org/2000/svg"><path d="M15.06 5.436L20.626 11l-5.564 5.564M1.375 11h19.094" stroke-width="1.5" stroke-miterlimit="10" stroke-linecap="round" stroke-linejoin="round"/></svg><svg fill="none" viewBox="0 0 20 20" id="icon-back" xmlns="http://www.w3.org/2000/svg"><path d="M6.308 4.942L1.25 10l5.058 5.058M18.75 10H1.392"  stroke-width="1.5" stroke-miterlimit="10" stroke-linecap="round" stroke-linejoin="round"/></svg><svg fill="none" viewBox="0 0 9 16" id="icon-bread" xmlns="http://www.w3.org/2000/svg"><path d="M1.425 14.6l5.433-5.433a1.655 1.655 0 000-2.334L1.425 1.4"  stroke-width="1.5" stroke-miterlimit="10" stroke-linecap="round" stroke-linejoin="round"/></svg><svg fill="none" viewBox="0 0 24 24" id="icon-cart" xmlns="http://www.w3.org/2000/svg"><g opacity=".7"  stroke-linecap="round" stroke-linejoin="round"><path d="M7.5 7.67V6.7c0-2.25 1.81-4.46 4.06-4.67a4.5 4.5 0 014.94 4.48v1.38M9 22h6c4.02 0 4.74-1.61 4.95-3.57l.75-6C20.97 9.99 20.27 8 16 8H8c-4.27 0-4.97 1.99-4.7 4.43l.75 6C4.26 20.39 4.98 22 9 22z" stroke-width="1.5" stroke-miterlimit="10"/><path d="M15.495 12h.01M8.495 12h.008" stroke-width="2"/></g></svg><svg fill="none" viewBox="0 0 20 20" id="icon-catalog" xmlns="http://www.w3.org/2000/svg"><path d="M17.722 7.952l.98-3.654c.303-1.135-.089-1.732-1.369-2.075l-3.252-.871c-1.28-.343-1.918-.023-2.222 1.112l-.977 3.647c-.306 1.143.088 1.732 1.368 2.074l3.252.872c1.278.35 1.916.03 2.22-1.105zM18.648 15.501l-.871-3.252c-.343-1.28-.996-1.657-2.276-1.314l-3.252.871c-1.28.343-1.657.997-1.314 2.276l.871 3.252c.343 1.28.997 1.657 2.276 1.314l3.252-.871c1.28-.343 1.657-.996 1.314-2.276zM8.75 7.1V3.317c0-1.175-.533-1.65-1.858-1.65H3.525c-1.325 0-1.858.475-1.858 1.65v3.775c0 1.183.533 1.65 1.858 1.65h3.367C8.217 8.75 8.75 8.275 8.75 7.1zM8.75 16.475v-3.367c0-1.325-.533-1.858-1.858-1.858H3.525c-1.325 0-1.858.533-1.858 1.858v3.367c0 1.325.533 1.858 1.858 1.858h3.367c1.325 0 1.858-.533 1.858-1.858z"  stroke-width="1.5" stroke-linecap="round" stroke-linejoin="round"/></svg><svg fill="none" viewBox="0 0 16 30" id="icon-fb" xmlns="http://www.w3.org/2000/svg"><path d="M14.952 16.748l.829-5.389h-5.187V7.864c0-1.474.723-2.913 3.046-2.913H16V.364S13.86 0 11.814 0C7.54 0 4.749 2.581 4.749 7.252v4.107H0v5.389h4.749v13.026c.953.15 1.929.226 2.922.226.994 0 1.97-.076 2.923-.226V16.748h4.358z" fill="#fff"/></svg><svg fill="none" viewBox="0 0 26 26" id="icon-inst" xmlns="http://www.w3.org/2000/svg"><path fill-rule="evenodd" clip-rule="evenodd" d="M13.001.2C9.525.2 9.09.215 7.723.277 6.361.34 5.43.555 4.617.872a6.268 6.268 0 00-2.268 1.476A6.284 6.284 0 00.872 4.615C.554 5.43.338 6.36.277 7.722.216 9.087.2 9.524.2 13c0 3.476.015 3.911.077 5.277.063 1.362.279 2.293.595 3.106a6.273 6.273 0 001.476 2.268 6.267 6.267 0 002.267 1.477c.814.317 1.745.532 3.107.595 1.366.062 1.802.077 5.278.077 3.476 0 3.911-.015 5.276-.077 1.363-.063 2.294-.278 3.109-.595a6.262 6.262 0 002.266-1.477 6.284 6.284 0 001.477-2.267c.315-.814.53-1.745.595-3.107.061-1.365.077-1.8.077-5.277 0-3.476-.016-3.912-.077-5.278-.064-1.363-.28-2.293-.595-3.107a6.282 6.282 0 00-1.477-2.267A6.256 6.256 0 0021.384.872c-.816-.317-1.747-.532-3.11-.595C16.91.215 16.474.2 12.997.2h.004zm-.427 2.307h.427c3.418 0 3.823.012 5.173.073 1.248.057 1.925.266 2.376.441.597.232 1.023.51 1.471.957.448.448.725.875.958 1.472.175.451.384 1.128.44 2.376.062 1.35.075 1.755.075 5.171 0 3.416-.013 3.822-.074 5.17-.057 1.249-.266 1.926-.441 2.377a3.958 3.958 0 01-.958 1.47 3.959 3.959 0 01-1.471.958c-.45.176-1.128.384-2.377.44-1.349.062-1.754.075-5.172.075-3.418 0-3.823-.013-5.172-.074-1.248-.058-1.926-.266-2.377-.442a3.965 3.965 0 01-1.472-.957 3.967 3.967 0 01-.958-1.471c-.175-.45-.384-1.128-.44-2.376-.062-1.35-.074-1.755-.074-5.173s.012-3.821.073-5.17c.057-1.249.266-1.926.441-2.377.232-.598.51-1.024.958-1.472a3.973 3.973 0 011.472-.958c.451-.176 1.129-.384 2.377-.442 1.18-.053 1.638-.069 4.024-.072v.004h.721zm5.724 3.66a1.536 1.536 0 113.071 0 1.536 1.536 0 01-3.071 0zM13 6.427a6.574 6.574 0 10.001 13.147 6.574 6.574 0 00-.001-13.147zM17.268 13a4.267 4.267 0 10-8.534 0 4.267 4.267 0 008.534 0z" fill="#fff"/></svg><svg fill="none" viewBox="0 0 18 18" id="icon-more" xmlns="http://www.w3.org/2000/svg"><path d="M14.94 6.712l-4.89 4.89a1.49 1.49 0 01-2.1 0l-4.89-4.89"  stroke-width="1.5" stroke-linejoin="round" stroke-linecap="round"/></svg><svg fill="none" viewBox="0 0 8.602 17.346" id="icon-prev" xmlns="http://www.w3.org/2000/svg"><path d="M7.848 16.593l-6.52-6.52a1.983 1.983 0 010-2.8l6.52-6.52"  stroke-width="1.5" stroke-linejoin="round" stroke-linecap="round"/></svg><svg fill="none" viewBox="0 0 8.602 17.346" id="icon-next" xmlns="http://www.w3.org/2000/svg"><path d="M.754 16.593l6.52-6.52c.769-.77.769-2.03 0-2.8L.753.753"  stroke-width="1.5" stroke-linejoin="round" stroke-linecap="round"/></svg><svg fill="none" viewBox="0 0 20 20" id="icon-search" xmlns="http://www.w3.org/2000/svg"><path d="M9.583 17.5a7.917 7.917 0 110-15.833 7.917 7.917 0 010 15.833z"  stroke-width="1.5" stroke-linejoin="round"/><path d="M18.333 18.333l-1.666-1.666"  stroke-width="1.5" stroke-linejoin="round" stroke-linecap="round"/></svg><svg fill="none" viewBox="0 0 13.5 1.5" id="minus" xmlns="http://www.w3.org/2000/svg"><path d="M.75.75h12"  stroke-width="1.5" stroke-linejoin="round" stroke-linecap="round"/></svg><svg fill="none" viewBox="0 0 13.5 13.5" id="plus" xmlns="http://www.w3.org/2000/svg"><path d="M.75 6.75h12M6.75.75v12"  stroke-width="1.5" stroke-linejoin="round" stroke-linecap="round"/></svg><svg fill="none" viewBox="0 0 25.08 25.2" id="test" xmlns="http://www.w3.org/2000/svg"/><svg fill="none" viewBox="0 0 20.125 16.625" id="tg" xmlns="http://www.w3.org/2000/svg"><path d="M.305 7.733C2.363 6.602 4.66 5.658 6.809 4.71 10.502 3.155 14.21 1.627 17.957.206c.73-.243 2.04-.48 2.168.598-.07 1.525-.36 3.041-.559 4.557-.503 3.335-1.085 6.657-1.652 9.98-.195 1.107-1.586 1.68-2.477.972-2.136-1.44-4.29-2.866-6.402-4.34-.691-.7-.049-1.707.569-2.208 1.76-1.73 3.627-3.2 5.296-5.021.45-1.084-.88-.17-1.318.11-2.412 1.656-4.764 3.414-7.305 4.87-1.297.713-2.81.104-4.107-.294C1.006 8.95-.7 8.466.305 7.733z" fill="#FFF"/></svg><svg fill="none" viewBox="0 0 12 12" id="ui-delete" xmlns="http://www.w3.org/2000/svg"><path d="M11.063.938L.937 11.062M11.063 11.063L.937.937" stroke-linecap="round" stroke-linejoin="round"/></svg><svg fill="none" viewBox="0 0 24 24" id="view-1" xmlns="http://www.w3.org/2000/svg"><path d="M10.5 4.1c0-1.5-.64-2.1-2.23-2.1H4.23C2.64 2 2 2.6 2 4.1v15.8c0 1.5.64 2.1 2.23 2.1h4.04c1.59 0 2.23-.6 2.23-2.1V4.1zM22 3.98C22 2.57 21.36 2 19.77 2h-4.04c-1.59 0-2.23.57-2.23 1.98v4.53c0 1.42.64 1.98 2.23 1.98h4.04c1.59.01 2.23-.56 2.23-1.97V3.98zM22 15.73c0-1.59-.64-2.23-2.23-2.23h-4.04c-1.59 0-2.23.64-2.23 2.23v4.04c0 1.59.64 2.23 2.23 2.23h4.04c1.59 0 2.23-.64 2.23-2.23v-4.04z"  stroke-width="1.5" stroke-linejoin="round"/></svg><svg fill="none" viewBox="0 0 24 24" id="view-2" xmlns="http://www.w3.org/2000/svg"><path d="M22 3.98C22 2.57 21.36 2 19.77 2h-4.04c-1.59 0-2.23.57-2.23 1.98v4.53c0 1.42.64 1.98 2.23 1.98h4.04c1.59.01 2.23-.56 2.23-1.97V3.98zM22 15.73c0-1.59-.64-2.23-2.23-2.23h-4.04c-1.59 0-2.23.64-2.23 2.23v4.04c0 1.59.64 2.23 2.23 2.23h4.04c1.59 0 2.23-.64 2.23-2.23v-4.04zM10.5 3.98C10.5 2.57 9.86 2 8.27 2H4.23C2.64 2 2 2.57 2 3.98v4.53c0 1.42.64 1.98 2.23 1.98h4.04c1.59.01 2.23-.56 2.23-1.97V3.98zM10.5 15.73c0-1.59-.64-2.23-2.23-2.23H4.23c-1.59 0-2.23.64-2.23 2.23v4.04C2 21.36 2.64 22 4.23 22h4.04c1.59 0 2.23-.64 2.23-2.23v-4.04z"  stroke-width="1.5" stroke-linejoin="round"/></svg><svg fill="none" viewBox="0 0 26 26" id="whatsapp" xmlns="http://www.w3.org/2000/svg"><path fill-rule="evenodd" clip-rule="evenodd" d="M12.692 25.683h-.005c-2.09 0-4.144-.525-5.968-1.52L.1 25.9l1.772-6.47a12.464 12.464 0 01-1.667-6.243C.207 6.3 5.81.7 12.692.7a12.406 12.406 0 018.833 3.662 12.412 12.412 0 013.654 8.834c-.003 6.884-5.602 12.485-12.487 12.487zm-5.666-3.78l.379.225a10.363 10.363 0 005.283 1.447h.004c5.72 0 10.376-4.656 10.379-10.38a10.316 10.316 0 00-3.037-7.342 10.308 10.308 0 00-7.338-3.044C6.97 2.81 2.315 7.465 2.313 13.187c-.001 1.961.548 3.871 1.587 5.524l.246.392-1.048 3.83 3.928-1.03zm11.53-6.018c.217.105.364.176.427.28.078.13.078.756-.182 1.485-.26.728-1.507 1.394-2.106 1.483-.538.08-1.218.114-1.965-.124a17.92 17.92 0 01-1.78-.657c-2.924-1.263-4.901-4.098-5.275-4.634l-.054-.077-.003-.004c-.165-.22-1.271-1.696-1.271-3.224 0-1.437.706-2.19 1.03-2.537l.062-.066c.286-.312.624-.39.832-.39a12.394 12.394 0 01.668.012c.181-.001.408-.003.632.534l.344.837c.269.654.566 1.376.618 1.48.078.156.13.338.026.547l-.044.089c-.078.16-.136.276-.268.431l-.16.192c-.107.131-.215.262-.308.355-.156.156-.32.324-.137.637.182.312.808 1.334 1.736 2.161.997.89 1.863 1.265 2.303 1.456.085.037.155.067.206.093.312.156.494.13.676-.078.182-.209.78-.911.988-1.224.208-.312.416-.26.702-.156.286.104 1.82.86 2.132 1.015l.17.084z" fill="#fff"/></svg></svg>