<svg width="26" height="26" viewBox="0 0 26 26" fill="none" xmlns="http://www.w3.org/2000/svg">
<path fill-rule="evenodd" clip-rule="evenodd" d="M12.6918 25.6835H12.6866C10.5967 25.6827 8.54319 25.1584 6.71929 24.1635L0.0996094 25.9L1.87115 19.4292C0.778376 17.5355 0.203366 15.3873 0.204303 13.1865C0.207042 6.30149 5.80882 0.700012 12.6917 0.700012C16.0322 0.701454 19.1674 2.00189 21.525 4.36225C23.8826 6.72248 25.1803 9.8598 25.179 13.1963C25.1762 20.0797 19.5767 25.6807 12.6918 25.6835ZM7.02599 21.9029L7.40499 22.1278C8.99852 23.0735 10.8252 23.5738 12.6876 23.5746H12.6918C18.4123 23.5746 23.0683 18.9185 23.0706 13.1956C23.0717 10.4223 21.9931 7.81471 20.0336 5.85288C18.074 3.89104 15.4681 2.8101 12.6959 2.80914C6.97092 2.80914 2.31491 7.46473 2.31264 13.1872C2.31184 15.1483 2.86056 17.0582 3.89951 18.7107L4.14628 19.1034L3.09778 22.9334L7.02599 21.9029ZM18.5555 15.8848C18.7731 15.99 18.92 16.061 18.9828 16.1658C19.0608 16.2958 19.0608 16.9206 18.8009 17.6495C18.5408 18.3783 17.2943 19.0435 16.6948 19.133C16.1572 19.2134 15.477 19.2469 14.7296 19.0094C14.2764 18.8656 13.6952 18.6737 12.9508 18.3522C10.0258 17.0891 8.04902 14.2541 7.67541 13.7183C7.64924 13.6808 7.63093 13.6545 7.62072 13.6409L7.6182 13.6375C7.45308 13.4172 6.34669 11.941 6.34669 10.4132C6.34669 8.97597 7.05267 8.22265 7.37764 7.8759C7.3999 7.85214 7.42037 7.83029 7.43871 7.81026C7.7247 7.49789 8.06275 7.4198 8.27075 7.4198C8.47873 7.4198 8.68696 7.42172 8.86875 7.43085C8.89118 7.43197 8.91452 7.43184 8.93864 7.4317C9.12046 7.43063 9.34715 7.4293 9.57077 7.96645C9.6568 8.17317 9.78268 8.47964 9.91545 8.80288C10.1839 9.45651 10.4806 10.1787 10.5328 10.2832C10.6108 10.4394 10.6628 10.6215 10.5588 10.8298C10.5432 10.8611 10.5287 10.8906 10.5149 10.9187C10.4368 11.0782 10.3794 11.1955 10.2468 11.3503C10.1946 11.4112 10.1408 11.4768 10.0869 11.5424C9.97953 11.6731 9.8722 11.8039 9.77874 11.897C9.62254 12.0526 9.45993 12.2214 9.64194 12.5337C9.82395 12.8461 10.4501 13.8678 11.3777 14.6952C12.3748 15.5845 13.2414 15.9604 13.6806 16.151C13.7664 16.1882 13.8359 16.2183 13.8869 16.2438C14.1988 16.4001 14.3808 16.3739 14.5628 16.1658C14.7448 15.9575 15.3428 15.2546 15.5508 14.9423C15.7587 14.6301 15.9668 14.6821 16.2528 14.7862C16.5388 14.8904 18.0728 15.6451 18.3848 15.8013C18.4457 15.8318 18.5027 15.8593 18.5555 15.8848Z" fill="white"/>
</svg>
