<svg width="272" height="80" viewBox="0 0 272 80" fill="none" xmlns="http://www.w3.org/2000/svg">
<g clip-path="url(#clip0_1614_1208)">
<path d="M97.1974 12.9585L105.268 34.4405L113.339 12.9585H119.889V41.1367H114.86V32.0987L115.366 19.4032L107.042 41.1367H103.494L95.1894 19.4032L95.6767 32.0987V41.1367H90.6667V12.9585H97.1974Z" fill="#161515"/>
<path d="M128.35 41.1367H123.067L133.75 12.9585H138.312L149.034 41.1367H143.751L141.509 34.6921H130.592L128.35 41.1367ZM131.995 30.6667H140.086L136.031 19.0546L131.995 30.6667Z" fill="#161515"/>
<path d="M167.066 33.8599C167.066 33.0987 166.904 32.4471 166.579 31.9051C166.254 31.3634 165.656 30.8667 164.785 30.4151C163.928 29.9634 162.68 29.4862 161.042 28.9828C159.249 28.4411 157.644 27.8023 156.227 27.067C154.824 26.3186 153.712 25.4025 152.893 24.3188C152.075 23.235 151.665 21.9124 151.665 20.3513C151.665 18.829 152.094 17.4807 152.952 16.3065C153.81 15.1326 154.999 14.2164 156.519 13.5584C158.04 12.9004 159.801 12.5714 161.803 12.5714C163.921 12.5714 165.747 12.9585 167.281 13.7326C168.827 14.4938 170.01 15.5259 170.829 16.829C171.66 18.1323 172.076 19.5838 172.076 21.1835H167.047C167.047 19.8418 166.611 18.7387 165.74 17.8743C164.883 16.9968 163.551 16.5582 161.744 16.5582C160.042 16.5582 158.774 16.9259 157.943 17.6612C157.111 18.3838 156.695 19.2804 156.695 20.3513C156.695 21.3835 157.189 22.248 158.177 22.9447C159.177 23.6286 160.691 24.2672 162.719 24.8608C165.877 25.7897 168.229 26.9508 169.776 28.3442C171.322 29.7248 172.096 31.5504 172.096 33.8212C172.096 36.208 171.173 38.0919 169.328 39.4722C167.495 40.84 165.039 41.5239 161.959 41.5239C160.594 41.5239 159.249 41.3431 157.923 40.9819C156.597 40.6078 155.395 40.053 154.317 39.3175C153.251 38.5691 152.393 37.6338 151.743 36.5113C151.106 35.3888 150.788 34.0663 150.788 32.544H155.818C155.818 34.3374 156.409 35.621 157.592 36.3952C158.774 37.1694 160.23 37.5563 161.959 37.5563C163.648 37.5563 164.922 37.2144 165.779 36.5307C166.637 35.834 167.066 34.9438 167.066 33.8599Z" fill="#161515"/>
<path d="M198.141 31.9246C197.972 33.7824 197.445 35.434 196.561 36.8791C195.678 38.3241 194.437 39.4594 192.838 40.2852C191.24 41.1108 189.283 41.5239 186.97 41.5239C184.631 41.5239 182.603 40.9819 180.888 39.898C179.172 38.8014 177.847 37.2532 176.911 35.2532C175.975 33.2535 175.507 30.8923 175.507 28.17V25.9444C175.507 23.2222 175.982 20.861 176.93 18.8612C177.879 16.8615 179.224 15.3131 180.966 14.2164C182.72 13.1198 184.787 12.5714 187.165 12.5714C189.439 12.5714 191.357 12.9907 192.916 13.8294C194.489 14.6551 195.704 15.8034 196.561 17.2743C197.432 18.7321 197.959 20.4094 198.141 22.306H193.13C192.935 20.5127 192.396 19.1193 191.512 18.1257C190.642 17.1323 189.193 16.6356 187.165 16.6356C184.969 16.6356 183.318 17.4354 182.213 19.0354C181.122 20.6224 180.576 22.9124 180.576 25.9058V28.17C180.576 31.0215 181.076 33.2857 182.077 34.963C183.078 36.6274 184.709 37.4596 186.97 37.4596C189.037 37.4596 190.518 36.9886 191.415 36.0468C192.325 35.0921 192.89 33.7179 193.111 31.9246H198.141Z" fill="#161515"/>
<path d="M225.219 27.7831C225.219 30.6343 224.725 33.0857 223.737 35.1371C222.749 37.1886 221.372 38.7691 219.604 39.8788C217.837 40.9755 215.777 41.5239 213.424 41.5239C211.111 41.5239 209.058 40.9755 207.264 39.8788C205.484 38.7691 204.086 37.1886 203.073 35.1371C202.072 33.0857 201.572 30.6343 201.572 27.7831V26.3314C201.572 23.4802 202.072 21.0288 203.073 18.9774C204.073 16.9259 205.464 15.3454 207.244 14.2358C209.025 13.1262 211.072 12.5714 213.385 12.5714C215.738 12.5714 217.798 13.1262 219.565 14.2358C221.346 15.3454 222.73 16.9259 223.717 18.9774C224.718 21.0288 225.219 23.4802 225.219 26.3314V27.7831ZM220.169 26.2928C220.169 23.1705 219.572 20.7966 218.376 19.171C217.193 17.5323 215.53 16.7129 213.385 16.7129C211.28 16.7129 209.629 17.5323 208.434 19.171C207.238 20.7966 206.64 23.1705 206.64 26.2928V27.7831C206.64 30.8923 207.244 33.2729 208.453 34.9243C209.662 36.5758 211.319 37.4016 213.424 37.4016C215.582 37.4016 217.245 36.5758 218.415 34.9243C219.585 33.2729 220.169 30.8923 220.169 27.7831V26.2928Z" fill="#161515"/>
<path d="M240.482 41.1367H235.493V16.984H226.719V12.9585H249.333V16.984H240.482V41.1367Z" fill="#161515"/>
<path d="M252.355 18.6453C252.355 17.1346 252.609 15.7335 253.116 14.4413C253.633 13.1493 254.338 12.0235 255.231 11.0639C256.136 10.0949 257.178 9.34432 258.359 8.8123C259.549 8.27077 260.821 8 262.176 8C263.532 8 264.801 8.27077 265.982 8.8123C267.172 9.34432 268.212 10.0949 269.108 11.0639C270.012 12.0235 270.717 13.1493 271.225 14.4413C271.742 15.7335 272 17.1346 272 18.6453C272 20.1559 271.742 21.5573 271.225 22.8494C270.717 24.1413 270.012 25.2766 269.108 26.2551C268.212 27.2242 267.172 27.9794 265.982 28.5211C264.801 29.0626 263.532 29.3333 262.176 29.3333C260.821 29.3333 259.549 29.0626 258.359 28.5211C257.178 27.9794 256.136 27.2242 255.231 26.2551C254.338 25.2766 253.633 24.1413 253.116 22.8494C252.609 21.5573 252.355 20.1559 252.355 18.6453ZM254.014 18.6453C254.014 19.9088 254.227 21.0823 254.651 22.1653C255.075 23.2482 255.662 24.1936 256.408 25.0011C257.156 25.8087 258.021 26.4405 259.01 26.8965C259.996 27.3525 261.052 27.5806 262.176 27.5806C263.303 27.5806 264.359 27.3525 265.345 26.8965C266.331 26.4405 267.199 25.8087 267.945 25.0011C268.693 24.1936 269.273 23.2482 269.688 22.1653C270.114 21.0823 270.325 19.9088 270.325 18.6453C270.325 17.3817 270.114 16.2133 269.688 15.1397C269.273 14.0566 268.693 13.1113 267.945 12.3037C267.199 11.4962 266.331 10.8691 265.345 10.4226C264.359 9.97609 263.303 9.75285 262.176 9.75285C261.052 9.75285 259.996 9.97609 259.01 10.4226C258.021 10.8691 257.156 11.4962 256.408 12.3037C255.662 13.1113 255.075 14.0566 254.651 15.1397C254.227 16.2133 254.014 17.3817 254.014 18.6453ZM266.603 20.5264C266.603 22.0274 266.188 23.1486 265.359 23.8896C264.538 24.6306 263.414 25.0011 261.984 25.0011C260.508 25.0011 259.336 24.4928 258.47 23.4763C257.602 22.4597 257.169 21.1296 257.169 19.4862V17.8187C257.169 16.1847 257.602 14.8594 258.47 13.8428C259.336 12.8168 260.508 12.3037 261.984 12.3037C263.414 12.3037 264.543 12.679 265.372 13.4295C266.202 14.1706 266.617 15.2821 266.617 16.7641H264.515C264.515 15.8427 264.298 15.1824 263.865 14.7834C263.441 14.3843 262.813 14.1848 261.984 14.1848C261.088 14.1848 260.411 14.5221 259.95 15.1966C259.488 15.8711 259.259 16.7403 259.259 17.8046V19.4862C259.259 20.5595 259.488 21.4336 259.95 22.1083C260.411 22.7733 261.088 23.1058 261.984 23.1058C262.813 23.1058 263.441 22.9111 263.865 22.5216C264.289 22.1319 264.502 21.467 264.502 20.5264H266.603Z" fill="#161515"/>
<path d="M101.314 47.9449H104.818L109.195 65.7742L112.763 47.9449H116.913L111.52 71.6739H107.451L103.074 54.48L98.6177 71.6739H94.5644L89.1548 47.9449H93.3048L96.9059 65.7253L101.314 47.9449Z" fill="#161515"/>
<path d="M138.697 60.4286C138.697 62.8298 138.288 64.8942 137.47 66.6218C136.652 68.3493 135.51 69.6803 134.046 70.6144C132.582 71.5381 130.876 71.9998 128.928 71.9998C127.011 71.9998 125.31 71.5381 123.825 70.6144C122.35 69.6803 121.193 68.3493 120.353 66.6218C119.524 64.8942 119.109 62.8298 119.109 60.4286V59.2064C119.109 56.8053 119.524 54.7408 120.353 53.0133C121.182 51.2858 122.334 49.9548 123.809 49.0204C125.283 48.086 126.979 47.619 128.895 47.619C130.844 47.619 132.55 48.086 134.014 49.0204C135.489 49.9548 136.635 51.2858 137.454 53.0133C138.283 54.7408 138.697 56.8053 138.697 59.2064V60.4286ZM134.515 59.1738C134.515 56.5445 134.019 54.5454 133.029 53.1763C132.049 51.7964 130.672 51.1066 128.895 51.1066C127.151 51.1066 125.784 51.7964 124.794 53.1763C123.803 54.5454 123.308 56.5445 123.308 59.1738V60.4286C123.308 63.0471 123.809 65.0517 124.81 66.4423C125.811 67.8332 127.183 68.5285 128.928 68.5285C130.715 68.5285 132.093 67.8332 133.061 66.4423C134.03 65.0517 134.515 63.0471 134.515 60.4286V59.1738Z" fill="#161515"/>
<path d="M151.018 47.9449C153.709 47.9449 155.803 48.5532 157.3 49.7701C158.796 50.987 159.544 52.7635 159.544 55.0995C159.544 56.7075 159.156 58.0492 158.382 59.1248C157.617 60.2005 156.567 61.0263 155.233 61.6021L160.481 71.462V71.6739H156.024L151.341 62.5961H146.836V71.6739H142.669V47.9449H151.018ZM151.018 51.3347H146.836V59.2227H151.05C152.482 59.2227 153.558 58.8588 154.28 58.1308C155.001 57.3918 155.362 56.4576 155.362 55.3276C155.362 54.1107 155.012 53.1438 154.312 52.4265C153.612 51.6988 152.514 51.3347 151.018 51.3347Z" fill="#161515"/>
<path d="M167.634 71.6739H163.468V47.9449H167.634V59.0759L169.911 56.1751L176.661 47.9449H181.748L173.06 58.4567L182.184 71.6739H177.226L170.299 61.5205L167.634 64.3726V71.6739Z" fill="#161515"/>
<path d="M194.908 47.9449H198.412L202.789 65.7742L206.357 47.9449H210.507L205.114 71.6739H201.044L196.668 54.48L192.212 71.6739H188.158L182.749 47.9449H186.899L190.5 65.7253L194.908 47.9449Z" fill="#161515"/>
<path d="M228.883 71.6739H213.462V47.9449H228.804V51.3347H217.629V57.7884H227.254V61.1132H217.629V68.3004H228.883V71.6739Z" fill="#161515"/>
<path d="M234.439 71.6739H230.062L238.911 47.9449H242.69L251.573 71.6739H247.196L245.339 66.2469H236.295L234.439 71.6739ZM237.458 62.8569H244.161L240.802 53.0784L237.458 62.8569Z" fill="#161515"/>
<path d="M262.537 47.9449C265.227 47.9449 267.322 48.5532 268.818 49.7701C270.314 50.987 271.062 52.7635 271.062 55.0995C271.062 56.7075 270.674 58.0492 269.899 59.1248C269.135 60.2005 268.085 61.0263 266.75 61.6021L272 71.462V71.6739H267.541L262.859 62.5961H258.355V71.6739H254.189V47.9449H262.537ZM262.537 51.3347H258.355V59.2227H262.568C264.001 59.2227 265.078 58.8588 265.798 58.1308C266.519 57.3918 266.88 56.4576 266.88 55.3276C266.88 54.1107 266.531 53.1438 265.83 52.4265C265.13 51.6988 264.033 51.3347 262.537 51.3347Z" fill="#161515"/>
<path d="M71.5247 65.0519H64.2156C63.5614 65.0896 62.4773 65.4665 62.4773 66.7861C62.4773 68.1056 63.5429 68.5015 64.197 68.5202H65.8607C66.0289 68.5202 66.1597 68.6523 66.1597 68.8219V78.1717C66.1597 78.9632 66.6083 79.9058 67.842 79.9058C69.1694 79.9058 69.5432 78.8313 69.562 78.1717V68.7842C69.562 68.6146 69.6928 68.4825 69.861 68.4825H71.5059C72.1415 68.4638 73.2258 68.1056 73.2258 66.7673C73.2444 65.165 71.7117 65.0519 71.5247 65.0519Z" fill="#D0033F"/>
<path d="M29.2192 77.7943L26.6954 67.7282C26.6769 67.6153 26.0225 65.0894 23.3682 65.0894C20.695 65.0894 20.0782 67.6153 20.0595 67.7095L17.5733 77.7566C17.4424 78.3975 17.5546 79.5662 18.8257 79.8866C20.0408 80.1883 20.7137 79.3966 20.9007 78.6238L21.181 77.6057C21.2184 77.4738 21.3306 77.3796 21.4801 77.3796H25.3683C25.4991 77.3796 25.6301 77.4738 25.6673 77.6247L25.9105 78.6425C25.9665 78.8311 26.4713 80.3202 28.004 79.9243C29.2377 79.5662 29.3499 78.4162 29.2192 77.7943ZM24.5645 73.8169C24.5083 73.8923 24.4149 73.93 24.3216 73.93H22.3587C22.2652 73.93 22.1718 73.8923 22.1157 73.8169C22.0596 73.7415 22.0409 73.6473 22.0596 73.5529L23.0504 69.5945C23.0878 69.4626 23.2 69.3682 23.3494 69.3682C23.4804 69.3682 23.6112 69.4626 23.6486 69.5945L24.6205 73.5529C24.6579 73.6473 24.6205 73.7415 24.5645 73.8169Z" fill="#D0033F"/>
<path d="M58.8336 65.0708H55.0576C54.908 65.0708 51.3563 65.1273 51.3563 68.8031V76.1737C51.3563 76.3243 51.4499 79.9058 55.0576 79.9058H58.8524C58.9084 79.9058 60.4973 79.9247 61.5629 78.9069C62.2171 78.266 62.5348 77.3423 62.5348 76.1737V68.8031C62.5348 68.6523 62.46 65.0708 58.8336 65.0708ZM59.1328 69.5005V75.4196C59.1328 76.0038 58.684 76.4564 58.1232 76.4564H55.7679C55.1886 76.4564 54.7586 76.0038 54.7586 75.4196V69.5005C54.7586 68.9163 55.1698 68.5017 55.7679 68.5017H58.1232C58.7028 68.5017 59.1328 68.935 59.1328 69.5005Z" fill="#D0033F"/>
<path d="M33.1645 68.5013H36.7162C36.8843 68.5013 37.0151 68.6332 37.0151 68.803C37.0151 68.9914 37.0899 69.9905 38.1743 70.2545H38.2115C38.3611 70.2922 38.5293 70.3109 38.6977 70.3109C39.95 70.3109 40.4174 69.3873 40.4174 68.5955V68.049C40.4174 65.2026 37.8003 65.1084 37.5199 65.1084H32.3982C29.5567 65.1084 29.4633 67.7662 29.4633 68.0677V71.31C29.4633 73.3459 30.8466 73.9678 31.669 74.1564C31.6878 74.1564 31.7064 74.1751 31.7064 74.1751L31.7626 74.1941C32.099 74.2695 32.3419 74.2695 32.3982 74.2695H36.7347C36.9032 74.2695 37.0339 74.4014 37.0339 74.571V76.1733C37.0339 76.3429 36.9032 76.475 36.7347 76.475H33.1645C32.9963 76.475 32.8653 76.3429 32.8653 76.1733C32.8653 75.9847 32.8093 75.0611 31.7252 74.8161L31.613 74.7973L31.1644 74.7596C29.9307 74.7596 29.4633 75.6645 29.4445 76.4373V76.9838C29.4445 79.8492 32.043 79.9434 32.3419 79.9434H37.5013C40.3052 79.9434 40.3986 77.3233 40.3986 77.0215V73.7605C40.3986 71.6494 38.9592 71.065 38.0995 70.8954L38.0247 70.8764C37.7443 70.8199 37.5387 70.8199 37.5013 70.8199H33.1457C32.9775 70.8199 32.8467 70.6881 32.8467 70.5182V68.8407C32.8653 68.6332 32.9963 68.5013 33.1645 68.5013Z" fill="#D0033F"/>
<path d="M49.4272 76.456H45.4829C44.8848 76.456 44.4922 76.0411 44.4922 75.4379V69.5191C44.4922 68.8782 44.8474 68.52 45.4829 68.52H49.4272C50.2121 68.52 51.1469 68.0676 51.1469 66.8235C51.1469 65.1835 49.5953 65.0894 49.4272 65.0894H44.7911C44.6415 65.0894 41.0899 65.1646 41.0899 68.8217V76.1732C41.0899 76.3239 41.1835 79.9056 44.7911 79.9056H49.4272C50.2309 79.8866 51.1469 79.4343 51.1469 78.1902C51.1281 76.8519 50.0627 76.456 49.4272 76.456Z" fill="#D0033F"/>
<path d="M12.3787 65.033C11.0888 65.033 10.0981 65.4288 9.36908 66.0131C8.64005 65.4288 7.64931 65.033 6.35949 65.033C2.88258 65.033 1.61145 67.8981 1.61145 69.8208V78.2282C1.61145 79.2083 2.39656 80 3.3499 80C4.32193 80 5.08836 79.2083 5.08836 78.2282V69.8398C5.12574 68.9916 5.537 68.558 6.34079 68.558C7.14459 68.558 7.57453 68.9916 7.59323 69.8398V78.2092C7.59323 79.1895 8.37834 79.9811 9.33168 79.9811C10.3037 79.9811 11.0888 79.1895 11.0888 78.2092V69.8398C11.1075 68.9916 11.5375 68.558 12.3413 68.558C13.1451 68.558 13.575 68.9916 13.5937 69.8398V78.2282C13.5937 79.2083 14.3788 80 15.3322 80C16.2855 80 17.0706 79.2083 17.0706 78.2282V69.8208C17.1267 67.8794 15.8556 65.033 12.3787 65.033Z" fill="#D0033F"/>
<path d="M37.7446 7.63431C38.4361 7.63431 38.9969 8.19982 38.9969 8.89728C38.9969 9.59472 38.4361 10.1602 37.7446 10.1602C37.0528 10.1602 36.492 9.59472 36.492 8.89728C36.492 8.19982 37.0528 7.63431 37.7446 7.63431ZM38.0061 8.95383C38.2679 8.95383 38.4921 8.72761 38.4921 8.46373C38.4921 8.19982 38.2679 7.97362 38.0061 7.97362C37.7446 7.97362 37.5202 8.19982 37.5202 8.46373C37.5013 8.72761 37.7258 8.95383 38.0061 8.95383ZM38.6043 5.73045C38.6043 5.95664 38.6791 6.164 38.8473 6.3525L38.9035 6.40905L38.9221 6.33365C38.9969 5.91895 39.4269 5.59849 39.9314 5.59849C40.4362 5.59849 40.8662 5.91895 40.941 6.33365L40.9596 6.40905L41.0158 6.3525C41.1652 6.164 41.2588 5.95664 41.2588 5.73045C41.2588 5.12725 40.6606 4.63714 39.9503 4.63714C39.2025 4.63714 38.6043 5.12725 38.6043 5.73045ZM36.0808 8.55797C36.0808 8.65223 35.8564 10.8388 34.8471 11.6117L34.5667 11.9321C34.8657 12.9124 35.3331 13.5533 35.819 13.6664H35.8378C37.2398 13.9868 40.5858 14.4392 41.8008 11.6494L41.6514 11.4797L41.5766 11.4043C41.3336 11.197 40.8848 10.82 40.6418 10.6315C40.4924 10.5184 40.3988 10.443 40.324 10.3676C40.2492 10.2922 39.5203 9.53817 39.4269 8.76533C39.3895 8.52027 39.1651 7.2573 37.9128 7.14421C36.8472 7.0688 36.193 7.93591 36.0808 8.55797ZM34.2115 5.73045C34.2115 5.95664 34.2863 6.164 34.4545 6.3525L34.5105 6.40905L34.5293 6.33365C34.6041 5.91895 35.0339 5.59849 35.5386 5.59849C36.0434 5.59849 36.4734 5.91895 36.5482 6.33365L36.5668 6.40905L36.6228 6.3525C36.7912 6.164 36.8658 5.95664 36.8658 5.73045C36.8658 5.12725 36.2864 4.63714 35.5575 4.63714C34.7909 4.63714 34.2115 5.12725 34.2115 5.73045ZM42.1748 12.6296V12.5165C42.156 12.3469 42.0812 12.1206 41.9692 11.8944C41.0718 14.0811 38.9783 14.8162 35.7442 14.0622H35.7256C35.0901 13.9114 34.7349 13.4213 34.3797 12.1772C34.0993 12.6485 33.9123 13.1951 33.9123 13.6664V13.7606C33.9311 13.968 34.0245 15.0613 34.9593 15.6268C37.2772 16.9651 40.081 16.3242 41.24 14.8916C41.8196 14.1376 42.1748 13.2705 42.1748 12.6296ZM39.2025 30.443L39.5765 31.7248L40.6044 31.5362L40.2492 30.3298C39.8755 30.4053 39.5203 30.443 39.2025 30.443ZM40.5484 30.2734L40.9222 31.4985L41.8756 31.3289L41.4084 29.9717C41.184 30.0848 40.8848 30.1979 40.5484 30.2734ZM39.6699 32.083L39.9688 33.2706L41.0158 33.0821L40.698 31.8944L39.6699 32.083ZM41.0158 31.8379L41.3336 33.0254L42.343 32.8558L41.9878 31.6683L41.0158 31.8379ZM40.0436 33.6286L40.3614 35.1179L41.4456 34.9481L41.1092 33.459L40.0436 33.6286ZM41.427 33.3835L41.7634 34.8917L42.8289 34.7221L42.4363 33.2139L41.427 33.3835ZM40.4176 35.4571L40.6418 36.9463L41.7634 36.8144L41.5018 35.2875L40.4176 35.4571ZM41.8382 35.2309L42.1 36.7767L43.2215 36.6448L42.9037 35.0613L41.8382 35.2309ZM40.698 37.3045L40.8288 38.8126L41.9878 38.6994L41.8382 37.1726L40.698 37.3045ZM42.1559 37.1349L42.3055 38.6805L43.4645 38.5673L43.2775 37.0027L42.1559 37.1349ZM40.8288 39.1705L40.8102 40.7918L42.0066 40.7541L41.9878 39.0576L40.8288 39.1705ZM42.3244 39.0199L42.343 40.7541L43.5207 40.7163L43.5019 38.9067L42.3244 39.0199ZM40.7914 41.1687L40.6232 42.6578H41.8382L42.0066 41.1122L40.7914 41.1687ZM42.3244 41.1122L42.1559 42.6578H43.3149L43.5019 41.0555L42.3244 41.1122ZM40.2121 44.411L41.427 44.4297L41.7634 43.016L40.5484 42.9973L40.2121 44.411ZM41.7634 44.4487L42.8851 44.4674L43.2589 43.016H42.1L41.7634 44.4487ZM40.0999 44.7879L39.5391 46.2018H40.754L41.2962 44.8069L40.0999 44.7879ZM41.6514 44.8256L41.1092 46.2206H42.1559L42.7355 44.8633L41.6514 44.8256ZM38.5857 47.917C38.7165 47.917 39.7633 47.917 39.7633 47.917C40.0625 47.4834 40.3428 47.0311 40.5858 46.5598H39.3707C39.1277 47.0311 38.8661 47.5024 38.5857 47.917ZM40.1558 47.936C40.268 47.936 41.0906 47.936 41.0906 47.936C41.4084 47.5024 41.7262 47.0501 41.9878 46.5598C41.8756 46.5598 40.9596 46.5598 40.9596 46.5598C40.7166 47.0501 40.4362 47.5024 40.1558 47.936ZM37.4828 49.3307C37.6324 49.3307 38.5857 49.3307 38.5857 49.3307C38.9035 49.0103 39.2025 48.6523 39.4829 48.2942C39.3521 48.2942 38.3613 48.2942 38.3239 48.2942C38.0624 48.6523 37.7632 49.0103 37.4828 49.3307ZM39.0343 49.3307C39.1651 49.3307 39.8381 49.3307 39.8381 49.3307C40.1747 49.0103 40.4924 48.6523 40.7914 48.2942C40.6606 48.2942 39.9129 48.2942 39.8755 48.2942C39.6325 48.6523 39.3333 49.0103 39.0343 49.3307ZM36.2116 50.5184C36.3986 50.5184 37.221 50.4807 37.221 50.4807C37.352 50.3865 37.7258 50.1415 38.2117 49.7079C38.0624 49.7079 37.165 49.7079 37.1276 49.7079C36.735 50.0848 36.4172 50.3488 36.2116 50.5184ZM37.8006 50.4619C37.9687 50.4619 38.4735 50.443 38.4735 50.443C38.5669 50.3675 38.9409 50.1225 39.4455 49.7079C39.2961 49.7079 38.6791 49.7079 38.6791 49.7079C38.3987 49.9906 38.0995 50.2357 37.8006 50.4619ZM38.0809 25.4101L37.8939 27.5778C37.8565 27.9547 38.0995 28.5392 38.4361 28.7653C38.7725 28.9915 39.2773 29.048 39.8569 28.9351C40.7914 28.7653 41.0158 28.3319 41.0158 27.8793C41.0158 27.5589 40.9222 27.2951 40.6792 26.9557L39.3333 25.1838L38.0809 25.4101ZM40.6418 27.8793C40.6418 28.0491 40.6418 28.3506 40.0251 28.5202L39.6137 27.3893L40.4176 27.2574C40.567 27.4834 40.6418 27.672 40.6418 27.8793ZM38.4173 25.7305L38.6231 25.6928L39.1465 27.1442L38.2865 27.2951C38.3427 26.7106 38.4173 25.7305 38.4173 25.7305ZM40.1932 26.9557L39.5017 27.0688L38.9783 25.6174L39.1465 25.5797L40.1932 26.9557ZM38.2491 27.6343L39.2587 27.4647L39.6699 28.5957C39.2399 28.6711 38.8661 28.6146 38.6231 28.4638C38.4173 28.3319 38.2491 27.8983 38.2491 27.6343ZM29.2205 5.71159C29.2017 5.78699 29.2765 5.90009 29.3699 5.91895C29.4073 5.93781 29.7999 6.0509 29.7999 6.67296C29.7999 6.7672 29.8747 6.84261 29.9495 6.86146C30.0429 6.8803 30.1365 6.82375 30.1551 6.72951C30.1551 6.72951 30.3795 6.10745 30.7347 5.9755C30.9588 5.88126 30.8281 5.54194 30.6037 5.61735C30.4169 5.69275 30.2485 5.82471 30.0991 6.0509L30.0617 6.10745L30.0429 6.0509C29.8933 5.73045 29.6317 5.57963 29.4635 5.54194C29.3325 5.52309 29.2577 5.57966 29.2205 5.71159ZM45.8946 4.26014C45.4272 4.35438 45.1282 4.54288 44.9974 4.84448L44.9786 4.90103L44.9412 4.86334C44.6982 4.58059 44.5301 4.4675 44.5301 4.4675C44.4367 4.41093 44.3245 4.42978 44.2683 4.52405C44.2123 4.61829 44.2309 4.73138 44.3245 4.78793C44.3245 4.78793 44.6608 5.03298 45.0534 5.63621C45.1094 5.73045 45.2216 5.7493 45.3152 5.69275C45.4086 5.63621 45.4272 5.52309 45.39 5.42885C45.3712 5.40999 45.2778 5.18379 45.3712 4.99529C45.446 4.82565 45.6704 4.69369 46.0068 4.63714C46.1002 4.61829 46.175 4.52405 46.1564 4.41093C46.1002 4.31669 45.9882 4.24128 45.8946 4.26014ZM27.725 30.952C26.0239 33.5721 25.4445 35.7399 25.2201 37.6814C24.9957 39.5854 25.5005 41.8473 25.5565 42.0923C25.6313 42.4505 25.5379 42.771 25.4445 42.8277C25.4071 42.8464 25.3323 42.8464 25.2949 42.8277C25.2575 42.7333 25.2389 42.6578 25.2015 42.5637C25.1453 42.3751 25.0705 42.1867 25.0331 41.9792C25.0145 41.8286 24.8649 41.7531 24.7341 41.7719C24.6033 41.8096 24.5097 41.9415 24.5285 42.0736C24.5659 42.2997 24.8463 43.0537 24.8649 43.2046C24.9771 43.8455 24.9023 44.2978 24.6593 44.2978C24.0797 44.2978 23.519 44.1659 23.1264 43.8078C21.7806 42.5072 21.5189 38.1717 21.6497 36.7767L20.9955 37.3232C20.9955 37.3232 21.0329 32.0265 23.8368 27.4457L22.4909 28.1243C22.4909 28.1243 23.5004 24.3543 28.1736 20.6975L26.865 20.8671C26.865 20.8671 29.8559 18.5485 30.3047 12.9501L29.3699 13.3082C29.3699 13.3082 30.0243 11.4986 30.0055 10.3864L29.1457 10.7069C29.1457 10.7069 29.2951 9.36853 29.7439 8.08672C29.7439 8.08672 27.1642 7.93591 27.7624 5.5608C28.4166 3.03488 31.1832 4.80679 31.1832 4.80679C31.1832 4.80679 33.4452 0.433554 37.8006 0C37.8006 0 37.3332 0.358153 37.5014 1.18756C37.5014 1.18756 38.5669 -0.0376992 39.6699 0.113102C39.6699 0.113102 39.1651 0.565506 39.1651 1.09331C39.1651 1.09331 40.8102 0.414704 41.67 0.96136C41.67 0.96136 41.2214 1.22526 41.1092 1.48916C41.1092 1.48916 42.6421 2.28087 43.6515 3.88313C43.6515 3.88313 46.4928 1.97927 47.5209 4.27899C48.5491 6.5787 45.7078 6.86146 45.7078 6.86146C45.7078 6.86146 46.7546 8.049 47.0161 10.5938L46.2498 10.2733C46.2498 10.2733 46.3432 12.0829 46.8294 13.4402L46.0628 13.4025C46.0628 13.4025 46.3246 14.4769 46.9042 15.5137L46.2312 15.2875C46.2312 15.2875 46.6238 17.7003 47.3901 18.5863C48.1379 19.4722 49.1473 20.3582 49.5958 20.9425L48.8107 20.9614C48.8107 20.9614 51.297 23.4306 52.2877 25.5609L51.5214 25.3911C51.5214 25.3911 54.643 28.6523 53.5963 34.9104C53.2971 34.0999 52.7923 32.9125 52.1195 31.8567C52.2503 31.8567 52.7923 31.819 52.7923 31.819C52.7923 31.819 52.3437 30.5749 49.8388 28.1433C49.9884 28.1056 50.6054 27.9925 50.6054 27.9925C50.6054 27.9925 48.8855 26.0697 47.7827 24.6183C47.1846 23.8455 46.5864 23.1291 46.1564 22.3374C46.0816 22.2055 45.9134 22.1678 45.8012 22.2432C45.7264 22.2997 45.633 22.4694 45.7078 22.6013C46.2498 23.525 46.6798 24.1659 47.3713 25.0519C48.2125 26.1264 49.1284 27.163 49.5958 27.672C49.4088 27.7097 48.7361 27.8416 48.7361 27.8416C48.7361 27.8416 50.8484 29.6889 51.9325 31.3666L51.1662 31.4233C51.1662 31.4233 52.6055 33.1575 53.8204 37.3045L53.2223 36.9463C53.2223 36.9463 54.1008 40.8482 52.9233 44.0528L52.4559 43.5061C52.4559 43.5061 51.3718 49.8775 44.6049 51.7815C44.6049 51.7815 44.3619 54.8352 47.6705 55.8907C50.9978 56.9463 52.6615 57.6439 53.5589 58.5109C53.5589 58.5109 51.8018 61.0745 48.9417 60.1319C46.0816 59.1895 41.9878 59.6418 41.9878 59.6418C41.9878 59.6418 39.0343 59.9435 38.6791 56.7577L38.4361 53.704C38.4361 53.704 40.8662 53.2894 41.3148 52.837C41.4456 52.7049 41.371 52.592 41.2774 52.6297C40.3428 52.8558 36.1742 53.5157 33.4825 52.5353C33.2581 52.4599 33.2767 52.573 33.3329 52.6862C33.4637 52.8935 33.9123 53.3083 35.3705 53.6286L35.2957 55.0802C35.2957 55.0802 34.9593 59.7173 29.2577 59.9246C29.2577 59.9246 27.7062 60.0944 26.2483 60.3959C24.7715 60.7163 23.463 60.6599 21.5189 60.019C21.5189 60.019 22.547 58.5673 25.4819 57.1159C28.4165 55.6645 29.5569 53.9303 28.6221 50.3488L27.8746 51.0651C27.8746 51.0651 26.2668 49.6889 25.4071 47.691L25.1453 48.4638C25.1453 48.4638 24.1359 46.8615 23.5564 44.656C24.3601 44.8633 24.8275 44.9765 25.2201 44.5995C25.5005 44.2978 25.4631 43.7323 25.4257 43.3742C25.8371 43.3554 26.2857 42.8277 26.0801 41.9792C26.0239 41.7342 25.5379 39.5664 25.7623 37.7381C25.9491 36.1922 26.4353 33.9867 28.1924 31.2535C29.6503 28.9538 31.258 26.541 31.2954 22.4694C31.2954 22.3186 31.1832 22.2055 31.0336 22.2055C30.884 22.2055 30.7718 22.3186 30.7718 22.4694C30.7159 26.3714 29.1643 28.7275 27.725 30.952ZM38.6791 21.5646L36.6042 21.885L36.9968 23.6569L39.3521 23.28L38.6791 21.5646ZM37.221 24.5995L36.9594 27.5024C36.9032 28.1621 37.2398 29.1234 37.9313 29.576C38.4735 29.9339 39.2025 30.0471 40.0436 29.8965C41.7074 29.576 41.9504 28.5015 41.9504 27.8983C41.9504 27.3515 41.7822 26.8802 41.4084 26.3902L39.7073 24.1659L37.221 24.5995Z" fill="#D0033F"/>
</g>
<defs>
<clipPath id="clip0_1614_1208">
<rect width="272" height="80" fill="white"/>
</clipPath>
</defs>
</svg>
