<svg width="204.000000" height="60.000000" viewBox="0 0 204 60" fill="none" xmlns="http://www.w3.org/2000/svg" xmlns:xlink="http://www.w3.org/1999/xlink">
	<desc>
			Created with Pixso.
	</desc>
	<defs>
		<clipPath id="clip547_4014">
			<rect id="Group_106 1" width="204.000000" height="60.000000" fill="white" fill-opacity="0"/>
		</clipPath>
	</defs>
	<rect id="Group_106 1" width="204.000000" height="60.000000" fill="#FFFFFF" fill-opacity="0"/>
	<g clip-path="url(#clip547_4014)">
		<path id="Vector" d="M72.898 15.7188L78.951 31.8303L85.0043 15.7188L89.9169 15.7188L89.9169 36.8523L86.1446 36.8523L86.1446 30.074L86.5247 20.5522L80.2817 36.8523L77.6207 36.8523L71.392 20.5522L71.7575 30.074L71.7575 36.8523L68 36.8523L68 15.7188L72.898 15.7188Z" fill="#FFFFFF" fill-opacity="1.000000" fill-rule="nonzero"/>
		<path id="Vector" d="M96.2624 36.8523L92.3002 36.8523L100.312 15.7188L103.734 15.7188L111.775 36.8523L107.813 36.8523L106.132 32.019L97.9438 32.019L96.2624 36.8523ZM98.9965 29L105.064 29L102.023 20.2908L98.9965 29Z" fill="#FFFFFF" fill-opacity="1.000000" fill-rule="nonzero"/>
		<path id="Vector" d="M125.3 31.395C125.3 30.8242 125.178 30.3354 124.934 29.929C124.69 29.5227 124.242 29.1501 123.589 28.8115C122.946 28.4727 122.01 28.1147 120.782 27.7373C119.437 27.3311 118.233 26.8518 117.17 26.3003C116.118 25.739 115.284 25.052 114.67 24.2393C114.056 23.4263 113.749 22.4346 113.749 21.2637C113.749 20.1218 114.071 19.1106 114.714 18.23C115.357 17.3496 116.249 16.6626 117.39 16.1689C118.53 15.6755 119.851 15.4287 121.352 15.4287C122.941 15.4287 124.31 15.719 125.461 16.2996C126.62 16.8706 127.507 17.6445 128.122 18.6218C128.745 19.5994 129.057 20.688 129.057 21.8877L125.285 21.8877C125.285 20.8816 124.959 20.0542 124.305 19.4058C123.662 18.7478 122.663 18.4187 121.308 18.4187C120.031 18.4187 119.081 18.6946 118.457 19.2461C117.833 19.7881 117.521 20.4604 117.521 21.2637C117.521 22.0378 117.892 22.686 118.633 23.2087C119.383 23.7217 120.519 24.2004 122.039 24.6458C124.408 25.3425 126.172 26.2134 127.332 27.2583C128.492 28.2937 129.072 29.6628 129.072 31.366C129.072 33.1562 128.38 34.5691 126.996 35.6042C125.621 36.6301 123.779 37.1431 121.469 37.1431C120.446 37.1431 119.437 37.0076 118.442 36.7366C117.448 36.4561 116.547 36.0398 115.738 35.4883C114.938 34.927 114.295 34.2256 113.808 33.3835C113.33 32.5417 113.091 31.5498 113.091 30.4082L116.863 30.4082C116.863 31.7532 117.307 32.7158 118.194 33.2966C119.081 33.8772 120.173 34.1675 121.469 34.1675C122.736 34.1675 123.691 33.9109 124.335 33.3982C124.978 32.8757 125.3 32.208 125.3 31.395Z" fill="#FFFFFF" fill-opacity="1.000000" fill-rule="nonzero"/>
		<path id="Vector" d="M148.605 29.9436C148.479 31.3369 148.084 32.5757 147.421 33.6594C146.758 34.7432 145.828 35.5947 144.629 36.2141C143.43 36.8333 141.963 37.1431 140.228 37.1431C138.473 37.1431 136.953 36.7366 135.666 35.9236C134.379 35.1011 133.385 33.9402 132.683 32.4402C131.981 30.9402 131.63 29.1694 131.63 27.1277L131.63 25.4585C131.63 23.4167 131.986 21.646 132.698 20.146C133.409 18.6462 134.418 17.4851 135.724 16.6626C137.04 15.8401 138.59 15.4287 140.374 15.4287C142.08 15.4287 143.517 15.7432 144.687 16.3721C145.866 16.9915 146.778 17.8528 147.421 18.9558C148.074 20.0493 148.469 21.3071 148.605 22.7297L144.848 22.7297C144.702 21.3848 144.297 20.3396 143.634 19.5945C142.981 18.8494 141.894 18.4768 140.374 18.4768C138.726 18.4768 137.489 19.0767 136.66 20.2766C135.841 21.467 135.432 23.1846 135.432 25.4294L135.432 27.1277C135.432 29.2664 135.807 30.9644 136.558 32.2224C137.308 33.4707 138.532 34.095 140.228 34.095C141.777 34.095 142.889 33.7415 143.561 33.0354C144.243 32.3193 144.667 31.2886 144.833 29.9436L148.605 29.9436Z" fill="#FFFFFF" fill-opacity="1.000000" fill-rule="nonzero"/>
		<path id="Vector" d="M168.914 26.8374C168.914 28.9758 168.544 30.8145 167.803 32.353C167.062 33.8916 166.029 35.0769 164.703 35.9092C163.378 36.7317 161.833 37.1431 160.068 37.1431C158.333 37.1431 156.793 36.7317 155.448 35.9092C154.113 35.0769 153.065 33.8916 152.305 32.353C151.554 30.8145 151.179 28.9758 151.179 26.8374L151.179 25.7488C151.179 23.6104 151.554 21.7717 152.305 20.2332C153.055 18.6946 154.098 17.5093 155.433 16.677C156.769 15.8447 158.304 15.4287 160.039 15.4287C161.803 15.4287 163.348 15.8447 164.674 16.677C166.009 17.5093 167.047 18.6946 167.788 20.2332C168.539 21.7717 168.914 23.6104 168.914 25.7488L168.914 26.8374ZM165.127 25.7197C165.127 23.3779 164.679 21.5977 163.782 20.3784C162.895 19.1494 161.647 18.5349 160.039 18.5349C158.46 18.5349 157.222 19.1494 156.325 20.3784C155.429 21.5977 154.98 23.3779 154.98 25.7197L154.98 26.8374C154.98 29.1694 155.433 30.9548 156.34 32.1934C157.246 33.4319 158.489 34.0513 160.068 34.0513C161.686 34.0513 162.934 33.4319 163.811 32.1934C164.689 30.9548 165.127 29.1694 165.127 26.8374L165.127 25.7197Z" fill="#FFFFFF" fill-opacity="1.000000" fill-rule="nonzero"/>
		<path id="Vector" d="M180.361 36.8523L176.62 36.8523L176.62 18.7378L170.039 18.7378L170.039 15.7188L187 15.7188L187 18.7378L180.361 18.7378L180.361 36.8523Z" fill="#FFFFFF" fill-opacity="1.000000" fill-rule="nonzero"/>
		<path id="Vector" d="M189.266 19.9839C189.266 18.8511 189.456 17.8 189.837 16.8311C190.225 15.8621 190.754 15.0176 191.423 14.2979C192.102 13.571 192.884 13.0083 193.769 12.6091C194.662 12.2031 195.616 12 196.632 12C197.649 12 198.601 12.2031 199.487 12.6091C200.379 13.0083 201.159 13.571 201.831 14.2979C202.509 15.0176 203.038 15.8621 203.419 16.8311C203.806 17.8 204 18.8511 204 19.9839C204 21.1169 203.806 22.168 203.419 23.137C203.038 24.106 202.509 24.9575 201.831 25.6914C201.159 26.4182 200.379 26.9846 199.487 27.3909C198.601 27.7969 197.649 28 196.632 28C195.616 28 194.662 27.7969 193.769 27.3909C192.884 26.9846 192.102 26.4182 191.423 25.6914C190.754 24.9575 190.225 24.106 189.837 23.137C189.456 22.168 189.266 21.1169 189.266 19.9839ZM190.51 19.9839C190.51 20.9316 190.67 21.8118 190.988 22.624C191.306 23.4363 191.746 24.1453 192.306 24.751C192.867 25.3564 193.516 25.8303 194.257 26.1724C194.997 26.5144 195.789 26.6855 196.632 26.6855C197.477 26.6855 198.269 26.5144 199.009 26.1724C199.748 25.8303 200.399 25.3564 200.959 24.751C201.52 24.1453 201.955 23.4363 202.266 22.624C202.586 21.8118 202.744 20.9316 202.744 19.9839C202.744 19.0364 202.586 18.1599 202.266 17.3547C201.955 16.5425 201.52 15.8335 200.959 15.2278C200.399 14.6221 199.748 14.1519 199.009 13.8169C198.269 13.4822 197.477 13.3147 196.632 13.3147C195.789 13.3147 194.997 13.4822 194.257 13.8169C193.516 14.1519 192.867 14.6221 192.306 15.2278C191.746 15.8335 191.306 16.5425 190.988 17.3547C190.67 18.1599 190.51 19.0364 190.51 19.9839ZM199.952 21.3948C199.952 22.5205 199.641 23.3613 199.019 23.9172C198.404 24.4729 197.56 24.751 196.488 24.751C195.381 24.751 194.502 24.3696 193.853 23.6072C193.202 22.8447 192.877 21.8472 192.877 20.6147L192.877 19.364C192.877 18.1384 193.202 17.1445 193.853 16.3821C194.502 15.6125 195.381 15.2278 196.488 15.2278C197.56 15.2278 198.407 15.5093 199.029 16.0723C199.651 16.6279 199.963 17.4614 199.963 18.573L198.387 18.573C198.387 17.8821 198.223 17.3867 197.899 17.0874C197.581 16.7883 197.11 16.6387 196.488 16.6387C195.816 16.6387 195.308 16.8916 194.963 17.3975C194.616 17.9033 194.444 18.5552 194.444 19.3535L194.444 20.6147C194.444 21.4197 194.616 22.0752 194.963 22.5813C195.308 23.0798 195.816 23.3293 196.488 23.3293C197.11 23.3293 197.581 23.1833 197.899 22.8911C198.217 22.5989 198.376 22.1003 198.376 21.3948L199.952 21.3948Z" fill="#FFFFFF" fill-opacity="1.000000" fill-rule="nonzero"/>
		<path id="Vector" d="M75.9857 41.9587L78.6138 41.9587L81.8959 55.3306L84.5724 41.9587L87.6849 41.9587L83.6398 59.7554L80.588 59.7554L77.3058 46.8601L73.9633 59.7554L70.9233 59.7554L66.8661 41.9587L69.9786 41.9587L72.6794 55.2939L75.9857 41.9587Z" fill="#FFFFFF" fill-opacity="1.000000" fill-rule="nonzero"/>
		<path id="Vector" d="M104.023 51.3215C104.023 53.1223 103.716 54.6707 103.102 55.9663C102.489 57.262 101.633 58.2603 100.535 58.9609C99.4368 59.6536 98.157 60 96.6957 60C95.2585 60 93.9827 59.6536 92.8685 58.9609C91.7625 58.2603 90.8945 57.262 90.2646 55.9663C89.6429 54.6707 89.3322 53.1223 89.3322 51.3215L89.3322 50.405C89.3322 48.604 89.6429 47.0557 90.2646 45.76C90.8863 44.4644 91.7502 43.4661 92.8564 42.7654C93.9626 42.0647 95.2342 41.7144 96.6714 41.7144C98.1329 41.7144 99.4125 42.0647 100.511 42.7654C101.617 43.4661 102.477 44.4644 103.09 45.76C103.712 47.0557 104.023 48.604 104.023 50.405L104.023 51.3215ZM100.886 50.3804C100.886 48.4084 100.515 46.9092 99.7719 45.8823C99.0371 44.8474 98.0037 44.3301 96.6714 44.3301C95.3634 44.3301 94.338 44.8474 93.5952 45.8823C92.8524 46.9092 92.4811 48.4084 92.4811 50.3804L92.4811 51.3215C92.4811 53.2854 92.8564 54.7888 93.6073 55.8318C94.3582 56.875 95.3876 57.3965 96.6957 57.3965C98.0359 57.3965 99.0694 56.875 99.796 55.8318C100.523 54.7888 100.886 53.2854 100.886 51.3215L100.886 50.3804Z" fill="#FFFFFF" fill-opacity="1.000000" fill-rule="nonzero"/>
		<path id="Vector" d="M113.263 41.9587C115.282 41.9587 116.852 42.4148 117.975 43.3276C119.097 44.2402 119.658 45.5725 119.658 47.3247C119.658 48.5305 119.367 49.5369 118.786 50.3438C118.213 51.1504 117.426 51.7698 116.424 52.2017L120.36 59.5964L120.36 59.7554L117.018 59.7554L113.506 52.947L110.127 52.947L110.127 59.7554L107.002 59.7554L107.002 41.9587L113.263 41.9587ZM113.263 44.501L110.127 44.501L110.127 50.417L113.288 50.417C114.362 50.417 115.169 50.144 115.71 49.5981C116.251 49.0439 116.521 48.3433 116.521 47.4956C116.521 46.583 116.259 45.8579 115.734 45.3198C115.209 44.7742 114.386 44.501 113.263 44.501Z" fill="#FFFFFF" fill-opacity="1.000000" fill-rule="nonzero"/>
		<path id="Vector" d="M125.726 59.7554L122.601 59.7554L122.601 41.9587L125.726 41.9587L125.726 50.3069L127.433 48.1313L132.496 41.9587L136.311 41.9587L129.795 49.8425L136.638 59.7554L132.92 59.7554L127.724 52.1404L125.726 54.2795L125.726 59.7554Z" fill="#FFFFFF" fill-opacity="1.000000" fill-rule="nonzero"/>
		<path id="Vector" d="M146.181 41.9587L148.809 41.9587L152.091 55.3306L154.768 41.9587L157.881 41.9587L153.835 59.7554L150.783 59.7554L147.501 46.8601L144.159 59.7554L141.119 59.7554L137.062 41.9587L140.174 41.9587L142.875 55.2939L146.181 41.9587Z" fill="#FFFFFF" fill-opacity="1.000000" fill-rule="nonzero"/>
		<path id="Vector" d="M171.663 59.7554L160.097 59.7554L160.097 41.9587L171.603 41.9587L171.603 44.501L163.221 44.501L163.221 49.3413L170.44 49.3413L170.44 51.835L163.221 51.835L163.221 57.2253L171.663 57.2253L171.663 59.7554Z" fill="#FFFFFF" fill-opacity="1.000000" fill-rule="nonzero"/>
		<path id="Vector" d="M175.829 59.7554L172.547 59.7554L179.183 41.9587L182.017 41.9587L188.68 59.7554L185.397 59.7554L184.005 55.6853L177.222 55.6853L175.829 59.7554ZM178.094 53.1428L183.121 53.1428L180.601 45.8088L178.094 53.1428Z" fill="#FFFFFF" fill-opacity="1.000000" fill-rule="nonzero"/>
		<path id="Vector" d="M196.902 41.9587C198.92 41.9587 200.491 42.4148 201.613 43.3276C202.735 44.2402 203.296 45.5725 203.296 47.3247C203.296 48.5305 203.005 49.5369 202.424 50.3438C201.851 51.1504 201.064 51.7698 200.063 52.2017L204 59.5964L204 59.7554L200.656 59.7554L197.144 52.947L193.766 52.947L193.766 59.7554L190.641 59.7554L190.641 41.9587L196.902 41.9587ZM196.902 44.501L193.766 44.501L193.766 50.417L196.926 50.417C198.001 50.417 198.808 50.144 199.349 49.5981C199.889 49.0439 200.16 48.3433 200.16 47.4956C200.16 46.583 199.898 45.8579 199.373 45.3198C198.847 44.7742 198.024 44.501 196.902 44.501Z" fill="#FFFFFF" fill-opacity="1.000000" fill-rule="nonzero"/>
		<path id="Vector" d="M53.6434 48.7891L48.1617 48.7891C47.671 48.8174 46.8579 49.1001 46.8579 50.0896C46.8579 51.0793 47.6571 51.3762 48.1477 51.3904L49.3955 51.3904C49.5216 51.3904 49.6197 51.4895 49.6197 51.6167L49.6197 58.6289C49.6197 59.2227 49.9561 59.9294 50.8815 59.9294C51.877 59.9294 52.1573 59.1235 52.1714 58.6289L52.1714 51.5884C52.1714 51.4612 52.2695 51.3621 52.3956 51.3621L53.6293 51.3621C54.106 51.3479 54.9193 51.0793 54.9193 50.0757C54.9332 48.874 53.7837 48.7891 53.6434 48.7891Z" fill="#FFFFFF" fill-opacity="1.000000" fill-rule="nonzero"/>
		<path id="Vector" d="M21.9144 58.3455L20.0216 50.7961C20.0076 50.7114 19.5168 48.8169 17.5262 48.8169C15.5213 48.8169 15.0586 50.7114 15.0446 50.782L13.18 58.3174C13.0818 58.7981 13.166 59.6746 14.1193 59.9148C15.0306 60.1411 15.5353 59.5474 15.6755 58.9678L15.8858 58.2041C15.9138 58.1052 15.998 58.0347 16.1101 58.0347L19.0262 58.0347C19.1243 58.0347 19.2226 58.1052 19.2505 58.2183L19.4329 58.9817C19.4749 59.1233 19.8535 60.24 21.003 59.9431C21.9283 59.6746 22.0125 58.812 21.9144 58.3455ZM18.4234 55.3625C18.3813 55.4192 18.3112 55.4475 18.2412 55.4475L16.769 55.4475C16.6989 55.4475 16.6288 55.4192 16.5868 55.3625C16.5447 55.3059 16.5307 55.2354 16.5447 55.1646L17.2878 52.1958C17.3159 52.0969 17.4 52.0261 17.5121 52.0261C17.6103 52.0261 17.7084 52.0969 17.7365 52.1958L18.4654 55.1646C18.4934 55.2354 18.4654 55.3059 18.4234 55.3625Z" fill="#FFFFFF" fill-opacity="1.000000" fill-rule="nonzero"/>
		<path id="Vector" d="M44.1252 48.8032L41.2932 48.8032C41.1809 48.8032 38.5172 48.8455 38.5172 51.6025L38.5172 57.1304C38.5172 57.2434 38.5874 59.9294 41.2932 59.9294L44.1393 59.9294C44.1813 59.9294 45.373 59.9436 46.1721 59.1804C46.6628 58.6997 46.9011 58.0068 46.9011 57.1304L46.9011 51.6025C46.9011 51.4893 46.845 48.8032 44.1252 48.8032ZM44.3496 52.1255L44.3496 56.5649C44.3496 57.0029 44.013 57.3425 43.5924 57.3425L41.8259 57.3425C41.3914 57.3425 41.0689 57.0029 41.0689 56.5649L41.0689 52.1255C41.0689 51.6873 41.3773 51.3765 41.8259 51.3765L43.5924 51.3765C44.0271 51.3765 44.3496 51.7014 44.3496 52.1255Z" fill="#FFFFFF" fill-opacity="1.000000" fill-rule="nonzero"/>
		<path id="Vector" d="M24.8734 51.376L27.5371 51.376C27.6633 51.376 27.7614 51.4749 27.7614 51.6023C27.7614 51.7434 27.8175 52.4929 28.6308 52.6909L28.6586 52.6909C28.7708 52.7192 28.897 52.7332 29.0233 52.7332C29.9625 52.7332 30.3131 52.0405 30.3131 51.4465L30.3131 51.0366C30.3131 48.9019 28.3503 48.8313 28.14 48.8313L24.2986 48.8313C22.1675 48.8313 22.0975 50.8247 22.0975 51.0508L22.0975 53.4824C22.0975 55.0095 23.135 55.4758 23.7517 55.6172C23.7659 55.6172 23.7798 55.6313 23.7798 55.6313L23.822 55.6455C24.0742 55.7021 24.2565 55.7021 24.2986 55.7021L27.5511 55.7021C27.6774 55.7021 27.7755 55.801 27.7755 55.9282L27.7755 57.1299C27.7755 57.2571 27.6774 57.3562 27.5511 57.3562L24.8734 57.3562C24.7473 57.3562 24.649 57.2571 24.649 57.1299C24.649 56.9885 24.607 56.2959 23.7939 56.1121L23.7098 56.0979L23.3733 56.0696C22.448 56.0696 22.0975 56.7483 22.0834 57.3279L22.0834 57.7378C22.0834 59.887 24.0323 59.9575 24.2565 59.9575L28.126 59.9575C30.2289 59.9575 30.299 57.9924 30.299 57.7661L30.299 55.3203C30.299 53.7371 29.2195 53.2988 28.5746 53.1716L28.5186 53.1572C28.3083 53.115 28.1541 53.115 28.126 53.115L24.8593 53.115C24.7332 53.115 24.6351 53.0161 24.6351 52.8887L24.6351 51.6306C24.649 51.4749 24.7473 51.376 24.8734 51.376Z" fill="#FFFFFF" fill-opacity="1.000000" fill-rule="nonzero"/>
		<path id="Vector" d="M37.0703 57.3418L34.1122 57.3418C33.6635 57.3418 33.3691 57.0308 33.3691 56.5784L33.3691 52.1392C33.3691 51.6584 33.6355 51.3899 34.1122 51.3899L37.0703 51.3899C37.659 51.3899 38.3601 51.0505 38.3601 50.1174C38.3601 48.8875 37.1965 48.8169 37.0703 48.8169L33.5933 48.8169C33.4811 48.8169 30.8174 48.8733 30.8174 51.6162L30.8174 57.1299C30.8174 57.2427 30.8876 59.929 33.5933 59.929L37.0703 59.929C37.6732 59.9148 38.3601 59.5757 38.3601 58.6426C38.346 57.6387 37.547 57.3418 37.0703 57.3418Z" fill="#FFFFFF" fill-opacity="1.000000" fill-rule="nonzero"/>
		<path id="Vector" d="M9.28403 48.7747C8.31665 48.7747 7.57361 49.0715 7.02682 49.5098C6.48007 49.0715 5.737 48.7747 4.76965 48.7747C2.16196 48.7747 1.20862 50.9236 1.20862 52.3655L1.20862 58.6711C1.20862 59.4062 1.79745 60 2.51245 60C3.24149 60 3.81631 59.4062 3.81631 58.6711L3.81631 52.3799C3.84433 51.7437 4.15277 51.4185 4.75562 51.4185C5.35846 51.4185 5.68094 51.7437 5.69495 52.3799L5.69495 58.6567C5.69495 59.3921 6.28378 59.9858 6.99878 59.9858C7.72784 59.9858 8.31665 59.3921 8.31665 58.6567L8.31665 52.3799C8.33066 51.7437 8.65314 51.4185 9.25598 51.4185C9.85883 51.4185 10.1813 51.7437 10.1953 52.3799L10.1953 58.6711C10.1953 59.4062 10.7841 60 11.4991 60C12.2142 60 12.803 59.4062 12.803 58.6711L12.803 52.3655C12.8451 50.9094 11.8917 48.7747 9.28403 48.7747Z" fill="#FFFFFF" fill-opacity="1.000000" fill-rule="nonzero"/>
		<path id="Vector" d="M28.3084 5.72583C28.8271 5.72583 29.2477 6.1499 29.2477 6.67285C29.2477 7.19604 28.8271 7.62012 28.3084 7.62012C27.7896 7.62012 27.369 7.19604 27.369 6.67285C27.369 6.1499 27.7896 5.72583 28.3084 5.72583ZM28.5046 6.71533C28.7009 6.71533 28.869 6.54565 28.869 6.3479C28.869 6.1499 28.7009 5.98022 28.5046 5.98022C28.3084 5.98022 28.1401 6.1499 28.1401 6.3479C28.126 6.54565 28.2943 6.71533 28.5046 6.71533ZM28.9532 4.29785C28.9532 4.46753 29.0093 4.62305 29.1354 4.7644L29.1776 4.80688L29.1915 4.75024C29.2477 4.43921 29.5701 4.19897 29.9485 4.19897C30.3271 4.19897 30.6496 4.43921 30.7057 4.75024L30.7197 4.80688L30.7618 4.7644C30.8739 4.62305 30.9441 4.46753 30.9441 4.29785C30.9441 3.84546 30.4955 3.47778 29.9626 3.47778C29.4018 3.47778 28.9532 3.84546 28.9532 4.29785ZM27.0606 6.41846C27.0606 6.48926 26.8923 8.12915 26.1353 8.70874L25.925 8.94922C26.1492 9.68433 26.4998 10.165 26.8642 10.2498L26.8784 10.2498C27.9298 10.49 30.4393 10.8293 31.3506 8.73706L31.2385 8.60986L31.1824 8.55322C31.0002 8.39771 30.6636 8.11499 30.4813 7.97363C30.3693 7.88867 30.2991 7.83228 30.243 7.77563C30.1869 7.71924 29.6402 7.15356 29.5701 6.57397C29.5421 6.39014 29.3738 5.44287 28.4345 5.35815C27.6354 5.30151 27.1447 5.9519 27.0606 6.41846ZM25.6586 4.29785C25.6586 4.46753 25.7147 4.62305 25.8409 4.7644L25.8828 4.80688L25.8969 4.75024C25.953 4.43921 26.2754 4.19897 26.654 4.19897C27.0325 4.19897 27.355 4.43921 27.4111 4.75024L27.4251 4.80688L27.4671 4.7644C27.5934 4.62305 27.6493 4.46753 27.6493 4.29785C27.6493 3.84546 27.2148 3.47778 26.6681 3.47778C26.0931 3.47778 25.6586 3.84546 25.6586 4.29785ZM31.631 9.47217L31.631 9.38745C31.6169 9.26025 31.5608 9.09058 31.4769 8.9209C30.8038 10.5608 29.2337 11.1121 26.8081 10.5466L26.7942 10.5466C26.3175 10.4336 26.0511 10.0659 25.7847 9.13281C25.5745 9.48633 25.4342 9.89624 25.4342 10.2498L25.4342 10.3206C25.4483 10.4761 25.5183 11.2959 26.2194 11.72C27.9579 12.7239 30.0608 12.2432 30.93 11.1687C31.3647 10.6033 31.631 9.95288 31.631 9.47217ZM29.4018 22.8323L29.6823 23.7937L30.4533 23.6521L30.1869 22.7473C29.9066 22.804 29.6402 22.8323 29.4018 22.8323ZM30.4113 22.7051L30.6916 23.6238L31.4066 23.4966L31.0563 22.4788C30.888 22.5637 30.6636 22.6484 30.4113 22.7051ZM29.7524 24.0623L29.9766 24.9529L30.7618 24.8115L30.5235 23.9209L29.7524 24.0623ZM30.7618 23.8784L31.0002 24.769L31.7572 24.6418L31.4908 23.7512L30.7618 23.8784ZM30.0327 25.2214L30.271 26.3384L31.0841 26.2112L30.8319 25.0942L30.0327 25.2214ZM31.0702 25.0376L31.3225 26.1687L32.1217 26.0415L31.8272 24.9104L31.0702 25.0376ZM30.3132 26.5928L30.4813 27.7097L31.3225 27.6108L31.1263 26.4656L30.3132 26.5928ZM31.3786 26.4231L31.575 27.5825L32.4161 27.4836L32.1778 26.2959L31.3786 26.4231ZM30.5235 27.9783L30.6216 29.1094L31.4908 29.0247L31.3786 27.8794L30.5235 27.9783ZM31.6169 27.8511L31.7291 29.0103L32.5983 28.9255L32.4581 27.752L31.6169 27.8511ZM30.6216 29.3779L30.6076 30.5938L31.5049 30.5654L31.4908 29.2932L30.6216 29.3779ZM31.7433 29.2649L31.7572 30.5654L32.6405 30.5374L32.6264 29.1802L31.7433 29.2649ZM30.5935 30.8765L30.4674 31.9934L31.3786 31.9934L31.5049 30.8342L30.5935 30.8765ZM31.7433 30.8342L31.6169 31.9934L32.4861 31.9934L32.6264 30.7917L31.7433 30.8342ZM30.159 33.3081L31.0702 33.3223L31.3225 32.262L30.4113 32.248L30.159 33.3081ZM31.3225 33.3364L32.1638 33.3506L32.4442 32.262L31.575 32.262L31.3225 33.3364ZM30.0749 33.5908L29.6543 34.6514L30.5655 34.6514L30.9721 33.6052L30.0749 33.5908ZM31.2385 33.6191L30.8319 34.6655L31.6169 34.6655L32.0516 33.6475L31.2385 33.6191ZM28.9393 35.9377C29.0374 35.9377 29.8224 35.9377 29.8224 35.9377C30.0468 35.6125 30.2571 35.2732 30.4393 34.9199L29.528 34.9199C29.3457 35.2732 29.1495 35.6267 28.9393 35.9377ZM30.1169 35.9519C30.201 35.9519 30.8179 35.9519 30.8179 35.9519C31.0563 35.6267 31.2946 35.2876 31.4908 34.9199C31.4066 34.9199 30.7197 34.9199 30.7197 34.9199C30.5374 35.2876 30.3271 35.6267 30.1169 35.9519ZM28.112 36.998C28.2242 36.998 28.9393 36.998 28.9393 36.998C29.1776 36.7578 29.4018 36.4893 29.6121 36.2207C29.514 36.2207 28.771 36.2207 28.7429 36.2207C28.5467 36.4893 28.3223 36.7578 28.112 36.998ZM29.2757 36.998C29.3738 36.998 29.8785 36.998 29.8785 36.998C30.131 36.7578 30.3693 36.4893 30.5935 36.2207C30.4955 36.2207 29.9346 36.2207 29.9066 36.2207C29.7243 36.4893 29.4999 36.7578 29.2757 36.998ZM27.1587 37.8889C27.2989 37.8889 27.9157 37.8606 27.9157 37.8606C28.0139 37.7898 28.2943 37.6062 28.6588 37.281C28.5467 37.281 27.8737 37.281 27.8456 37.281C27.5512 37.5635 27.3129 37.7617 27.1587 37.8889ZM28.3504 37.8464C28.4765 37.8464 28.8551 37.8323 28.8551 37.8323C28.9251 37.7756 29.2057 37.5918 29.5841 37.281C29.472 37.281 29.0093 37.281 29.0093 37.281C28.799 37.4929 28.5746 37.6768 28.3504 37.8464ZM28.5607 19.0576L28.4204 20.6833C28.3924 20.9661 28.5746 21.4043 28.8271 21.574C29.0793 21.7437 29.4579 21.7859 29.8926 21.7014C30.5935 21.574 30.7618 21.249 30.7618 20.9094C30.7618 20.6692 30.6916 20.4714 30.5094 20.2168L29.4999 18.8879L28.5607 19.0576ZM30.4813 20.9094C30.4813 21.0369 30.4813 21.2629 30.0188 21.3901L29.7102 20.542L30.3132 20.4431C30.4252 20.6125 30.4813 20.7539 30.4813 20.9094ZM28.813 19.2979L28.9673 19.2695L29.3598 20.3582L28.7149 20.4712C28.757 20.033 28.813 19.2979 28.813 19.2979ZM30.1449 20.2168L29.6262 20.3015L29.2337 19.2131L29.3598 19.1848L30.1449 20.2168ZM28.6868 20.7258L29.444 20.5986L29.7524 21.4468C29.4299 21.5034 29.1496 21.4609 28.9673 21.3479C28.813 21.249 28.6868 20.9238 28.6868 20.7258ZM21.9154 4.28369C21.9013 4.34033 21.9574 4.42505 22.0274 4.43921C22.0555 4.45337 22.3499 4.53809 22.3499 5.00464C22.3499 5.07544 22.406 5.13184 22.4621 5.146C22.5321 5.16016 22.6024 5.11792 22.6163 5.04712C22.6163 5.04712 22.7846 4.58057 23.051 4.48169C23.2191 4.41089 23.121 4.15649 22.9527 4.21289C22.8126 4.26953 22.6863 4.36865 22.5743 4.53809L22.5462 4.58057L22.5321 4.53809C22.4199 4.29785 22.2238 4.18481 22.0976 4.15649C21.9994 4.14233 21.9432 4.18481 21.9154 4.28369ZM34.4209 3.19507C34.0704 3.26587 33.8461 3.40723 33.748 3.6333L33.7339 3.67578L33.7059 3.64746C33.5237 3.43555 33.3975 3.35059 33.3975 3.35059C33.3275 3.30811 33.2433 3.32227 33.2012 3.39307C33.1592 3.46362 33.1731 3.54858 33.2433 3.59106C33.2433 3.59106 33.4956 3.77466 33.79 4.22705C33.832 4.29785 33.9162 4.31201 33.9864 4.26953C34.0564 4.22705 34.0704 4.14233 34.0425 4.07153C34.0284 4.05737 33.9583 3.88794 34.0284 3.74658C34.0845 3.61914 34.2528 3.52026 34.5051 3.47778C34.5751 3.46362 34.6312 3.39307 34.6172 3.30811C34.5751 3.23755 34.4911 3.18091 34.4209 3.19507ZM20.7937 23.2141C19.5179 25.1792 19.0833 26.8049 18.915 28.261C18.7467 29.689 19.1253 31.3855 19.1673 31.5693C19.2234 31.8379 19.1534 32.0781 19.0833 32.1208C19.0553 32.1348 18.9992 32.1348 18.9711 32.1208C18.9431 32.05 18.9291 31.9934 18.9011 31.9229C18.8589 31.7812 18.8029 31.6401 18.7748 31.4844C18.7609 31.3713 18.6487 31.3149 18.5506 31.3289C18.4525 31.3572 18.3823 31.4561 18.3964 31.5552C18.4244 31.7249 18.6347 32.2903 18.6487 32.4033C18.7328 32.884 18.6767 33.2234 18.4945 33.2234C18.0598 33.2234 17.6392 33.1245 17.3448 32.8557C16.3354 31.8804 16.1391 28.6287 16.2373 27.5825L15.7466 27.9924C15.7466 27.9924 15.7746 24.0198 17.8775 20.5842L16.8682 21.0933C16.8682 21.0933 17.6252 18.2656 21.1301 15.5232L20.1487 15.6504C20.1487 15.6504 22.3919 13.9114 22.7285 9.71265L22.0274 9.9812C22.0274 9.9812 22.5182 8.62402 22.5041 7.78979L21.8593 8.03027C21.8593 8.03027 21.9713 7.02637 22.3079 6.06494C22.3079 6.06494 20.3731 5.9519 20.8218 4.17065C21.3124 2.27612 23.3874 3.60498 23.3874 3.60498C23.3874 3.60498 25.0838 0.325195 28.3504 0C28.3504 0 27.9998 0.268555 28.126 0.890625C28.126 0.890625 28.9251 -0.0283203 29.7524 0.0847168C29.7524 0.0847168 29.3738 0.424072 29.3738 0.820068C29.3738 0.820068 30.6076 0.311035 31.2524 0.720947C31.2524 0.720947 30.916 0.918945 30.8319 1.11694C30.8319 1.11694 31.9816 1.71069 32.7386 2.91235C32.7386 2.91235 34.8695 1.48438 35.6407 3.20923C36.4118 4.93408 34.2808 5.146 34.2808 5.146C34.2808 5.146 35.0659 6.03687 35.2621 7.94531L34.6873 7.70508C34.6873 7.70508 34.7573 9.06226 35.122 10.0801L34.5471 10.0518C34.5471 10.0518 34.7434 10.8577 35.1781 11.6353L34.6734 11.4656C34.6734 11.4656 34.9678 13.2751 35.5426 13.9397C36.1034 14.6042 36.8604 15.2686 37.1968 15.7068L36.608 15.7209C36.608 15.7209 38.4727 17.573 39.2158 19.1707L38.641 19.0432C38.641 19.0432 40.9822 21.4893 40.1972 26.1829C39.9728 25.575 39.5942 24.6843 39.0896 23.8926C39.1877 23.8926 39.5942 23.8643 39.5942 23.8643C39.5942 23.8643 39.2578 22.9312 37.3791 21.1074C37.4913 21.0791 37.954 20.9944 37.954 20.9944C37.954 20.9944 36.6641 19.5522 35.837 18.4636C35.3884 17.884 34.9398 17.3469 34.6172 16.7532C34.5612 16.6541 34.435 16.6257 34.3509 16.6824C34.2948 16.7249 34.2247 16.8521 34.2808 16.9509C34.6873 17.6438 35.0098 18.1245 35.5285 18.7888C36.1593 19.5947 36.8463 20.3723 37.1968 20.7539C37.0566 20.7822 36.552 20.8811 36.552 20.8811C36.552 20.8811 38.1363 22.2666 38.9494 23.5249L38.3746 23.5674C38.3746 23.5674 39.4541 24.8682 40.3653 27.9783L39.9167 27.7097C39.9167 27.7097 40.5756 30.6362 39.6924 33.0396L39.3419 32.6296C39.3419 32.6296 38.5288 37.4082 33.4536 38.8362C33.4536 38.8362 33.2714 41.1265 35.7529 41.918C38.2483 42.7097 39.4961 43.2329 40.1691 43.8831C40.1691 43.8831 38.8513 45.8059 36.7062 45.0989C34.5612 44.3921 31.4908 44.7314 31.4908 44.7314C31.4908 44.7314 29.2757 44.9578 29.0093 42.5684L28.8271 40.2781C28.8271 40.2781 30.6496 39.967 30.9861 39.6277C31.0842 39.5286 31.0282 39.4441 30.958 39.4722C30.2571 39.6418 27.1306 40.1367 25.1119 39.4014C24.9436 39.345 24.9575 39.4297 24.9997 39.5146C25.0978 39.6702 25.4342 39.9812 26.5278 40.2214L26.4717 41.3101C26.4717 41.3101 26.2194 44.7878 21.9432 44.9434C21.9432 44.9434 20.7796 45.0708 19.6862 45.2969C18.5786 45.5374 17.5972 45.4949 16.1391 45.0142C16.1391 45.0142 16.9102 43.9255 19.1114 42.8369C21.3124 41.7483 22.1677 40.4478 21.4666 37.7617L20.9059 38.2988C20.9059 38.2988 19.7001 37.2666 19.0553 35.7683L18.8589 36.3479C18.8589 36.3479 18.1019 35.146 17.6672 33.4919C18.2701 33.6475 18.6206 33.7324 18.915 33.4497C19.1253 33.2234 19.0973 32.7993 19.0692 32.5305C19.3778 32.5166 19.7142 32.1208 19.56 31.4844C19.5179 31.3005 19.1534 29.6748 19.3217 28.3035C19.4618 27.1443 19.8264 25.49 21.1443 23.4402C22.2377 21.7153 23.4435 19.9058 23.4716 16.8521C23.4716 16.739 23.3874 16.6541 23.2752 16.6541C23.163 16.6541 23.0789 16.739 23.0789 16.8521C23.0369 19.7786 21.8732 21.5457 20.7937 23.2141ZM29.0093 16.1733L27.4531 16.4138L27.7476 17.7427L29.514 17.46L29.0093 16.1733ZM27.9157 18.4497L27.7195 20.6267C27.6773 21.1216 27.9298 21.8425 28.4485 22.1819C28.8551 22.4504 29.4018 22.5354 30.0327 22.4224C31.2805 22.1819 31.4627 21.3762 31.4627 20.9238C31.4627 20.5137 31.3366 20.1602 31.0563 19.7927L29.7804 18.1245L27.9157 18.4497Z" fill="#FFFFFF" fill-opacity="1.000000" fill-rule="nonzero"/>
	</g>
</svg>
