<svg width="13.005859" height="12.755859" viewBox="0 0 13.0059 12.7559" fill="none" xmlns="http://www.w3.org/2000/svg" xmlns:xlink="http://www.w3.org/1999/xlink">
	<desc>
			Created with Pixso.
	</desc>
	<defs/>
	<path id="Vector" d="M11.4727 0.250977L11.4727 0.222656C11.7695 -0.0742188 12.2363 -0.0742188 12.5332 0.222656C12.8301 0.519531 12.8301 0.986328 12.5332 1.2832L12.5049 1.2832L11.4727 0.250977ZM1.2832 12.5049L1.2832 12.5332C0.986328 12.8301 0.519531 12.8301 0.222656 12.5332C-0.0742188 12.2363 -0.0742188 11.7695 0.222656 11.4727L0.250977 11.4727L1.2832 12.5049Z" fill="#767F86" fill-opacity="1.000000" fill-rule="nonzero"/>
	<path id="Vector" d="M12.0029 0.75293L0.75293 12.0029" stroke="#767F86" stroke-opacity="1.000000" stroke-width="1.500000" stroke-linejoin="round" stroke-linecap="round"/>
	<path id="Vector" d="M12.7549 11.4727L12.7832 11.4727C13.0801 11.7695 13.0801 12.2363 12.7832 12.5332C12.4863 12.8301 12.0195 12.8301 11.7227 12.5332L11.7227 12.5049L12.7549 11.4727ZM0.500977 1.2832L0.472656 1.2832C0.175781 0.986328 0.175781 0.519531 0.472656 0.222656C0.769531 -0.0742188 1.23633 -0.0742188 1.5332 0.222656L1.5332 0.250977L0.500977 1.2832Z" fill="#767F86" fill-opacity="1.000000" fill-rule="nonzero"/>
	<path id="Vector" d="M12.2529 12.0029L1.00293 0.75293" stroke="#767F86" stroke-opacity="1.000000" stroke-width="1.500000" stroke-linejoin="round" stroke-linecap="round"/>
</svg>
