<svg width="53" height="52" viewBox="0 0 53 52" fill="none" xmlns="http://www.w3.org/2000/svg">
<path d="M19.5494 3.7915C17.1398 3.7915 15.233 5.70749 14.9518 8.00099C13.4734 8.0613 11.8839 8.36672 10.5172 9.08611C8.98107 9.89468 7.70784 11.2609 7.38579 13.2582L1.59361 48.5804C1.57745 48.668 1.58037 48.758 1.60215 48.8442C1.62393 48.9303 1.66402 49.0104 1.71951 49.0784C1.775 49.1466 1.84448 49.201 1.9229 49.2379C2.00132 49.2747 2.0867 49.293 2.17282 49.2914H8.54423C8.67765 49.2896 8.80636 49.2401 8.90859 49.1515C9.01083 49.0628 9.08032 48.9405 9.10535 48.8049L13.0332 27.9633L15.4948 48.7489C15.5084 48.8977 15.5754 49.0359 15.6826 49.1363C15.7897 49.2367 15.9294 49.2921 16.0741 49.2914H36.9259C37.0706 49.2921 37.2102 49.2367 37.3175 49.1363C37.4246 49.0359 37.4916 48.8977 37.5051 48.7489L39.9668 27.9633L43.8946 48.8049C43.9197 48.9405 43.9892 49.0628 44.0914 49.1515C44.1937 49.2401 44.3224 49.2896 44.4557 49.2914H50.8272C50.9133 49.293 50.9987 49.2747 51.0771 49.2379C51.1555 49.201 51.225 49.1466 51.2805 49.0784C51.336 49.0104 51.3761 48.9303 51.3979 48.8442C51.4196 48.758 51.4225 48.668 51.4064 48.5804L45.6142 13.2582C45.2921 11.2609 44.0189 9.89468 42.4828 9.08611C41.1162 8.36672 39.5266 8.0613 38.0482 8.00099C37.767 5.70749 35.8603 3.7915 33.4507 3.7915H19.5494ZM19.5494 4.98887H33.4507C35.3044 4.98887 36.7105 6.50965 36.8716 8.26292C34.3008 9.54029 31.9303 11.0932 30.0658 12.5847C28.9642 13.4659 28.0914 14.2854 27.3689 15.0355C27.5576 14.2922 27.8269 13.5171 28.1833 12.753C28.8771 11.2661 29.8509 9.87947 30.8985 9.06739C30.9985 8.99318 31.0731 8.88794 31.1113 8.76696C31.1495 8.64599 31.1495 8.51556 31.1111 8.3946C31.0728 8.27365 30.9981 8.16847 30.8981 8.09433C30.798 8.02019 30.6776 7.98094 30.5546 7.98229H22.4455C22.3223 7.98094 22.202 8.02019 22.1019 8.09433C22.0018 8.16847 21.9272 8.27365 21.8889 8.3946C21.8505 8.51556 21.8505 8.64599 21.8888 8.76696C21.927 8.88794 22.0015 8.99318 22.1016 9.06739C23.1492 9.87947 24.1229 11.2661 24.8166 12.753C25.1732 13.5171 25.4424 14.2922 25.6312 15.0355C24.9087 14.2854 24.0358 13.4659 22.9342 12.5847C21.0698 11.0932 18.6991 9.54029 16.1283 8.26292C16.2895 6.50965 17.6956 4.98887 19.5494 4.98887ZM15.3862 9.17965C17.9769 10.436 20.3553 12.0406 22.2283 13.5388C24.0547 14.9998 25.3729 16.3876 25.9208 17.187V48.0941H16.599L13.7572 24.0719C13.7403 23.9318 13.6762 23.8025 13.5761 23.7066C13.4759 23.6106 13.3462 23.5543 13.2098 23.5476C13.0735 23.5409 12.9393 23.5842 12.8307 23.6699C12.7222 23.7555 12.6465 23.878 12.6169 24.0158L8.07361 48.0941H2.86065L8.54423 13.464C8.80139 11.8691 9.73481 10.8406 11.0421 10.1525C12.3184 9.48073 13.9319 9.19293 15.3862 9.17965ZM23.8211 9.17965H29.1789C28.3829 10.07 27.6643 11.0917 27.1335 12.2292C26.8638 12.8073 26.6872 13.3862 26.5 13.9691C26.3128 13.3862 26.1362 12.8073 25.8665 12.2292C25.3358 11.0917 24.617 10.07 23.8211 9.17965ZM37.6138 9.17965C39.0682 9.19293 40.6817 9.48073 41.9579 10.1525C43.2652 10.8406 44.1986 11.8691 44.4557 13.464L50.1394 48.0941H44.9264L40.3832 24.0158C40.3535 23.878 40.2778 23.7555 40.1692 23.6699C40.0608 23.5842 39.9265 23.5409 39.7901 23.5476C39.6537 23.5543 39.524 23.6106 39.4239 23.7066C39.3238 23.8025 39.2596 23.9318 39.2428 24.0719L36.401 48.0941H27.0792V17.1683C27.6317 16.3682 28.9527 14.994 30.7718 13.5388C32.6446 12.0406 35.0231 10.436 37.6138 9.17965ZM30.4459 20.5547C30.2923 20.5695 30.1507 20.6468 30.0523 20.7697C29.9538 20.8924 29.9066 21.0506 29.921 21.2095C29.9354 21.3683 30.0102 21.5146 30.1291 21.6164C30.2478 21.7181 30.401 21.7669 30.5546 21.752H36.3467C36.4235 21.7532 36.4997 21.7384 36.5709 21.7089C36.6422 21.6793 36.707 21.6353 36.7616 21.5797C36.8163 21.5239 36.8596 21.4576 36.8893 21.3844C36.9189 21.3112 36.9342 21.2326 36.9342 21.1533C36.9342 21.074 36.9189 20.9954 36.8893 20.9223C36.8596 20.8491 36.8163 20.7827 36.7616 20.727C36.707 20.6712 36.6422 20.6274 36.5709 20.5978C36.4997 20.5681 36.4235 20.5535 36.3467 20.5547H30.5546C30.5184 20.5511 30.4821 20.5511 30.4459 20.5547ZM21.2328 35.503C21.1088 35.517 20.9927 35.5718 20.9014 35.6594C20.8101 35.7471 20.7485 35.8628 20.726 35.9894C20.1875 38.5235 19.7664 39.7526 17.9747 41.6956C17.9127 41.7498 17.8625 41.8169 17.8272 41.8925C17.7919 41.9681 17.7725 42.0505 17.77 42.1345C17.7676 42.2183 17.7822 42.3017 17.813 42.3794C17.8437 42.457 17.89 42.5271 17.9486 42.5852C18.0074 42.6432 18.0771 42.6878 18.1536 42.7161C18.23 42.7444 18.3113 42.7558 18.3922 42.7496C18.4732 42.7433 18.552 42.7196 18.6235 42.6798C18.695 42.64 18.7576 42.5852 18.8072 42.5188C20.7148 40.4501 21.2969 38.8268 21.8481 36.2326C21.8684 36.1407 21.8674 36.045 21.8452 35.9534C21.8229 35.8619 21.78 35.7771 21.7201 35.706C21.66 35.6348 21.5846 35.5794 21.5 35.5441C21.4152 35.5089 21.3237 35.4947 21.2328 35.503ZM31.6406 35.503C31.5604 35.5139 31.4833 35.542 31.4143 35.5856C31.3452 35.6291 31.2858 35.6871 31.2397 35.7558C31.1937 35.8246 31.162 35.9025 31.147 35.9846C31.1318 36.0668 31.1335 36.1512 31.1518 36.2326C31.703 38.8268 32.2851 40.4501 34.1927 42.5188C34.2424 42.5852 34.305 42.64 34.3765 42.6798C34.4481 42.7196 34.5268 42.7433 34.6077 42.7496C34.6888 42.7558 34.7701 42.7444 34.8465 42.7161C34.9229 42.6878 34.9927 42.6432 35.0513 42.5852C35.11 42.5271 35.1562 42.457 35.187 42.3794C35.2178 42.3017 35.2324 42.2183 35.2299 42.1345C35.2275 42.0505 35.208 41.9681 35.1728 41.8925C35.1375 41.8169 35.0873 41.7498 35.0254 41.6956C33.2335 39.7526 32.8125 38.5235 32.2741 35.9894C32.2475 35.8406 32.1674 35.7077 32.0499 35.6175C31.9323 35.5272 31.7861 35.4863 31.6406 35.503Z" fill="#767F86"/>
</svg>
