<svg width="20.000000" height="20.000000" viewBox="0 0 20 20" fill="none" xmlns="http://www.w3.org/2000/svg" xmlns:xlink="http://www.w3.org/1999/xlink">
	<desc>
			Created with Pixso.
	</desc>
	<defs/>
	<path id="Vector" d="M14.9178 3.69618L14.9178 3.66789C15.3138 3.27191 15.9362 3.27191 16.3322 3.66789C16.728 4.06387 16.728 4.68613 16.3322 5.08211L16.3038 5.08211L14.9178 3.69618ZM5.08215 16.3038L5.08215 16.3321C4.68616 16.7281 4.06384 16.7281 3.66785 16.3321C3.27197 15.9361 3.27197 15.3139 3.66785 14.9179L3.69617 14.9179L5.08215 16.3038Z" fill="#989FA4" fill-opacity="1.000000" fill-rule="nonzero"/>
	<path id="Vector" d="M15.625 4.375L4.375 15.625" stroke="#989FA4" stroke-opacity="1.000000" stroke-width="2.000000" stroke-linejoin="round" stroke-linecap="round"/>
	<path id="Vector" d="M16.3038 14.9179L16.3322 14.9179C16.728 15.3139 16.728 15.9361 16.3322 16.3321C15.9362 16.7281 15.3138 16.7281 14.9178 16.3321L14.9178 16.3038L16.3038 14.9179ZM3.69617 5.08211L3.66785 5.08211C3.27197 4.68613 3.27197 4.06387 3.66785 3.66789C4.06384 3.27191 4.68616 3.27191 5.08215 3.66789L5.08215 3.69618L3.69617 5.08211Z" fill="#989FA4" fill-opacity="1.000000" fill-rule="nonzero"/>
	<path id="Vector" d="M15.625 15.625L4.375 4.375" stroke="#989FA4" stroke-opacity="1.000000" stroke-width="2.000000" stroke-linejoin="round" stroke-linecap="round"/>
</svg>
