<svg width="20" height="20" viewBox="0 0 20 20" fill="none" xmlns="http://www.w3.org/2000/svg">
<path d="M18.3333 7.10002V3.31669C18.3333 2.14169 17.8 1.66669 16.475 1.66669L13.1083 1.66669C11.7833 1.66669 11.25 2.14169 11.25 3.31669V7.09169C11.25 8.27502 11.7833 8.74169 13.1083 8.74169H16.475C17.8 8.75002 18.3333 8.27502 18.3333 7.10002Z" stroke="#D0033F" stroke-width="1.5" stroke-linecap="round" stroke-linejoin="round"/>
<path d="M18.3333 16.475V13.1083C18.3333 11.7833 17.8 11.25 16.475 11.25H13.1083C11.7833 11.25 11.25 11.7833 11.25 13.1083V16.475C11.25 17.8 11.7833 18.3333 13.1083 18.3333H16.475C17.8 18.3333 18.3333 17.8 18.3333 16.475Z" stroke="#D0033F" stroke-width="1.5" stroke-linecap="round" stroke-linejoin="round"/>
<path d="M8.74999 7.09999V3.31666C8.74999 2.14166 8.21666 1.66666 6.89166 1.66666H3.52499C2.19999 1.66666 1.66666 2.14166 1.66666 3.31666V7.09166C1.66666 8.27499 2.19999 8.74166 3.52499 8.74166H6.89166C8.21666 8.74999 8.74999 8.27499 8.74999 7.09999Z" stroke="#D0033F" stroke-width="1.5" stroke-linecap="round" stroke-linejoin="round"/>
<path d="M8.74999 16.475V13.1083C8.74999 11.7833 8.21666 11.25 6.89166 11.25H3.52499C2.19999 11.25 1.66666 11.7833 1.66666 13.1083V16.475C1.66666 17.8 2.19999 18.3333 3.52499 18.3333H6.89166C8.21666 18.3333 8.74999 17.8 8.74999 16.475Z" stroke="#D0033F" stroke-width="1.5" stroke-linecap="round" stroke-linejoin="round"/>
</svg>
