<svg width="183" height="54" viewBox="0 0 183 54" fill="none" xmlns="http://www.w3.org/2000/svg">
<g clip-path="url(#clip0_1602_2641)">
<path d="M65.3938 8.34698L70.8237 22.8473L76.2538 8.34698H80.6608V27.3673H77.2768V21.2666L77.6178 12.6972L72.0174 27.3673H69.6303L64.0428 12.6972L64.3707 21.2666V27.3673H61V8.34698H65.3938Z" fill="#161515"/>
<path d="M86.353 27.3673H82.7987L89.9861 8.34698H93.0552L100.269 27.3673H96.7146L95.2062 23.0172H87.8614L86.353 27.3673ZM88.8056 20.3H94.2488L91.5206 12.4619L88.8056 20.3Z" fill="#161515"/>
<path d="M112.401 22.4554C112.401 21.9416 112.292 21.5018 112.073 21.136C111.855 20.7703 111.452 20.435 110.867 20.1302C110.29 19.8253 109.45 19.5032 108.348 19.1634C107.142 18.7978 106.062 18.3665 105.109 17.8702C104.164 17.3651 103.417 16.7467 102.866 16.0152C102.315 15.2836 102.04 14.3909 102.04 13.3371C102.04 12.3096 102.328 11.3995 102.905 10.6069C103.482 9.81448 104.282 9.1961 105.305 8.75195C106.328 8.30779 107.513 8.08571 108.86 8.08571C110.285 8.08571 111.514 8.34698 112.545 8.86951C113.586 9.38334 114.382 10.08 114.933 10.9596C115.492 11.8393 115.772 12.819 115.772 13.8989H112.388C112.388 12.9932 112.095 12.2486 111.509 11.6651C110.932 11.0728 110.036 10.7768 108.82 10.7768C107.675 10.7768 106.822 11.025 106.263 11.5213C105.703 12.009 105.423 12.6143 105.423 13.3371C105.423 14.0339 105.756 14.6174 106.42 15.0877C107.094 15.5493 108.112 15.9804 109.476 16.381C111.601 17.0081 113.184 17.7918 114.224 18.7323C115.265 19.6642 115.785 20.8965 115.785 22.4293C115.785 24.0404 115.164 25.312 113.923 26.2437C112.69 27.167 111.037 27.6286 108.965 27.6286C108.047 27.6286 107.142 27.5066 106.25 27.2628C105.358 27.0102 104.549 26.6358 103.823 26.1393C103.106 25.6342 102.529 25.0028 102.092 24.2451C101.664 23.4874 101.449 22.5947 101.449 21.5672H104.833C104.833 22.7777 105.231 23.6442 106.027 24.1668C106.822 24.6893 107.802 24.9505 108.965 24.9505C110.101 24.9505 110.958 24.7197 111.535 24.2582C112.113 23.788 112.401 23.187 112.401 22.4554Z" fill="#161515"/>
<path d="M133.308 21.1491C133.194 22.4031 132.84 23.518 132.245 24.4934C131.651 25.4688 130.816 26.2351 129.74 26.7925C128.665 27.3498 127.349 27.6286 125.792 27.6286C124.219 27.6286 122.854 27.2628 121.7 26.5312C120.546 25.7909 119.654 24.7459 119.025 23.3959C118.395 22.0461 118.08 20.4523 118.08 18.6148V17.1125C118.08 15.275 118.399 13.6812 119.038 12.3313C119.676 10.9815 120.581 9.93637 121.753 9.1961C122.933 8.45584 124.323 8.08571 125.924 8.08571C127.454 8.08571 128.744 8.36875 129.793 8.93484C130.851 9.49221 131.668 10.2673 132.245 11.2601C132.831 12.2442 133.185 13.3763 133.308 14.6566H129.937C129.806 13.4461 129.443 12.5055 128.848 11.8349C128.263 11.1643 127.288 10.8291 125.924 10.8291C124.446 10.8291 123.335 11.3689 122.592 12.4489C121.858 13.5201 121.49 15.0659 121.49 17.0864V18.6148C121.49 20.5395 121.827 22.0679 122.5 23.2C123.174 24.3235 124.271 24.8853 125.792 24.8853C127.183 24.8853 128.179 24.5673 128.783 23.9316C129.395 23.2872 129.775 22.3596 129.924 21.1491H133.308Z" fill="#161515"/>
<path d="M151.526 18.3536C151.526 20.2781 151.194 21.9329 150.529 23.3176C149.864 24.7023 148.938 25.7692 147.748 26.5182C146.559 27.2585 145.173 27.6286 143.591 27.6286C142.034 27.6286 140.653 27.2585 139.446 26.5182C138.248 25.7692 137.308 24.7023 136.626 23.3176C135.953 21.9329 135.616 20.2781 135.616 18.3536V17.3737C135.616 15.4491 135.953 13.7944 136.626 12.4097C137.299 11.025 138.235 9.95812 139.433 9.20916C140.631 8.46019 142.008 8.08571 143.564 8.08571C145.147 8.08571 146.533 8.46019 147.722 9.20916C148.92 9.95812 149.851 11.025 150.516 12.4097C151.189 13.7944 151.526 15.4491 151.526 17.3737V18.3536ZM148.129 17.3476C148.129 15.2401 147.727 13.6377 146.922 12.5404C146.126 11.4343 145.007 10.8812 143.564 10.8812C142.148 10.8812 141.037 11.4343 140.233 12.5404C139.429 13.6377 139.026 15.2401 139.026 17.3476V18.3536C139.026 20.4523 139.433 22.0592 140.246 23.1739C141.059 24.2886 142.174 24.8461 143.591 24.8461C145.042 24.8461 146.161 24.2886 146.948 23.1739C147.735 22.0592 148.129 20.4523 148.129 18.3536V17.3476Z" fill="#161515"/>
<path d="M161.795 27.3673H158.438V11.0642H152.535V8.34698H167.75V11.0642H161.795V27.3673Z" fill="#161515"/>
<path d="M169.783 12.1855C169.783 11.1659 169.954 10.2201 170.295 9.3479C170.643 8.47575 171.117 7.71583 171.718 7.06814C172.327 6.41403 173.028 5.90742 173.823 5.5483C174.623 5.18277 175.479 5 176.391 5C177.303 5 178.157 5.18277 178.951 5.5483C179.752 5.90742 180.452 6.41403 181.054 7.06814C181.663 7.71583 182.137 8.47575 182.478 9.3479C182.826 10.2201 183 11.1659 183 12.1855C183 13.2052 182.826 14.1511 182.478 15.0233C182.137 15.8953 181.663 16.6617 181.054 17.3222C180.452 17.9764 179.752 18.4861 178.951 18.8518C178.157 19.2173 177.303 19.3999 176.391 19.3999C175.479 19.3999 174.623 19.2173 173.823 18.8518C173.028 18.4861 172.327 17.9764 171.718 17.3222C171.117 16.6617 170.643 15.8953 170.295 15.0233C169.954 14.1511 169.783 13.2052 169.783 12.1855ZM170.899 12.1855C170.899 13.0384 171.042 13.8305 171.328 14.5615C171.613 15.2926 172.008 15.9307 172.51 16.4758C173.013 17.0209 173.595 17.4473 174.26 17.7551C174.924 18.0629 175.634 18.2169 176.391 18.2169C177.149 18.2169 177.859 18.0629 178.523 17.7551C179.186 17.4473 179.77 17.0209 180.272 16.4758C180.775 15.9307 181.165 15.2926 181.445 14.5615C181.731 13.8305 181.873 13.0384 181.873 12.1855C181.873 11.3327 181.731 10.5439 181.445 9.81927C181.165 9.08819 180.775 8.45011 180.272 7.90502C179.77 7.35992 179.186 6.93667 178.523 6.63527C177.859 6.33386 177.149 6.18317 176.391 6.18317C175.634 6.18317 174.924 6.33386 174.26 6.63527C173.595 6.93667 173.013 7.35992 172.51 7.90502C172.008 8.45011 171.613 9.08819 171.328 9.81927C171.042 10.5439 170.899 11.3327 170.899 12.1855ZM179.369 13.4553C179.369 14.4685 179.09 15.2253 178.532 15.7255C177.98 16.2257 177.223 16.4758 176.261 16.4758C175.268 16.4758 174.48 16.1326 173.897 15.4465C173.313 14.7603 173.022 13.8625 173.022 12.7532V11.6277C173.022 10.5247 173.313 9.63011 173.897 8.9439C174.48 8.25131 175.268 7.90502 176.261 7.90502C177.223 7.90502 177.983 8.15832 178.541 8.66493C179.099 9.16513 179.378 9.91539 179.378 10.9158H177.964C177.964 10.2939 177.818 9.84812 177.527 9.57877C177.242 9.30942 176.819 9.17476 176.261 9.17476C175.659 9.17476 175.203 9.40241 174.893 9.85769C174.582 10.313 174.428 10.8997 174.428 11.6181V12.7532C174.428 13.4777 174.582 14.0677 174.893 14.5231C175.203 14.972 175.659 15.1964 176.261 15.1964C176.819 15.1964 177.242 15.065 177.527 14.8021C177.812 14.539 177.955 14.0902 177.955 13.4553H179.369Z" fill="#161515"/>
<path d="M68.1637 31.9628H70.5212L73.4655 43.9976L75.8665 31.9628H78.6586L75.0298 47.9798H72.2922L69.3478 36.374L66.3494 47.9798H63.6224L59.9828 31.9628H62.7749L65.1977 43.9645L68.1637 31.9628Z" fill="#161515"/>
<path d="M93.3146 40.3893C93.3146 42.0101 93.0393 43.4036 92.4888 44.5697C91.9384 45.7357 91.1706 46.6341 90.1856 47.2647C89.2006 47.8882 88.0526 48.1998 86.7417 48.1998C85.4525 48.1998 84.3079 47.8882 83.3085 47.2647C82.3163 46.6341 81.5376 45.7357 80.9726 44.5697C80.4149 43.4036 80.1362 42.0101 80.1362 40.3893V39.5643C80.1362 37.9435 80.4149 36.55 80.9726 35.3839C81.5303 34.2179 82.3053 33.3194 83.2976 32.6887C84.2899 32.058 85.4306 31.7428 86.7199 31.7428C88.0309 31.7428 89.1788 32.058 90.1639 32.6887C91.1561 33.3194 91.9275 34.2179 92.478 35.3839C93.0357 36.55 93.3146 37.9435 93.3146 39.5643V40.3893ZM90.5007 39.5423C90.5007 37.7675 90.1675 36.4181 89.5012 35.494C88.8421 34.5625 87.915 34.0969 86.7199 34.0969C85.5465 34.0969 84.6267 34.5625 83.9604 35.494C83.294 36.4181 82.9609 37.7675 82.9609 39.5423V40.3893C82.9609 42.1568 83.2976 43.5099 83.9712 44.4485C84.6448 45.3874 85.5682 45.8567 86.7417 45.8567C87.944 45.8567 88.871 45.3874 89.5228 44.4485C90.1748 43.5099 90.5007 42.1568 90.5007 40.3893V39.5423Z" fill="#161515"/>
<path d="M101.604 31.9628C103.415 31.9628 104.823 32.3734 105.83 33.1948C106.837 34.0162 107.34 35.2153 107.34 36.7921C107.34 37.8775 107.08 38.7832 106.558 39.5092C106.044 40.2353 105.338 40.7927 104.44 41.1814L107.97 47.8368V47.9798H104.972L101.821 41.8524H98.7901V47.9798H95.9872V31.9628H101.604ZM101.604 34.2509H98.7901V39.5753H101.626C102.589 39.5753 103.313 39.3296 103.799 38.8382C104.284 38.3394 104.527 37.7089 104.527 36.9461C104.527 36.1247 104.291 35.472 103.82 34.9879C103.35 34.4966 102.611 34.2509 101.604 34.2509Z" fill="#161515"/>
<path d="M112.783 47.9798H109.98V31.9628H112.783V39.4762L114.315 37.5182L118.857 31.9628H122.279L116.434 39.0583L122.572 47.9798H119.237L114.576 41.1263L112.783 43.0515V47.9798Z" fill="#161515"/>
<path d="M131.133 31.9628H133.491L136.435 43.9976L138.836 31.9628H141.628L137.999 47.9798H135.262L132.317 36.374L129.319 47.9798H126.592L122.952 31.9628H125.744L128.167 43.9645L131.133 31.9628Z" fill="#161515"/>
<path d="M153.991 47.9798H143.616V31.9628H153.938V34.2509H146.419V38.6071H152.895V40.8514H146.419V45.7027H153.991V47.9798Z" fill="#161515"/>
<path d="M157.729 47.9798H154.784L160.738 31.9628H163.28L169.257 47.9798H166.312L165.063 44.3166H158.978L157.729 47.9798ZM159.761 42.0284H164.27L162.01 35.4279L159.761 42.0284Z" fill="#161515"/>
<path d="M176.633 31.9628C178.443 31.9628 179.852 32.3734 180.859 33.1948C181.865 34.0162 182.369 35.2153 182.369 36.7921C182.369 37.8775 182.108 38.7832 181.586 39.5092C181.072 40.2353 180.366 40.7927 179.468 41.1814L183 47.8368V47.9798H180L176.85 41.8524H173.819V47.9798H171.017V31.9628H176.633ZM176.633 34.2509H173.819V39.5753H176.654C177.618 39.5753 178.343 39.3296 178.828 38.8382C179.313 38.3394 179.555 37.7089 179.555 36.9461C179.555 36.1247 179.32 35.472 178.849 34.9879C178.378 34.4966 177.64 34.2509 176.633 34.2509Z" fill="#161515"/>
<path d="M48.1214 43.91H43.2039C42.7638 43.9355 42.0343 44.1899 42.0343 45.0806C42.0343 45.9713 42.7513 46.2385 43.1914 46.2512H44.3107C44.4239 46.2512 44.5119 46.3403 44.5119 46.4548V52.7659C44.5119 53.3002 44.8137 53.9364 45.6437 53.9364C46.5368 53.9364 46.7882 53.2111 46.8009 52.7659V46.4294C46.8009 46.3149 46.8889 46.2257 47.002 46.2257H48.1087C48.5363 46.213 49.2659 45.9713 49.2659 45.0679C49.2784 43.9864 48.2472 43.91 48.1214 43.91Z" fill="#D0033F"/>
<path d="M19.6585 52.5111L17.9605 45.7166C17.948 45.6403 17.5078 43.9353 15.722 43.9353C13.9235 43.9353 13.5085 45.6403 13.4959 45.7039L11.8232 52.4857C11.7352 52.9183 11.8106 53.7072 12.6658 53.9235C13.4833 54.1271 13.9361 53.5927 14.0618 53.071L14.2505 52.3839C14.2756 52.2948 14.3511 52.2313 14.4517 52.2313H17.0676C17.1556 52.2313 17.2438 52.2948 17.2688 52.3967L17.4324 53.0837C17.4701 53.211 17.8097 54.2162 18.8409 53.9489C19.671 53.7072 19.7465 52.931 19.6585 52.5111ZM16.5269 49.8264C16.4891 49.8773 16.4262 49.9028 16.3634 49.9028H15.0428C14.9799 49.9028 14.917 49.8773 14.8793 49.8264C14.8416 49.7755 14.829 49.7119 14.8416 49.6482L15.5082 46.9763C15.5333 46.8873 15.6088 46.8236 15.7093 46.8236C15.7975 46.8236 15.8855 46.8873 15.9106 46.9763L16.5646 49.6482C16.5897 49.7119 16.5646 49.7755 16.5269 49.8264Z" fill="#D0033F"/>
<path d="M39.5829 43.9228H37.0424C36.9418 43.9228 34.5522 43.9609 34.5522 46.4422V51.4173C34.5522 51.5189 34.6152 53.9364 37.0424 53.9364H39.5956C39.6332 53.9364 40.7023 53.9492 41.4192 53.2622C41.8593 52.8296 42.0731 52.2061 42.0731 51.4173V46.4422C42.0731 46.3403 42.0227 43.9228 39.5829 43.9228ZM39.7842 46.9129V50.9083C39.7842 51.3026 39.4822 51.6081 39.105 51.6081H37.5203C37.1305 51.6081 36.8413 51.3026 36.8413 50.9083V46.9129C36.8413 46.5185 37.1179 46.2387 37.5203 46.2387H39.105C39.4949 46.2387 39.7842 46.5312 39.7842 46.9129Z" fill="#D0033F"/>
<path d="M22.3129 46.2383H24.7024C24.8156 46.2383 24.9036 46.3274 24.9036 46.442C24.9036 46.5691 24.9539 47.2435 25.6834 47.4217H25.7085C25.8091 47.4472 25.9223 47.4598 26.0356 47.4598C26.8781 47.4598 27.1926 46.8364 27.1926 46.3019V45.933C27.1926 44.0117 25.4318 43.9481 25.2432 43.9481H21.7973C19.8855 43.9481 19.8227 45.7422 19.8227 45.9457V48.1342C19.8227 49.5084 20.7534 49.9282 21.3067 50.0555C21.3194 50.0555 21.3319 50.0682 21.3319 50.0682L21.3697 50.081C21.596 50.1319 21.7595 50.1319 21.7973 50.1319H24.7149C24.8282 50.1319 24.9162 50.2209 24.9162 50.3354V51.417C24.9162 51.5314 24.8282 51.6206 24.7149 51.6206H22.3129C22.1997 51.6206 22.1116 51.5314 22.1116 51.417C22.1116 51.2897 22.0739 50.6662 21.3445 50.5008L21.269 50.4882L20.9672 50.4627C20.1372 50.4627 19.8227 51.0735 19.8101 51.5951V51.964C19.8101 53.8982 21.5583 53.9617 21.7595 53.9617H25.2307C27.1171 53.9617 27.1799 52.1932 27.1799 51.9895V49.7883C27.1799 48.3633 26.2116 47.9688 25.6331 47.8543L25.5828 47.8415C25.3942 47.8034 25.2558 47.8034 25.2307 47.8034H22.3002C22.1871 47.8034 22.0991 47.7144 22.0991 47.5998V46.4675C22.1116 46.3274 22.1997 46.2383 22.3129 46.2383Z" fill="#D0033F"/>
<path d="M33.2543 51.6078H30.6007C30.1982 51.6078 29.9341 51.3278 29.9341 50.9206V46.9254C29.9341 46.4928 30.173 46.251 30.6007 46.251H33.2543C33.7824 46.251 34.4113 45.9457 34.4113 45.1059C34.4113 43.9989 33.3675 43.9353 33.2543 43.9353H30.1352C30.0346 43.9353 27.6451 43.9861 27.6451 46.4547V51.417C27.6451 51.5186 27.708 53.9363 30.1352 53.9363H33.2543C33.7951 53.9235 34.4113 53.6181 34.4113 52.7784C34.3987 51.875 33.6819 51.6078 33.2543 51.6078Z" fill="#D0033F"/>
<path d="M8.3283 43.8972C7.46052 43.8972 6.79395 44.1644 6.30347 44.5588C5.81298 44.1644 5.14642 43.8972 4.27863 43.8972C1.93939 43.8972 1.08418 45.8312 1.08418 47.129V52.804C1.08418 53.4656 1.6124 54 2.2538 54C2.90778 54 3.42343 53.4656 3.42343 52.804V47.1418C3.44858 46.5693 3.72527 46.2766 4.26605 46.2766C4.80685 46.2766 5.09611 46.5693 5.10869 47.1418V52.7912C5.10869 53.4529 5.63691 53.9872 6.27831 53.9872C6.9323 53.9872 7.46052 53.4529 7.46052 52.7912V47.1418C7.47308 46.5693 7.76234 46.2766 8.30314 46.2766C8.84393 46.2766 9.1332 46.5693 9.14578 47.1418V52.804C9.14578 53.4656 9.67399 54 10.3154 54C10.9568 54 11.485 53.4656 11.485 52.804V47.129C11.5227 45.8185 10.6675 43.8972 8.3283 43.8972Z" fill="#D0033F"/>
<path d="M25.3943 5.15316C25.8596 5.15316 26.2369 5.53488 26.2369 6.00566C26.2369 6.47644 25.8596 6.85815 25.3943 6.85815C24.9289 6.85815 24.5516 6.47644 24.5516 6.00566C24.5516 5.53488 24.9289 5.15316 25.3943 5.15316ZM25.5703 6.04383C25.7464 6.04383 25.8972 5.89114 25.8972 5.71302C25.8972 5.53488 25.7464 5.3822 25.5703 5.3822C25.3943 5.3822 25.2433 5.53488 25.2433 5.71302C25.2307 5.89114 25.3816 6.04383 25.5703 6.04383ZM25.9727 3.86805C25.9727 4.02073 26.0231 4.1607 26.1362 4.28794L26.174 4.32611L26.1865 4.27521C26.2369 3.99529 26.5261 3.77898 26.8656 3.77898C27.2052 3.77898 27.4945 3.99529 27.5448 4.27521L27.5574 4.32611L27.5952 4.28794C27.6957 4.1607 27.7587 4.02073 27.7587 3.86805C27.7587 3.46089 27.3562 3.13007 26.8783 3.13007C26.3752 3.13007 25.9727 3.46089 25.9727 3.86805ZM24.2749 5.77663C24.2749 5.84025 24.124 7.31621 23.4449 7.8379L23.2562 8.05419C23.4574 8.71585 23.7718 9.14845 24.0988 9.22479H24.1115C25.0547 9.4411 27.3059 9.74648 28.1233 7.86334L28.0228 7.74883L27.9725 7.69793C27.809 7.55796 27.507 7.3035 27.3435 7.17626C27.2431 7.09991 27.1801 7.04902 27.1297 6.99812C27.0794 6.94722 26.589 6.43827 26.5261 5.9166C26.501 5.75119 26.35 4.89868 25.5074 4.82234C24.7905 4.77144 24.3504 5.35674 24.2749 5.77663ZM23.0173 3.86805C23.0173 4.02073 23.0676 4.1607 23.1808 4.28794L23.2184 4.32611L23.2311 4.27521C23.2814 3.99529 23.5705 3.77898 23.9102 3.77898C24.2498 3.77898 24.5391 3.99529 24.5894 4.27521L24.6019 4.32611L24.6396 4.28794C24.7529 4.1607 24.8031 4.02073 24.8031 3.86805C24.8031 3.46089 24.4133 3.13007 23.9228 3.13007C23.4071 3.13007 23.0173 3.46089 23.0173 3.86805ZM28.3749 8.52498V8.44864C28.3622 8.33413 28.3119 8.18143 28.2366 8.02875C27.6328 9.50473 26.2244 10.001 24.0485 9.492H24.036C23.6084 9.3902 23.3694 9.05938 23.1304 8.2196C22.9418 8.53771 22.816 8.9067 22.816 9.22479V9.28842C22.8286 9.42837 22.8915 10.1664 23.5204 10.5481C25.0798 11.4515 26.9663 11.0189 27.746 10.0518C28.1359 9.5429 28.3749 8.9576 28.3749 8.52498ZM26.3752 20.549L26.6268 21.4142L27.3184 21.287L27.0794 20.4726C26.8279 20.5236 26.589 20.549 26.3752 20.549ZM27.2807 20.4345L27.5322 21.2615L28.1736 21.147L27.8593 20.2309C27.7083 20.3072 27.507 20.3836 27.2807 20.4345ZM26.6896 21.656L26.8908 22.4577L27.5952 22.3304L27.3814 21.5287L26.6896 21.656ZM27.5952 21.4906L27.809 22.2921L28.4881 22.1776L28.2491 21.3761L27.5952 21.4906ZM26.9411 22.6993L27.1549 23.7046L27.8843 23.59L27.658 22.5848L26.9411 22.6993ZM27.8718 22.5339L28.0981 23.5519L28.815 23.4374L28.5509 22.4194L27.8718 22.5339ZM27.1927 23.9336L27.3435 24.9387L28.0981 24.8497L27.9221 23.8191L27.1927 23.9336ZM28.1484 23.7808L28.3246 24.8243L29.0792 24.7352L28.8653 23.6664L28.1484 23.7808ZM27.3814 25.1805L27.4694 26.1985L28.2491 26.1221L28.1484 25.0915L27.3814 25.1805ZM28.3622 25.066L28.4629 26.1093L29.2426 26.0329L29.1168 24.9769L28.3622 25.066ZM27.4694 26.4401L27.4569 27.5344L28.2618 27.509L28.2491 26.3639L27.4694 26.4401ZM28.4756 26.3384L28.4881 27.509L29.2805 27.4835L29.2678 26.2621L28.4756 26.3384ZM27.4442 27.7889L27.331 28.794H28.1484L28.2618 27.7508L27.4442 27.7889ZM28.4756 27.7508L28.3622 28.794H29.142L29.2678 27.7125L28.4756 27.7508ZM27.0544 29.9774L27.8718 29.9901L28.0981 29.0358L27.2807 29.0232L27.0544 29.9774ZM28.0981 30.0029L28.8528 30.0155L29.1043 29.0358H28.3246L28.0981 30.0029ZM26.9789 30.2318L26.6016 31.1862H27.419L27.7838 30.2446L26.9789 30.2318ZM28.0228 30.2573L27.658 31.1989H28.3622L28.7522 30.2827L28.0228 30.2573ZM25.9602 32.344C26.0482 32.344 26.7525 32.344 26.7525 32.344C26.9538 32.0513 27.1424 31.746 27.3059 31.4278H26.4883C26.3248 31.746 26.1489 32.0641 25.9602 32.344ZM27.0166 32.3568C27.0921 32.3568 27.6455 32.3568 27.6455 32.3568C27.8593 32.0641 28.0731 31.7588 28.2491 31.4278C28.1736 31.4278 27.5574 31.4278 27.5574 31.4278C27.3939 31.7588 27.2052 32.0641 27.0166 32.3568ZM25.2182 33.2983C25.3188 33.2983 25.9602 33.2983 25.9602 33.2983C26.174 33.0819 26.3752 32.8403 26.5638 32.5986C26.4758 32.5986 25.8092 32.5986 25.7841 32.5986C25.6081 32.8403 25.4068 33.0819 25.2182 33.2983ZM26.262 33.2983C26.35 33.2983 26.8028 33.2983 26.8028 33.2983C27.0292 33.0819 27.2431 32.8403 27.4442 32.5986C27.3562 32.5986 26.8531 32.5986 26.8279 32.5986C26.6645 32.8403 26.4632 33.0819 26.262 33.2983ZM24.3629 34.0999C24.4887 34.0999 25.042 34.0745 25.042 34.0745C25.1302 34.0109 25.3816 33.8455 25.7086 33.5528C25.6081 33.5528 25.0044 33.5528 24.9792 33.5528C24.7151 33.8072 24.5013 33.9854 24.3629 34.0999ZM25.432 34.0618C25.5451 34.0618 25.8847 34.049 25.8847 34.049C25.9476 33.9981 26.1992 33.8327 26.5387 33.5528C26.4382 33.5528 26.0231 33.5528 26.0231 33.5528C25.8344 33.7437 25.6331 33.9091 25.432 34.0618ZM25.6206 17.1518L25.4948 18.615C25.4696 18.8695 25.6331 19.264 25.8596 19.4165C26.0859 19.5693 26.4255 19.6074 26.8154 19.5312C27.4442 19.4165 27.5952 19.124 27.5952 18.8185C27.5952 18.6022 27.5322 18.4242 27.3687 18.1951L26.4632 16.999L25.6206 17.1518ZM27.3435 18.8185C27.3435 18.9332 27.3435 19.1367 26.9286 19.2512L26.6518 18.4877L27.1927 18.3987C27.2932 18.5513 27.3435 18.6786 27.3435 18.8185ZM25.8469 17.3681L25.9854 17.3426L26.3375 18.3224L25.7589 18.4242C25.7967 18.0297 25.8469 17.3681 25.8469 17.3681ZM27.0418 18.1951L26.5765 18.2714L26.2244 17.2917L26.3375 17.2663L27.0418 18.1951ZM25.7338 18.6531L26.413 18.5387L26.6896 19.3021C26.4003 19.353 26.1489 19.3149 25.9854 19.213C25.8469 19.124 25.7338 18.8313 25.7338 18.6531ZM19.6594 3.85532C19.6467 3.90622 19.697 3.98256 19.7599 3.99529C19.785 4.00802 20.0492 4.08436 20.0492 4.50425C20.0492 4.56786 20.0995 4.61876 20.1498 4.63149C20.2126 4.6442 20.2756 4.60603 20.2881 4.54242C20.2881 4.54242 20.4391 4.12253 20.6781 4.03346C20.8289 3.96985 20.7409 3.74081 20.5899 3.79171C20.4643 3.84261 20.351 3.93168 20.2505 4.08436L20.2253 4.12253L20.2126 4.08436C20.112 3.86805 19.936 3.76625 19.8229 3.74081C19.7347 3.72808 19.6844 3.76627 19.6594 3.85532ZM30.8776 2.87559C30.5631 2.9392 30.362 3.06644 30.274 3.27002L30.2613 3.30819L30.2362 3.28275C30.0727 3.0919 29.9595 3.01556 29.9595 3.01556C29.8967 2.97738 29.8212 2.9901 29.7834 3.05373C29.7457 3.11734 29.7582 3.19368 29.8212 3.23185C29.8212 3.23185 30.0475 3.39726 30.3117 3.80444C30.3493 3.86805 30.4248 3.88078 30.4878 3.84261C30.5506 3.80444 30.5631 3.72808 30.5381 3.66447C30.5255 3.65174 30.4626 3.49906 30.5255 3.37182C30.5758 3.25731 30.7268 3.16824 30.9531 3.13007C31.0159 3.11734 31.0662 3.05373 31.0537 2.97738C31.0159 2.91376 30.9406 2.86286 30.8776 2.87559ZM18.6532 20.8926C17.5087 22.6612 17.1189 24.1244 16.9679 25.4349C16.8169 26.7201 17.1565 28.2469 17.1942 28.4123C17.2445 28.6541 17.1817 28.8704 17.1189 28.9087C17.0937 28.9213 17.0434 28.9213 17.0182 28.9087C16.9931 28.845 16.9806 28.794 16.9554 28.7305C16.9176 28.6032 16.8673 28.4761 16.8421 28.336C16.8296 28.2343 16.7289 28.1834 16.6409 28.196C16.553 28.2215 16.49 28.3105 16.5026 28.3997C16.5278 28.5523 16.7164 29.0613 16.7289 29.1631C16.8044 29.5957 16.7541 29.901 16.5906 29.901C16.2007 29.901 15.8234 29.812 15.5593 29.5702C14.6538 28.6924 14.4777 25.7659 14.5658 24.8243L14.1256 25.1932C14.1256 25.1932 14.1508 21.6179 16.0372 18.5259L15.1317 18.9839C15.1317 18.9839 15.8109 16.4391 18.955 13.9708L18.0746 14.0853C18.0746 14.0853 20.0868 12.5203 20.3888 8.74129L19.7599 8.98304C19.7599 8.98304 20.2001 7.76156 20.1875 7.01085L19.6091 7.22714C19.6091 7.22714 19.7096 6.32376 20.0115 5.45854C20.0115 5.45854 18.2759 5.35674 18.6783 3.75354C19.1185 2.04854 20.9799 3.24458 20.9799 3.24458C20.9799 3.24458 22.5017 0.292649 25.432 0C25.432 0 25.1175 0.241753 25.2307 0.801604C25.2307 0.801604 25.9476 -0.025447 26.6896 0.076344C26.6896 0.076344 26.35 0.381717 26.35 0.737984C26.35 0.737984 27.4569 0.279925 28.0353 0.648918C28.0353 0.648918 27.7335 0.82705 27.658 1.00519C27.658 1.00519 28.6894 1.53959 29.3684 2.62111C29.3684 2.62111 31.28 1.336 31.9718 2.88832C32.6635 4.44062 30.7519 4.63149 30.7519 4.63149C30.7519 4.63149 31.4562 5.43308 31.6322 7.1508L31.1166 6.93449C31.1166 6.93449 31.1794 8.15599 31.5065 9.07211L30.9907 9.04667C30.9907 9.04667 31.1669 9.77192 31.5568 10.4717L31.104 10.319C31.104 10.319 31.3682 11.9477 31.8838 12.5457C32.3869 13.1437 33.066 13.7418 33.3678 14.1362L32.8395 14.1489C32.8395 14.1489 34.5123 15.8157 35.1788 17.2536L34.6632 17.139C34.6632 17.139 36.7635 19.3403 36.0592 23.5645C35.8579 23.0174 35.5183 22.2159 35.0657 21.5033C35.1537 21.5033 35.5183 21.4778 35.5183 21.4778C35.5183 21.4778 35.2165 20.638 33.5312 18.9967C33.6319 18.9713 34.047 18.8949 34.047 18.8949C34.047 18.8949 32.8898 17.5971 32.1479 16.6173C31.7455 16.0957 31.343 15.6122 31.0537 15.0778C31.0034 14.9887 30.8902 14.9632 30.8148 15.0141C30.7644 15.0523 30.7016 15.1668 30.7519 15.2559C31.1166 15.8794 31.4058 16.312 31.8711 16.91C32.437 17.6353 33.0533 18.335 33.3678 18.6786C33.2419 18.7041 32.7893 18.7931 32.7893 18.7931C32.7893 18.7931 34.2105 20.04 34.9399 21.1725L34.4243 21.2107C34.4243 21.2107 35.3927 22.3813 36.2101 25.1805L35.8076 24.9387C35.8076 24.9387 36.3987 27.5726 35.6065 29.7356L35.292 29.3666C35.292 29.3666 34.5626 33.6673 30.0099 34.9525C30.0099 34.9525 29.8464 37.0138 32.0724 37.7263C34.311 38.4387 35.4303 38.9096 36.0341 39.4948C36.0341 39.4948 34.8519 41.2253 32.9276 40.589C31.0034 39.9529 28.2491 40.2582 28.2491 40.2582C28.2491 40.2582 26.262 40.4619 26.0231 38.3115L25.8596 36.2502C25.8596 36.2502 27.4945 35.9703 27.7963 35.665C27.8843 35.5758 27.8341 35.4996 27.7712 35.5251C27.1424 35.6776 24.3378 36.1231 22.5268 35.4613C22.3759 35.4104 22.3884 35.4868 22.4262 35.5632C22.5142 35.7031 22.816 35.9831 23.797 36.1993L23.7467 37.1792C23.7467 37.1792 23.5204 40.3092 19.6844 40.4491C19.6844 40.4491 18.6405 40.5637 17.6596 40.7672C16.6661 40.9835 15.7857 40.9454 14.4777 40.5128C14.4777 40.5128 15.1695 39.5329 17.144 38.5532C19.1185 37.5735 19.8857 36.4029 19.2568 33.9854L18.7538 34.469C18.7538 34.469 17.6721 33.54 17.0937 32.1914L16.9176 32.713C16.9176 32.713 16.2385 31.6315 15.8486 30.1428C16.3893 30.2827 16.7038 30.3591 16.9679 30.1047C17.1565 29.901 17.1314 29.5193 17.1062 29.2776C17.383 29.2649 17.6848 28.9087 17.5465 28.336C17.5087 28.1706 17.1817 26.7073 17.3327 25.4732C17.4583 24.4298 17.7855 22.9411 18.9676 21.0961C19.9485 19.5438 21.0302 17.9152 21.0554 15.1668C21.0554 15.065 20.9799 14.9887 20.8792 14.9887C20.7786 14.9887 20.7031 15.065 20.7031 15.1668C20.6654 17.8007 19.6216 19.3911 18.6532 20.8926ZM26.0231 14.5561L24.6271 14.7724L24.8912 15.9684L26.4758 15.714L26.0231 14.5561ZM25.042 16.6047L24.866 18.5641C24.8282 19.0094 25.0547 19.6583 25.52 19.9638C25.8847 20.2054 26.3752 20.2818 26.9411 20.1801C28.0605 19.9638 28.2239 19.2385 28.2239 18.8313C28.2239 18.4623 28.1108 18.1442 27.8593 17.8134L26.7148 16.312L25.042 16.6047Z" fill="#D0033F"/>
</g>
<defs>
<clipPath id="clip0_1602_2641">
<rect width="183" height="54" fill="white"/>
</clipPath>
</defs>
</svg>
