<svg width="204" height="60" viewBox="0 0 204 60" fill="none" xmlns="http://www.w3.org/2000/svg">
<g clip-path="url(#clip0_314_6237)">
<path d="M72.898 9.71875L78.9511 25.8302L85.0042 9.71875H89.9169V30.8524H86.1446V24.0739L86.5247 14.5523L80.2816 30.8524H77.6206L71.392 14.5523L71.7575 24.0739V30.8524H68V9.71875H72.898Z" fill="#161515"/>
<path d="M96.2623 30.8524H92.3001L100.312 9.71875H103.734L111.775 30.8524H107.813L106.132 26.019H97.9438L96.2623 30.8524ZM98.9964 22.9999H105.064L102.023 14.2909L98.9964 22.9999Z" fill="#161515"/>
<path d="M125.299 25.3951C125.299 24.8242 125.178 24.3355 124.934 23.929C124.69 23.5227 124.242 23.1502 123.589 22.8115C122.946 22.4727 122.01 22.1148 120.782 21.7373C119.437 21.331 118.233 20.8519 117.17 20.3004C116.118 19.7391 115.284 19.052 114.67 18.2393C114.056 17.4264 113.749 16.4345 113.749 15.2636C113.749 14.1219 114.071 13.1107 114.714 12.23C115.357 11.3496 116.249 10.6625 117.39 10.169C118.53 9.67547 119.851 9.42871 121.352 9.42871C122.941 9.42871 124.31 9.71901 125.46 10.2996C126.62 10.8705 127.507 11.6446 128.122 12.6219C128.745 13.5994 129.057 14.688 129.057 15.8878H125.285C125.285 14.8815 124.958 14.0542 124.305 13.4059C123.662 12.7477 122.663 12.4188 121.308 12.4188C120.031 12.4188 119.081 12.6946 118.457 13.2461C117.833 13.788 117.521 14.4605 117.521 15.2636C117.521 16.0378 117.892 16.6861 118.632 17.2087C119.383 17.7216 120.519 18.2005 122.039 18.6457C124.408 19.3424 126.172 20.2133 127.332 21.2583C128.492 22.2937 129.072 23.6629 129.072 25.3661C129.072 27.1561 128.38 28.5691 126.996 29.6043C125.621 30.6301 123.779 31.1431 121.469 31.1431C120.445 31.1431 119.437 31.0075 118.442 30.7366C117.448 30.456 116.547 30.0399 115.738 29.4883C114.938 28.927 114.295 28.2255 113.808 27.3836C113.33 26.5417 113.091 25.5499 113.091 24.4081H116.863C116.863 25.7532 117.307 26.7159 118.194 27.2965C119.081 27.8772 120.172 28.1674 121.469 28.1674C122.736 28.1674 123.691 27.9109 124.335 27.3982C124.978 26.8757 125.299 26.208 125.299 25.3951Z" fill="#161515"/>
<path d="M148.605 23.9436C148.479 25.3369 148.084 26.5757 147.421 27.6595C146.758 28.7432 145.828 29.5947 144.629 30.2141C143.43 30.8333 141.963 31.1431 140.228 31.1431C138.473 31.1431 136.953 30.7366 135.666 29.9237C134.379 29.1012 133.385 27.9401 132.683 26.4401C131.981 24.9403 131.63 23.1694 131.63 21.1277V19.4585C131.63 17.4168 131.986 15.6459 132.698 14.1461C133.409 12.6463 134.418 11.485 135.724 10.6625C137.04 9.83997 138.59 9.42871 140.374 9.42871C142.08 9.42871 143.517 9.7432 144.687 10.3722C145.866 10.9915 146.778 11.8527 147.421 12.9559C148.074 14.0492 148.469 15.3072 148.605 16.7297H144.848C144.702 15.3847 144.297 14.3396 143.634 13.5944C142.981 12.8494 141.894 12.4769 140.374 12.4769C138.726 12.4769 137.489 13.0767 136.66 14.2767C135.841 15.4669 135.432 17.1845 135.432 19.4295V21.1277C135.432 23.2663 135.807 24.9644 136.558 26.2224C137.308 27.4707 138.532 28.0949 140.228 28.0949C141.777 28.0949 142.889 27.7416 143.561 27.0353C144.243 26.3192 144.667 25.2886 144.833 23.9436H148.605Z" fill="#161515"/>
<path d="M168.914 20.8375C168.914 22.9759 168.544 24.8144 167.803 26.353C167.062 27.8916 166.029 29.077 164.703 29.9093C163.377 30.7318 161.833 31.1431 160.068 31.1431C158.333 31.1431 156.793 30.7318 155.448 29.9093C154.113 29.077 153.065 27.8916 152.305 26.353C151.554 24.8144 151.179 22.9759 151.179 20.8375V19.7487C151.179 17.6103 151.554 15.7717 152.305 14.2332C153.055 12.6946 154.098 11.5092 155.433 10.677C156.769 9.8448 158.304 9.42871 160.039 9.42871C161.803 9.42871 163.348 9.8448 164.674 10.677C166.009 11.5092 167.047 12.6946 167.788 14.2332C168.539 15.7717 168.914 17.6103 168.914 19.7487V20.8375ZM165.127 19.7197C165.127 17.378 164.679 15.5976 163.782 14.3784C162.895 13.1494 161.647 12.5348 160.039 12.5348C158.46 12.5348 157.222 13.1494 156.325 14.3784C155.429 15.5976 154.98 17.378 154.98 19.7197V20.8375C154.98 23.1694 155.433 24.9548 156.34 26.1934C157.246 27.432 158.489 28.0513 160.068 28.0513C161.686 28.0513 162.934 27.432 163.811 26.1934C164.689 24.9548 165.127 23.1694 165.127 20.8375V19.7197Z" fill="#161515"/>
<path d="M180.362 30.8524H176.62V12.7379H170.039V9.71875H187V12.7379H180.362V30.8524Z" fill="#161515"/>
<path d="M189.266 13.9839C189.266 12.851 189.457 11.8001 189.837 10.831C190.225 9.86194 190.754 9.01759 191.423 8.29793C192.102 7.57114 192.884 7.00824 193.769 6.60922C194.662 6.20307 195.616 6 196.632 6C197.649 6 198.601 6.20307 199.487 6.60922C200.379 7.00824 201.159 7.57114 201.831 8.29793C202.509 9.01759 203.038 9.86194 203.419 10.831C203.806 11.8001 204 12.851 204 13.9839C204 15.1169 203.806 16.1679 203.419 17.137C203.038 18.1059 202.509 18.9574 201.831 19.6913C201.159 20.4182 200.379 20.9846 199.487 21.3909C198.601 21.797 197.649 21.9999 196.632 21.9999C195.616 21.9999 194.662 21.797 193.769 21.3909C192.884 20.9846 192.102 20.4182 191.423 19.6913C190.754 18.9574 190.225 18.1059 189.837 17.137C189.457 16.1679 189.266 15.1169 189.266 13.9839ZM190.511 13.9839C190.511 14.9316 190.67 15.8117 190.988 16.6239C191.306 17.4362 191.746 18.1452 192.306 18.7509C192.867 19.3565 193.516 19.8303 194.257 20.1723C194.997 20.5143 195.789 20.6854 196.632 20.6854C197.477 20.6854 198.269 20.5143 199.009 20.1723C199.748 19.8303 200.399 19.3565 200.959 18.7509C201.52 18.1452 201.955 17.4362 202.266 16.6239C202.586 15.8117 202.744 14.9316 202.744 13.9839C202.744 13.0363 202.586 12.1599 202.266 11.3547C201.955 10.5424 201.52 9.83345 200.959 9.22779C200.399 8.62214 199.748 8.15186 199.009 7.81697C198.269 7.48207 197.477 7.31463 196.632 7.31463C195.789 7.31463 194.997 7.48207 194.257 7.81697C193.516 8.15186 192.867 8.62214 192.306 9.22779C191.746 9.83345 191.306 10.5424 190.988 11.3547C190.67 12.1599 190.511 13.0363 190.511 13.9839ZM199.952 15.3948C199.952 16.5206 199.641 17.3614 199.019 17.9172C198.404 18.473 197.56 18.7509 196.488 18.7509C195.381 18.7509 194.502 18.3696 193.853 17.6073C193.202 16.8447 192.877 15.8472 192.877 14.6146V13.3641C192.877 12.1385 193.202 11.1446 193.853 10.3821C194.502 9.61257 195.381 9.22779 196.488 9.22779C197.56 9.22779 198.407 9.50925 199.029 10.0721C199.651 10.6279 199.963 11.4615 199.963 12.5731H198.387C198.387 11.8821 198.223 11.3868 197.899 11.0875C197.581 10.7882 197.11 10.6386 196.488 10.6386C195.816 10.6386 195.308 10.8916 194.963 11.3974C194.616 11.9033 194.444 12.5553 194.444 13.3534V14.6146C194.444 15.4197 194.616 16.0752 194.963 16.5813C195.308 17.0799 195.816 17.3294 196.488 17.3294C197.11 17.3294 197.581 17.1833 197.899 16.8912C198.217 16.5989 198.376 16.1002 198.376 15.3948H199.952Z" fill="#161515"/>
<path d="M75.9858 35.9585H78.6138L81.896 49.3304L84.5725 35.9585H87.685L83.6398 53.7552H80.588L77.3058 40.8598L73.9633 53.7552H70.9233L66.8661 35.9585H69.9786L72.6794 49.2938L75.9858 35.9585Z" fill="#161515"/>
<path d="M104.023 45.3216C104.023 47.1224 103.716 48.6708 103.102 49.9664C102.489 51.2621 101.633 52.2603 100.535 52.9609C99.4367 53.6537 98.157 54 96.6957 54C95.2585 54 93.9826 53.6537 92.8684 52.9609C91.7624 52.2603 90.8944 51.2621 90.2646 49.9664C89.6429 48.6708 89.3321 47.1224 89.3321 45.3216V44.4049C89.3321 42.6041 89.6429 41.0557 90.2646 39.7601C90.8862 38.4644 91.7502 37.4662 92.8564 36.7654C93.9626 36.0646 95.2342 35.7144 96.6713 35.7144C98.1328 35.7144 99.4124 36.0646 100.511 36.7654C101.617 37.4662 102.477 38.4644 103.09 39.7601C103.712 41.0557 104.023 42.6041 104.023 44.4049V45.3216ZM100.886 44.3804C100.886 42.4085 100.515 40.9092 99.7718 39.8823C99.0371 38.8474 98.0036 38.33 96.6713 38.33C95.3634 38.33 94.3379 38.8474 93.5952 39.8823C92.8523 40.9092 92.481 42.4085 92.481 44.3804V45.3216C92.481 47.2854 92.8564 48.7889 93.6073 49.8318C94.3582 50.875 95.3875 51.3965 96.6957 51.3965C98.0359 51.3965 99.0694 50.875 99.7959 49.8318C100.523 48.7889 100.886 47.2854 100.886 45.3216V44.3804Z" fill="#161515"/>
<path d="M113.264 35.9585C115.282 35.9585 116.852 36.4147 117.975 37.3274C119.097 38.24 119.658 39.5724 119.658 41.3244C119.658 42.5304 119.367 43.5367 118.786 44.3434C118.213 45.1502 117.426 45.7695 116.424 46.2014L120.361 53.5963V53.7552H117.018L113.506 46.9469H110.127V53.7552H107.002V35.9585H113.264ZM113.264 38.5008H110.127V44.4168H113.288C114.362 44.4168 115.169 44.1439 115.71 43.5979C116.251 43.0436 116.521 42.343 116.521 41.4955C116.521 40.5828 116.259 39.8576 115.734 39.3197C115.209 38.7739 114.386 38.5008 113.264 38.5008Z" fill="#161515"/>
<path d="M125.726 53.7552H122.601V35.9585H125.726V44.3067L127.433 42.1311L132.496 35.9585H136.311L129.795 43.8423L136.638 53.7552H132.92L127.724 46.1402L125.726 48.2792V53.7552Z" fill="#161515"/>
<path d="M146.181 35.9585H148.809L152.092 49.3304L154.768 35.9585H157.881L153.835 53.7552H150.783L147.501 40.8598L144.159 53.7552H141.119L137.062 35.9585H140.174L142.875 49.2938L146.181 35.9585Z" fill="#161515"/>
<path d="M171.663 53.7552H160.097V35.9585H171.603V38.5008H163.221V43.3411H170.44V45.8347H163.221V51.2251H171.663V53.7552Z" fill="#161515"/>
<path d="M175.829 53.7552H172.547L179.183 35.9585H182.017L188.68 53.7552H185.397L184.005 49.685H177.222L175.829 53.7552ZM178.094 47.1425H183.121L180.601 39.8086L178.094 47.1425Z" fill="#161515"/>
<path d="M196.903 35.9585C198.92 35.9585 200.491 36.4147 201.613 37.3274C202.735 38.24 203.296 39.5724 203.296 41.3244C203.296 42.5304 203.006 43.5367 202.424 44.3434C201.851 45.1502 201.064 45.7695 200.063 46.2014L204 53.5963V53.7552H200.656L197.144 46.9469H193.766V53.7552H190.641V35.9585H196.903ZM196.903 38.5008H193.766V44.4168H196.926C198.001 44.4168 198.808 44.1439 199.349 43.5979C199.889 43.0436 200.16 42.343 200.16 41.4955C200.16 40.5828 199.898 39.8576 199.373 39.3197C198.847 38.7739 198.025 38.5008 196.903 38.5008Z" fill="#161515"/>
<path d="M53.6435 48.7891H48.1617C47.6711 48.8173 46.858 49.1 46.858 50.0897C46.858 51.0794 47.6571 51.3763 48.1477 51.3903H49.3955C49.5217 51.3903 49.6198 51.4894 49.6198 51.6166V58.6289C49.6198 59.2226 49.9562 59.9295 50.8815 59.9295C51.877 59.9295 52.1574 59.1236 52.1715 58.6289V51.5883C52.1715 51.4611 52.2696 51.362 52.3957 51.362H53.6294C54.1061 51.348 54.9194 51.0793 54.9194 50.0756C54.9333 48.8739 53.7838 48.7891 53.6435 48.7891Z" fill="#D0033F"/>
<path d="M21.9144 58.3456L20.0216 50.796C20.0076 50.7114 19.5169 48.8169 17.5262 48.8169C15.5213 48.8169 15.0586 50.7114 15.0446 50.782L13.18 58.3173C13.0818 58.798 13.166 59.6745 14.1193 59.9148C15.0306 60.1411 15.5353 59.5473 15.6755 58.9677L15.8858 58.2041C15.9138 58.1052 15.998 58.0346 16.1101 58.0346H19.0262C19.1243 58.0346 19.2226 58.1052 19.2505 58.2184L19.4329 58.9818C19.4749 59.1232 19.8535 60.24 21.003 59.9431C21.9283 59.6745 22.0125 58.812 21.9144 58.3456ZM18.4234 55.3625C18.3813 55.4191 18.3112 55.4474 18.2412 55.4474H16.769C16.6989 55.4474 16.6288 55.4191 16.5868 55.3625C16.5447 55.306 16.5307 55.2354 16.5447 55.1646L17.2878 52.1957C17.3159 52.0968 17.4 52.026 17.512 52.026C17.6103 52.026 17.7084 52.0968 17.7364 52.1957L18.4654 55.1646C18.4935 55.2354 18.4654 55.306 18.4234 55.3625Z" fill="#D0033F"/>
<path d="M44.1252 48.8032H41.2932C41.181 48.8032 38.5172 48.8456 38.5172 51.6025V57.1304C38.5172 57.2433 38.5875 59.9295 41.2932 59.9295H44.1393C44.1813 59.9295 45.373 59.9437 46.1722 59.1803C46.6628 58.6996 46.9011 58.0069 46.9011 57.1304V51.6025C46.9011 51.4893 46.845 48.8032 44.1252 48.8032ZM44.3496 52.1255V56.5648C44.3496 57.003 44.013 57.3424 43.5924 57.3424H41.826C41.3914 57.3424 41.0689 57.003 41.0689 56.5648V52.1255C41.0689 51.6873 41.3773 51.3764 41.826 51.3764H43.5924C44.0271 51.3764 44.3496 51.7014 44.3496 52.1255Z" fill="#D0033F"/>
<path d="M24.8734 51.3757H27.5371C27.6633 51.3757 27.7613 51.4747 27.7613 51.602C27.7613 51.7433 27.8174 52.4926 28.6307 52.6906H28.6586C28.7708 52.7189 28.8969 52.7329 29.0233 52.7329C29.9625 52.7329 30.313 52.0402 30.313 51.4464V51.0365C30.313 48.9017 28.3502 48.8311 28.1399 48.8311H24.2986C22.1675 48.8311 22.0975 50.8244 22.0975 51.0505V53.4823C22.0975 55.0092 23.135 55.4756 23.7517 55.6171C23.7658 55.6171 23.7798 55.6311 23.7798 55.6311L23.8219 55.6453C24.0742 55.7019 24.2565 55.7019 24.2986 55.7019H27.5511C27.6774 55.7019 27.7755 55.8008 27.7755 55.928V57.1297C27.7755 57.2569 27.6774 57.356 27.5511 57.356H24.8734C24.7472 57.356 24.649 57.2569 24.649 57.1297C24.649 56.9883 24.607 56.2956 23.7939 56.1118L23.7097 56.0977L23.3733 56.0695C22.448 56.0695 22.0975 56.7481 22.0833 57.3277V57.7376C22.0833 59.8867 24.0322 59.9573 24.2565 59.9573H28.126C30.2289 59.9573 30.2989 57.9922 30.2989 57.7659V55.3201C30.2989 53.7368 29.2194 53.2985 28.5746 53.1713L28.5185 53.1571C28.3082 53.1147 28.154 53.1147 28.126 53.1147H24.8593C24.7331 53.1147 24.635 53.0158 24.635 52.8884V51.6303C24.649 51.4747 24.7472 51.3757 24.8734 51.3757Z" fill="#D0033F"/>
<path d="M37.0704 57.3419H34.1122C33.6636 57.3419 33.3691 57.0307 33.3691 56.5783V52.1392C33.3691 51.6585 33.6355 51.3899 34.1122 51.3899H37.0704C37.6591 51.3899 38.3602 51.0506 38.3602 50.1175C38.3602 48.8875 37.1965 48.8169 37.0704 48.8169H33.5934C33.4812 48.8169 30.8174 48.8733 30.8174 51.6162V57.1298C30.8174 57.2428 30.8876 59.9291 33.5934 59.9291H37.0704C37.6732 59.9148 38.3602 59.5756 38.3602 58.6425C38.3461 57.6388 37.5471 57.3419 37.0704 57.3419Z" fill="#D0033F"/>
<path d="M9.284 48.7749C8.31663 48.7749 7.57358 49.0718 7.02681 49.51C6.48004 49.0718 5.73698 48.7749 4.76961 48.7749C2.16193 48.7749 1.20859 50.9238 1.20859 52.3658V58.6713C1.20859 59.4064 1.79742 60.0002 2.51242 60.0002C3.24145 60.0002 3.81627 59.4064 3.81627 58.6713V52.38C3.8443 51.7439 4.15275 51.4187 4.75559 51.4187C5.35844 51.4187 5.6809 51.7439 5.69492 52.38V58.6571C5.69492 59.3923 6.28375 59.986 6.99876 59.986C7.7278 59.986 8.31663 59.3923 8.31663 58.6571V52.38C8.33064 51.7439 8.6531 51.4187 9.25595 51.4187C9.8588 51.4187 10.1813 51.7439 10.1953 52.38V58.6713C10.1953 59.4064 10.7841 60.0002 11.4991 60.0002C12.2141 60.0002 12.803 59.4064 12.803 58.6713V52.3658C12.845 50.9097 11.8917 48.7749 9.284 48.7749Z" fill="#D0033F"/>
<path d="M28.3084 5.72573C28.8271 5.72573 29.2476 6.14986 29.2476 6.67296C29.2476 7.19604 28.8271 7.62017 28.3084 7.62017C27.7896 7.62017 27.369 7.19604 27.369 6.67296C27.369 6.14986 27.7896 5.72573 28.3084 5.72573ZM28.5046 6.71537C28.7009 6.71537 28.8691 6.54571 28.8691 6.34779C28.8691 6.14986 28.7009 5.98022 28.5046 5.98022C28.3084 5.98022 28.1401 6.14986 28.1401 6.34779C28.126 6.54571 28.2943 6.71537 28.5046 6.71537ZM28.9532 4.29783C28.9532 4.46748 29.0093 4.623 29.1354 4.76438L29.1776 4.80679L29.1915 4.75023C29.2476 4.43921 29.5701 4.19887 29.9486 4.19887C30.3271 4.19887 30.6496 4.43921 30.7057 4.75023L30.7197 4.80679L30.7618 4.76438C30.8739 4.623 30.9441 4.46748 30.9441 4.29783C30.9441 3.84543 30.4954 3.47786 29.9627 3.47786C29.4018 3.47786 28.9532 3.84543 28.9532 4.29783ZM27.0606 6.41847C27.0606 6.48917 26.8923 8.12913 26.1353 8.70878L25.925 8.9491C26.1492 9.68427 26.4998 10.1649 26.8642 10.2498H26.8784C27.9298 10.4901 30.4393 10.8294 31.3505 8.73705L31.2385 8.60981L31.1824 8.55326C31.0002 8.39774 30.6636 8.115 30.4813 7.97362C30.3693 7.88878 30.2991 7.83225 30.243 7.77569C30.1869 7.71914 29.6402 7.15363 29.5701 6.57399C29.5421 6.39021 29.3738 5.44298 28.4345 5.35815C27.6354 5.3016 27.1447 5.95193 27.0606 6.41847ZM25.6586 4.29783C25.6586 4.46748 25.7147 4.623 25.8408 4.76438L25.8828 4.80679L25.8969 4.75023C25.953 4.43921 26.2754 4.19887 26.654 4.19887C27.0325 4.19887 27.355 4.43921 27.4111 4.75023L27.4251 4.80679L27.4671 4.76438C27.5934 4.623 27.6493 4.46748 27.6493 4.29783C27.6493 3.84543 27.2148 3.47786 26.6681 3.47786C26.0931 3.47786 25.6586 3.84543 25.6586 4.29783ZM31.631 9.4722V9.38738C31.6169 9.26014 31.5608 9.09048 31.4769 8.92083C30.8038 10.5608 29.2337 11.1122 26.8081 10.5467H26.7942C26.3175 10.4336 26.0511 10.066 25.7847 9.13289C25.5745 9.48634 25.4342 9.89633 25.4342 10.2498V10.3205C25.4483 10.476 25.5184 11.296 26.2194 11.7201C27.9579 12.7239 30.0608 12.2432 30.93 11.1687C31.3646 10.6032 31.631 9.95289 31.631 9.4722ZM29.4018 22.8322L29.6823 23.7936L30.4533 23.6522L30.1869 22.7474C29.9066 22.8039 29.6402 22.8322 29.4018 22.8322ZM30.4113 22.705L30.6916 23.6239L31.4066 23.4967L31.0563 22.4787C30.888 22.5636 30.6636 22.6485 30.4113 22.705ZM29.7524 24.0622L29.9766 24.953L30.7618 24.8115L30.5235 23.9208L29.7524 24.0622ZM30.7618 23.8785L31.0002 24.769L31.7572 24.6418L31.4908 23.7513L30.7618 23.8785ZM30.0327 25.2214L30.271 26.3385L31.0842 26.2111L30.8319 25.0942L30.0327 25.2214ZM31.0702 25.0377L31.3225 26.1687L32.1217 26.0415L31.8272 24.9105L31.0702 25.0377ZM30.3132 26.5929L30.4813 27.7097L31.3225 27.6108L31.1263 26.4657L30.3132 26.5929ZM31.3786 26.4231L31.5749 27.5825L32.4161 27.4836L32.1778 26.2959L31.3786 26.4231ZM30.5235 27.9783L30.6216 29.1094L31.4908 29.0246L31.3786 27.8794L30.5235 27.9783ZM31.6169 27.8511L31.7291 29.0103L32.5983 28.9255L32.4581 27.7521L31.6169 27.8511ZM30.6216 29.3779L30.6076 30.5938L31.5049 30.5655L31.4908 29.2932L30.6216 29.3779ZM31.7432 29.2649L31.7572 30.5655L32.6405 30.5373L32.6264 29.1801L31.7432 29.2649ZM30.5935 30.8765L30.4674 31.9934H31.3786L31.5049 30.8342L30.5935 30.8765ZM31.7432 30.8342L31.6169 31.9934H32.4861L32.6264 30.7917L31.7432 30.8342ZM30.159 33.3082L31.0702 33.3223L31.3225 32.262L30.4113 32.2479L30.159 33.3082ZM31.3225 33.3365L32.1638 33.3506L32.4442 32.262H31.5749L31.3225 33.3365ZM30.0749 33.5909L29.6543 34.6514H30.5655L30.9721 33.6051L30.0749 33.5909ZM31.2385 33.6192L30.8319 34.6654H31.6169L32.0516 33.6475L31.2385 33.6192ZM28.9393 35.9378C29.0374 35.9378 29.8224 35.9378 29.8224 35.9378C30.0468 35.6126 30.2571 35.2733 30.4393 34.9198H29.528C29.3457 35.2733 29.1496 35.6268 28.9393 35.9378ZM30.1168 35.952C30.201 35.952 30.8179 35.952 30.8179 35.952C31.0563 35.6268 31.2946 35.2875 31.4908 34.9198C31.4066 34.9198 30.7197 34.9198 30.7197 34.9198C30.5374 35.2875 30.3271 35.6268 30.1168 35.952ZM28.112 36.9981C28.2242 36.9981 28.9393 36.9981 28.9393 36.9981C29.1776 36.7577 29.4018 36.4893 29.6121 36.2206C29.514 36.2206 28.771 36.2206 28.7429 36.2206C28.5467 36.4893 28.3223 36.7577 28.112 36.9981ZM29.2757 36.9981C29.3738 36.9981 29.8785 36.9981 29.8785 36.9981C30.131 36.7577 30.3693 36.4893 30.5935 36.2206C30.4954 36.2206 29.9346 36.2206 29.9066 36.2206C29.7243 36.4893 29.4999 36.7577 29.2757 36.9981ZM27.1587 37.8888C27.2989 37.8888 27.9157 37.8605 27.9157 37.8605C28.014 37.7899 28.2943 37.6061 28.6588 37.2809C28.5467 37.2809 27.8737 37.2809 27.8457 37.2809C27.5512 37.5636 27.3129 37.7616 27.1587 37.8888ZM28.3504 37.8465C28.4765 37.8465 28.8551 37.8322 28.8551 37.8322C28.9252 37.7757 29.2056 37.5919 29.5841 37.2809C29.472 37.2809 29.0093 37.2809 29.0093 37.2809C28.799 37.493 28.5746 37.6767 28.3504 37.8465ZM28.5607 19.0575L28.4204 20.6834C28.3924 20.9661 28.5746 21.4044 28.8271 21.5739C29.0793 21.7437 29.4579 21.786 29.8926 21.7013C30.5935 21.5739 30.7618 21.2489 30.7618 20.9095C30.7618 20.6691 30.6916 20.4713 30.5094 20.2167L29.4999 18.8878L28.5607 19.0575ZM30.4813 20.9095C30.4813 21.0369 30.4813 21.263 30.0188 21.3902L29.7102 20.5419L30.3132 20.443C30.4252 20.6126 30.4813 20.754 30.4813 20.9095ZM28.813 19.2979L28.9673 19.2696L29.3598 20.3582L28.7149 20.4713C28.757 20.033 28.813 19.2979 28.813 19.2979ZM30.1449 20.2167L29.6262 20.3016L29.2337 19.213L29.3598 19.1847L30.1449 20.2167ZM28.6868 20.7257L29.444 20.5985L29.7524 21.4467C29.4299 21.5033 29.1496 21.461 28.9673 21.3478C28.813 21.2489 28.6868 20.9237 28.6868 20.7257ZM21.9154 4.28369C21.9013 4.34025 21.9574 4.42507 22.0274 4.43921C22.0555 4.45335 22.3499 4.53818 22.3499 5.00472C22.3499 5.0754 22.406 5.13195 22.4621 5.1461C22.5321 5.16022 22.6023 5.11781 22.6163 5.04713C22.6163 5.04713 22.7846 4.58059 23.051 4.48162C23.2191 4.41094 23.121 4.15646 22.9527 4.21301C22.8126 4.26957 22.6863 4.36853 22.5743 4.53818L22.5462 4.58059L22.5321 4.53818C22.4199 4.29783 22.2238 4.18473 22.0976 4.15646C21.9994 4.14231 21.9433 4.18474 21.9154 4.28369ZM34.4209 3.1951C34.0704 3.26578 33.8461 3.40716 33.7481 3.63336L33.7339 3.67577L33.7059 3.6475C33.5237 3.43545 33.3975 3.35062 33.3975 3.35062C33.3275 3.30819 33.2433 3.32234 33.2012 3.39303C33.1592 3.46371 33.1731 3.54854 33.2433 3.59095C33.2433 3.59095 33.4956 3.77474 33.79 4.22715C33.832 4.29783 33.9162 4.31198 33.9864 4.26957C34.0564 4.22715 34.0704 4.14231 34.0425 4.07163C34.0284 4.05749 33.9583 3.88785 34.0284 3.74647C34.0845 3.61923 34.2528 3.52027 34.5051 3.47786C34.5751 3.46371 34.6312 3.39303 34.6173 3.30819C34.5751 3.23751 34.4911 3.18096 34.4209 3.1951ZM20.7937 23.214C19.5179 25.1791 19.0833 26.8049 18.915 28.261C18.7467 29.689 19.1253 31.3855 19.1673 31.5693C19.2234 31.8379 19.1534 32.0782 19.0833 32.1207C19.0553 32.1348 18.9992 32.1348 18.9711 32.1207C18.9431 32.0499 18.9292 31.9934 18.9011 31.9227C18.8589 31.7813 18.8028 31.6401 18.7748 31.4844C18.7609 31.3714 18.6487 31.3149 18.5506 31.3289C18.4525 31.3572 18.3823 31.4561 18.3964 31.5552C18.4244 31.7247 18.6347 32.2903 18.6487 32.4034C18.7328 32.8841 18.6767 33.2234 18.4945 33.2234C18.0598 33.2234 17.6392 33.1245 17.3448 32.8558C16.3354 31.8804 16.1391 28.6287 16.2373 27.5825L15.7466 27.9924C15.7466 27.9924 15.7746 24.0199 17.8775 20.5843L16.8682 21.0933C16.8682 21.0933 17.6253 18.2657 21.1301 15.5231L20.1487 15.6503C20.1487 15.6503 22.3919 13.9114 22.7285 9.71254L22.0274 9.98115C22.0274 9.98115 22.5182 8.62395 22.5041 7.78983L21.8593 8.03016C21.8593 8.03016 21.9713 7.02639 22.3079 6.06504C22.3079 6.06504 20.3731 5.95193 20.8218 4.1706C21.3124 2.27616 23.3874 3.60509 23.3874 3.60509C23.3874 3.60509 25.0838 0.325166 28.3504 0C28.3504 0 27.9998 0.268615 28.126 0.890671C28.126 0.890671 28.9252 -0.0282744 29.7524 0.0848266C29.7524 0.0848266 29.3738 0.42413 29.3738 0.819982C29.3738 0.819982 30.6076 0.311028 31.2525 0.72102C31.2525 0.72102 30.916 0.918945 30.8319 1.11687C30.8319 1.11687 31.9816 1.71065 32.7386 2.91235C32.7386 2.91235 34.8695 1.48445 35.6407 3.20925C36.4118 4.93402 34.2808 5.1461 34.2808 5.1461C34.2808 5.1461 35.0659 6.03675 35.2621 7.94534L34.6873 7.70499C34.6873 7.70499 34.7573 9.06221 35.122 10.0801L34.5471 10.0519C34.5471 10.0519 34.7434 10.8577 35.1781 11.6353L34.6734 11.4656C34.6734 11.4656 34.9678 13.2752 35.5426 13.9397C36.1034 14.6042 36.8604 15.2686 37.1968 15.7069L36.608 15.721C36.608 15.721 38.4727 17.573 39.2158 19.1707L38.641 19.0433C38.641 19.0433 40.9822 21.4893 40.1972 26.1828C39.9728 25.5749 39.5942 24.6843 39.0896 23.8925C39.1877 23.8925 39.5942 23.8642 39.5942 23.8642C39.5942 23.8642 39.2577 22.9311 37.3791 21.1075C37.4913 21.0792 37.954 20.9943 37.954 20.9943C37.954 20.9943 36.6641 19.5523 35.837 18.4637C35.3884 17.8841 34.9398 17.3469 34.6173 16.7531C34.5612 16.6541 34.435 16.6258 34.3509 16.6824C34.2948 16.7248 34.2247 16.852 34.2808 16.951C34.6873 17.6438 35.0098 18.1245 35.5285 18.7889C36.1593 19.5948 36.8463 20.3722 37.1968 20.754C37.0566 20.7823 36.552 20.8812 36.552 20.8812C36.552 20.8812 38.1363 22.2667 38.9494 23.525L38.3746 23.5675C38.3746 23.5675 39.4541 24.8681 40.3653 27.9783L39.9167 27.7097C39.9167 27.7097 40.5756 30.6362 39.6924 33.0396L39.3419 32.6295C39.3419 32.6295 38.5288 37.4081 33.4536 38.8361C33.4536 38.8361 33.2714 41.1264 35.7529 41.9181C38.2483 42.7097 39.4961 43.2329 40.1691 43.8831C40.1691 43.8831 38.8513 45.8059 36.7062 45.0989C34.5612 44.3921 31.4908 44.7314 31.4908 44.7314C31.4908 44.7314 29.2757 44.9577 29.0093 42.5683L28.8271 40.278C28.8271 40.278 30.6496 39.967 30.9861 39.6278C31.0842 39.5287 31.0282 39.444 30.958 39.4723C30.2571 39.6418 27.1306 40.1367 25.1119 39.4015C24.9436 39.3449 24.9575 39.4298 24.9997 39.5146C25.0978 39.6701 25.4342 39.9813 26.5278 40.2214L26.4717 41.3102C26.4717 41.3102 26.2194 44.7879 21.9433 44.9434C21.9433 44.9434 20.7796 45.0708 19.6862 45.2969C18.5786 45.5373 17.5972 45.4949 16.1391 45.0142C16.1391 45.0142 16.9102 43.9255 19.1114 42.8369C21.3124 41.7483 22.1677 40.4477 21.4666 37.7616L20.9059 38.2989C20.9059 38.2989 19.7001 37.2667 19.0553 35.7682L18.8589 36.3478C18.8589 36.3478 18.1019 35.1461 17.6672 33.492C18.2701 33.6475 18.6206 33.7323 18.915 33.4497C19.1253 33.2234 19.0973 32.7993 19.0692 32.5306C19.3778 32.5166 19.7142 32.1207 19.56 31.4844C19.5179 31.3006 19.1534 29.6748 19.3217 28.3035C19.4618 27.1442 19.8264 25.4901 21.1443 23.4401C22.2377 21.7154 23.4435 19.9058 23.4716 16.852C23.4716 16.7389 23.3874 16.6541 23.2752 16.6541C23.163 16.6541 23.0789 16.7389 23.0789 16.852C23.0369 19.7786 21.8732 21.5457 20.7937 23.214ZM29.0093 16.1734L27.4531 16.4138L27.7476 17.7427L29.514 17.46L29.0093 16.1734ZM27.9157 18.4497L27.7195 20.6268C27.6774 21.1215 27.9298 21.8426 28.4485 22.182C28.8551 22.4505 29.4018 22.5353 30.0327 22.4223C31.2805 22.182 31.4627 21.3761 31.4627 20.9237C31.4627 20.5137 31.3366 20.1602 31.0563 19.7926L29.7804 18.1245L27.9157 18.4497Z" fill="#D0033F"/>
</g>
<defs>
<clipPath id="clip0_314_6237">
<rect width="204" height="60" fill="white"/>
</clipPath>
</defs>
</svg>
