<svg width="20.000000" height="20.000000" viewBox="0 0 20 20" fill="none" xmlns="http://www.w3.org/2000/svg" xmlns:xlink="http://www.w3.org/1999/xlink">
	<desc>
			Created with Pixso.
	</desc>
	<defs/>
	<path id="Vector" d="M15.0938 3.87296L15.0938 3.84467C15.3926 3.54768 15.8574 3.54768 16.1562 3.84467C16.4531 4.14165 16.4531 4.60835 16.1562 4.90533L16.127 4.90533L15.0938 3.87296ZM4.90625 16.127L4.90625 16.1553C4.60742 16.4523 4.14258 16.4523 3.84375 16.1553C3.54688 15.8583 3.54688 15.3917 3.84375 15.0947L3.87305 15.0947L4.90625 16.127Z" fill="#161515" fill-opacity="1.000000" fill-rule="nonzero"/>
	<path id="Vector" d="M15.625 4.375L4.375 15.625" stroke="#161515" stroke-opacity="1.000000" stroke-width="1.500000" stroke-linejoin="round" stroke-linecap="round"/>
	<path id="Vector" d="M16.127 15.0947L16.1562 15.0947C16.4531 15.3917 16.4531 15.8583 16.1562 16.1553C15.8574 16.4523 15.3926 16.4523 15.0938 16.1553L15.0938 16.127L16.127 15.0947ZM3.87305 4.90533L3.84375 4.90533C3.54688 4.60835 3.54688 4.14165 3.84375 3.84467C4.14258 3.54768 4.60742 3.54768 4.90625 3.84467L4.90625 3.87296L3.87305 4.90533Z" fill="#161515" fill-opacity="1.000000" fill-rule="nonzero"/>
	<path id="Vector" d="M15.625 15.625L4.375 4.375" stroke="#161515" stroke-opacity="1.000000" stroke-width="1.500000" stroke-linejoin="round" stroke-linecap="round"/>
</svg>
