<svg width="26" height="26" viewBox="0 0 26 26" fill="none" xmlns="http://www.w3.org/2000/svg">
<path fill-rule="evenodd" clip-rule="evenodd" d="M13.0012 0.199951C9.52485 0.199951 9.08858 0.215151 7.72323 0.277285C6.36055 0.339686 5.43041 0.555422 4.61653 0.871958C3.77465 1.19889 3.06051 1.63623 2.34904 2.34797C1.63703 3.05945 1.19969 3.77359 0.871691 4.6152C0.554355 5.42934 0.338353 6.35975 0.277019 7.7219C0.215951 9.08724 0.199951 9.52378 0.199951 13.0001C0.199951 16.4764 0.215418 16.9113 0.277285 18.2767C0.339953 19.6394 0.555688 20.5695 0.871958 21.3834C1.19916 22.2252 1.6365 22.9394 2.34824 23.6509C3.05945 24.3629 3.77359 24.8013 4.61493 25.1282C5.42934 25.4447 6.35975 25.6605 7.72216 25.7229C9.08751 25.785 9.52351 25.8002 12.9996 25.8002C16.4761 25.8002 16.9111 25.785 18.2764 25.7229C19.6391 25.6605 20.5703 25.4447 21.3847 25.1282C22.2263 24.8013 22.9394 24.3629 23.6506 23.6509C24.3626 22.9394 24.7999 22.2252 25.1279 21.3836C25.4426 20.5695 25.6586 19.6391 25.7226 18.2769C25.784 16.9116 25.8 16.4764 25.8 13.0001C25.8 9.52378 25.784 9.08751 25.7226 7.72216C25.6586 6.35948 25.4426 5.42934 25.1279 4.61546C24.7999 3.77359 24.3626 3.05945 23.6506 2.34797C22.9386 1.63597 22.2266 1.19863 21.3839 0.871958C20.5679 0.555422 19.6372 0.339686 18.2745 0.277285C16.9092 0.215151 16.4745 0.199951 12.9972 0.199951H13.0012ZM12.5742 2.50652H12.5745L13.0012 2.50664C16.4188 2.50664 16.8239 2.51891 18.1735 2.58024C19.4215 2.63731 20.0988 2.84585 20.55 3.02105C21.1474 3.25305 21.5732 3.53039 22.021 3.97839C22.469 4.4264 22.7463 4.85307 22.9789 5.45041C23.1541 5.90108 23.3629 6.57842 23.4197 7.82643C23.481 9.17578 23.4943 9.58112 23.4943 12.9972C23.4943 16.4132 23.481 16.8185 23.4197 18.1679C23.3626 19.4159 23.1541 20.0932 22.9789 20.5439C22.7469 21.1412 22.469 21.5666 22.021 22.0143C21.573 22.4623 21.1476 22.7397 20.55 22.9717C20.0994 23.1477 19.4215 23.3557 18.1735 23.4127C16.8241 23.4741 16.4188 23.4874 13.0012 23.4874C9.58325 23.4874 9.17818 23.4741 7.82883 23.4127C6.58082 23.3551 5.90348 23.1466 5.45201 22.9714C4.85467 22.7394 4.428 22.462 3.97999 22.014C3.53199 21.566 3.25465 21.1404 3.02211 20.5428C2.84691 20.0922 2.63811 19.4148 2.58131 18.1668C2.51998 16.8175 2.50771 16.4121 2.50771 12.994C2.50771 9.57578 2.51998 9.17258 2.58131 7.82323C2.63838 6.57522 2.84691 5.89788 3.02211 5.44667C3.25412 4.84933 3.53199 4.42266 3.97999 3.97466C4.428 3.52665 4.85467 3.24932 5.45201 3.01678C5.90321 2.84078 6.58082 2.63278 7.82883 2.57544C9.00964 2.52211 9.46725 2.50611 11.8529 2.50344V2.50664C12.0758 2.50629 12.3155 2.5064 12.5742 2.50652ZM18.2977 6.16748C18.2977 5.3192 18.9857 4.632 19.8338 4.632V4.63146C20.6818 4.63146 21.3698 5.31947 21.3698 6.16748C21.3698 7.01549 20.6818 7.7035 19.8338 7.7035C18.9857 7.7035 18.2977 7.01549 18.2977 6.16748ZM13.0009 6.42668C9.37083 6.42682 6.42775 9.37 6.42775 13.0001C6.42775 16.6303 9.37098 19.5722 13.0012 19.5722C16.6313 19.5722 19.5735 16.6303 19.5735 13.0001C19.5735 9.36991 16.6311 6.42668 13.0009 6.42668ZM17.2679 13.0001C17.2679 10.6435 15.3574 8.73337 13.0012 8.73337C10.6446 8.73337 8.73444 10.6435 8.73444 13.0001C8.73444 15.3564 10.6446 17.2668 13.0012 17.2668C15.3574 17.2668 17.2679 15.3564 17.2679 13.0001Z" fill="white"/>
</svg>
