<svg width="20.125000" height="16.625000" viewBox="0 0 20.125 16.625" fill="none" xmlns="http://www.w3.org/2000/svg" xmlns:xlink="http://www.w3.org/1999/xlink">
	<desc>
			Created with Pixso.
	</desc>
	<defs/>
	<path id="Shape" d="M0.304688 7.73318C2.36328 6.60202 4.66016 5.65793 6.80859 4.70901C10.502 3.15475 14.2109 1.62744 17.957 0.205536C18.6875 -0.0367432 19.9961 -0.273682 20.125 0.803772C20.0547 2.32889 19.7656 3.84506 19.5664 5.36127C19.0625 8.69553 18.4805 12.0183 17.9141 15.3416C17.7188 16.4485 16.3281 17.0216 15.4375 16.3132C13.3008 14.8729 11.1465 13.4466 9.03516 11.9728C8.34375 11.2721 8.98633 10.2659 9.60352 9.7655C11.3633 8.0347 13.2305 6.56418 14.9004 4.74393C15.3496 3.65967 14.0195 4.57346 13.582 4.85342C11.1699 6.51031 8.81836 8.26834 6.27734 9.72452C4.98047 10.4373 3.4668 9.82816 2.16992 9.43042C1.00586 8.94995 -0.699219 8.46588 0.304688 7.73328L0.304688 7.73318Z" fill="#FFFFFF" fill-opacity="1.000000" fill-rule="nonzero"/>
</svg>
