<svg width="24.000000" height="24.000000" viewBox="0 0 24 24" fill="none" xmlns="http://www.w3.org/2000/svg" xmlns:xlink="http://www.w3.org/1999/xlink">
	<desc>
			Created with Pixso.
	</desc>
	<defs/>
	<rect id="vuesax/linear/element-3" width="24.000000" height="24.000000" fill="#FFFFFF" fill-opacity="0"/>
	<path id="Vector" d="M22 3.97998C22 2.56982 21.36 2 19.77 2L15.73 2C14.14 2 13.5 2.56982 13.5 3.97998L13.5 8.50977C13.5 9.93018 14.14 10.4902 15.73 10.4902L19.77 10.4902C21.36 10.5 22 9.93018 22 8.52002L22 3.97998Z" stroke="#161515" stroke-opacity="1.000000" stroke-width="1.500000" stroke-linejoin="round"/>
	<path id="Vector" d="M22 15.73C22 14.1401 21.36 13.5 19.77 13.5L15.73 13.5C14.14 13.5 13.5 14.1401 13.5 15.73L13.5 19.77C13.5 21.3599 14.14 22 15.73 22L19.77 22C21.36 22 22 21.3599 22 19.77L22 15.73Z" stroke="#161515" stroke-opacity="1.000000" stroke-width="1.500000" stroke-linejoin="round"/>
	<path id="Vector" d="M10.5 3.97998C10.5 2.56982 9.85999 2 8.27002 2L4.22998 2C2.64001 2 2 2.56982 2 3.97998L2 8.50977C2 9.93018 2.64001 10.4902 4.22998 10.4902L8.27002 10.4902C9.85999 10.5 10.5 9.93018 10.5 8.52002L10.5 3.97998Z" stroke="#161515" stroke-opacity="1.000000" stroke-width="1.500000" stroke-linejoin="round"/>
	<path id="Vector" d="M10.5 15.73C10.5 14.1401 9.85999 13.5 8.27002 13.5L4.22998 13.5C2.64001 13.5 2 14.1401 2 15.73L2 19.77C2 21.3599 2.64001 22 4.22998 22L8.27002 22C9.85999 22 10.5 21.3599 10.5 19.77L10.5 15.73Z" stroke="#161515" stroke-opacity="1.000000" stroke-width="1.500000" stroke-linejoin="round"/>
	<g opacity="0.000000"/>
</svg>
